AsbirMono-Regular.ufo
<glyph name="exclam" format="2">
  <advance width="600"/>
  <unicode hex="0021"/>
  <outline>
    <contour>
      <point x="273" y="209" type="curve"/>
      <point x="328" y="209" type="line"/>
      <point x="334" y="279"/>
      <point x="343" y="400"/>
      <point x="343" y="480" type="curve" smooth="yes"/>
      <point x="343" y="710" type="line"/>
      <point x="257" y="710" type="line"/>
      <point x="257" y="480" type="line" smooth="yes"/>
      <point x="257" y="400"/>
      <point x="267" y="279"/>
    </contour>
    <component base="period"/>
  </outline>
</glyph>
<glyph name="quotedbl" format="2">
  <advance width="600"/>
  <unicode hex="0022"/>
  <outline>
    <contour>
      <point x="345" y="353" type="line"/>
      <point x="411" y="353" type="line"/>
      <point x="435" y="600" type="line"/>
      <point x="435" y="710" type="line"/>
      <point x="341" y="710" type="line"/>
    </contour>
    <contour>
      <point x="189" y="353" type="line"/>
      <point x="255" y="353" type="line"/>
      <point x="259" y="710" type="line"/>
      <point x="165" y="710" type="line"/>
      <point x="165" y="600" type="line"/>
    </contour>
  </outline>
</glyph>
<glyph name="numbersign" format="2">
  <advance width="600"/>
  <unicode hex="0023"/>
  <outline>
    <contour>
      <point x="297" y="0" type="line"/>
      <point x="369" y="0" type="line"/>
      <point x="501" y="710" type="line"/>
      <point x="429" y="710" type="line"/>
    </contour>
    <contour>
      <point x="50" y="197" type="line"/>
      <point x="498" y="197" type="line"/>
      <point x="510" y="267" type="line"/>
      <point x="62" y="267" type="line"/>
    </contour>
    <contour>
      <point x="100" y="0" type="line"/>
      <point x="172" y="0" type="line"/>
      <point x="304" y="710" type="line"/>
      <point x="232" y="710" type="line"/>
    </contour>
    <contour>
      <point x="90" y="440" type="line"/>
      <point x="538" y="440" type="line"/>
      <point x="550" y="510" type="line"/>
      <point x="102" y="510" type="line"/>
    </contour>
  </outline>
</glyph>
<glyph name="dollar" format="2">
  <advance width="600"/>
  <unicode hex="0024"/>
  <outline>
    <contour>
      <point x="263" y="-90" type="line"/>
      <point x="337" y="-90" type="line"/>
      <point x="337" y="800" type="line"/>
      <point x="263" y="800" type="line"/>
    </contour>
    <contour>
      <point x="311" y="-16" type="curve" smooth="yes"/>
      <point x="456" y="-16"/>
      <point x="556" y="62"/>
      <point x="556" y="174" type="curve" smooth="yes"/>
      <point x="556" y="292"/>
      <point x="494" y="341"/>
      <point x="321" y="390" type="curve" smooth="yes"/>
      <point x="187" y="428"/>
      <point x="151" y="451"/>
      <point x="151" y="518" type="curve" smooth="yes"/>
      <point x="151" y="586"/>
      <point x="207" y="626"/>
      <point x="295" y="626" type="curve" smooth="yes"/>
      <point x="391" y="626"/>
      <point x="441" y="570"/>
      <point x="453" y="484" type="curve"/>
      <point x="543" y="490" type="line"/>
      <point x="527" y="620"/>
      <point x="443" y="710"/>
      <point x="297" y="710" type="curve" smooth="yes"/>
      <point x="151" y="710"/>
      <point x="61" y="633"/>
      <point x="61" y="514" type="curve" smooth="yes"/>
      <point x="61" y="418"/>
      <point x="119" y="357"/>
      <point x="267" y="318" type="curve" smooth="yes"/>
      <point x="435" y="274"/>
      <point x="466" y="244"/>
      <point x="466" y="176" type="curve" smooth="yes"/>
      <point x="466" y="107"/>
      <point x="412" y="68"/>
      <point x="313" y="68" type="curve" smooth="yes"/>
      <point x="213" y="68"/>
      <point x="148" y="127"/>
      <point x="134" y="233" type="curve"/>
      <point x="44" y="227" type="line"/>
      <point x="56" y="83"/>
      <point x="161" y="-16"/>
    </contour>
  </outline>
</glyph>
<glyph name="percent" format="2">
  <advance width="600"/>
  <unicode hex="0025"/>
  <outline>
    <contour>
      <point x="154" y="366" type="curve" smooth="yes"/>
      <point x="234" y="366"/>
      <point x="298" y="428"/>
      <point x="298" y="542" type="curve" smooth="yes"/>
      <point x="298" y="656"/>
      <point x="234" y="718"/>
      <point x="154" y="718" type="curve" smooth="yes"/>
      <point x="74" y="718"/>
      <point x="10" y="656"/>
      <point x="10" y="542" type="curve" smooth="yes"/>
      <point x="10" y="428"/>
      <point x="74" y="366"/>
    </contour>
    <contour>
      <point x="154" y="428" type="curve" smooth="yes"/>
      <point x="110" y="428"/>
      <point x="82" y="470"/>
      <point x="82" y="542" type="curve" smooth="yes"/>
      <point x="82" y="614"/>
      <point x="110" y="656"/>
      <point x="154" y="656" type="curve" smooth="yes"/>
      <point x="198" y="656"/>
      <point x="226" y="614"/>
      <point x="226" y="542" type="curve" smooth="yes"/>
      <point x="226" y="470"/>
      <point x="198" y="428"/>
    </contour>
    <contour>
      <point x="49" y="0" type="line"/>
      <point x="125" y="0" type="line"/>
      <point x="551" y="710" type="line"/>
      <point x="475" y="710" type="line"/>
    </contour>
    <contour>
      <point x="446" y="-8" type="curve" smooth="yes"/>
      <point x="526" y="-8"/>
      <point x="590" y="54"/>
      <point x="590" y="168" type="curve" smooth="yes"/>
      <point x="590" y="282"/>
      <point x="526" y="344"/>
      <point x="446" y="344" type="curve" smooth="yes"/>
      <point x="366" y="344"/>
      <point x="302" y="282"/>
      <point x="302" y="168" type="curve" smooth="yes"/>
      <point x="302" y="54"/>
      <point x="366" y="-8"/>
    </contour>
    <contour>
      <point x="446" y="54" type="curve" smooth="yes"/>
      <point x="402" y="54"/>
      <point x="374" y="96"/>
      <point x="374" y="168" type="curve" smooth="yes"/>
      <point x="374" y="240"/>
      <point x="402" y="282"/>
      <point x="446" y="282" type="curve" smooth="yes"/>
      <point x="490" y="282"/>
      <point x="518" y="240"/>
      <point x="518" y="168" type="curve" smooth="yes"/>
      <point x="518" y="96"/>
      <point x="490" y="54"/>
    </contour>
  </outline>
</glyph>
<glyph name="ampersand" format="2">
  <advance width="600"/>
  <unicode hex="0026"/>
  <outline>
    <contour>
      <point x="240" y="-16" type="curve" smooth="yes"/>
      <point x="336" y="-16"/>
      <point x="403" y="8"/>
      <point x="442" y="45" type="curve"/>
      <point x="479" y="0" type="line"/>
      <point x="580" y="0" type="line"/>
      <point x="495" y="103" type="line"/>
      <point x="534" y="150"/>
      <point x="561" y="230"/>
      <point x="562" y="310" type="curve"/>
      <point x="478" y="318" type="line"/>
      <point x="478" y="250"/>
      <point x="466" y="199"/>
      <point x="442" y="166" type="curve"/>
      <point x="280" y="373" type="line"/>
      <point x="387" y="444"/>
      <point x="428" y="498"/>
      <point x="428" y="574" type="curve" smooth="yes"/>
      <point x="428" y="668"/>
      <point x="368" y="726"/>
      <point x="262" y="726" type="curve" smooth="yes"/>
      <point x="154" y="726"/>
      <point x="88" y="664"/>
      <point x="88" y="562" type="curve" smooth="yes"/>
      <point x="88" y="499"/>
      <point x="114" y="454"/>
      <point x="160" y="394" type="curve"/>
      <point x="54" y="319"/>
      <point x="20" y="265"/>
      <point x="20" y="174" type="curve" smooth="yes"/>
      <point x="20" y="52"/>
      <point x="104" y="-16"/>
    </contour>
    <contour>
      <point x="250" y="64" type="curve" smooth="yes"/>
      <point x="152" y="64"/>
      <point x="110" y="107"/>
      <point x="110" y="174" type="curve" smooth="yes"/>
      <point x="110" y="236"/>
      <point x="138" y="278"/>
      <point x="210" y="328" type="curve"/>
      <point x="386" y="106" type="line"/>
      <point x="363" y="82"/>
      <point x="318" y="64"/>
    </contour>
    <contour>
      <point x="234" y="434" type="curve"/>
      <point x="192" y="488"/>
      <point x="178" y="521"/>
      <point x="178" y="562" type="curve" smooth="yes"/>
      <point x="178" y="612"/>
      <point x="209" y="642"/>
      <point x="262" y="642" type="curve" smooth="yes"/>
      <point x="310" y="642"/>
      <point x="338" y="616"/>
      <point x="338" y="568" type="curve" smooth="yes"/>
      <point x="338" y="517"/>
      <point x="310" y="481"/>
    </contour>
  </outline>
</glyph>
<glyph name="quotesingle" format="2">
  <advance width="600"/>
  <unicode hex="0027"/>
  <outline>
    <contour>
      <point x="264" y="353" type="line"/>
      <point x="336" y="353" type="line"/>
      <point x="350" y="604" type="line"/>
      <point x="350" y="710" type="line"/>
      <point x="250" y="710" type="line"/>
      <point x="250" y="604" type="line"/>
    </contour>
  </outline>
</glyph>
<glyph name="parenleft" format="2">
  <advance width="600"/>
  <unicode hex="0028"/>
  <outline>
    <contour>
      <point x="356" y="-110" type="curve"/>
      <point x="440" y="-110" type="line"/>
      <point x="290" y="34"/>
      <point x="247" y="177"/>
      <point x="247" y="320" type="curve" smooth="yes"/>
      <point x="247" y="463"/>
      <point x="290" y="607"/>
      <point x="440" y="750" type="curve"/>
      <point x="356" y="750" type="line"/>
      <point x="200" y="612"/>
      <point x="160" y="466"/>
      <point x="160" y="320" type="curve" smooth="yes"/>
      <point x="160" y="174"/>
      <point x="200" y="28"/>
    </contour>
  </outline>
</glyph>
<glyph name="asterisk" format="2">
  <advance width="600"/>
  <unicode hex="002A"/>
  <outline>
    <contour>
      <point x="198" y="284" type="line"/>
      <point x="300" y="430" type="line"/>
      <point x="403" y="284" type="line"/>
      <point x="463" y="324" type="line"/>
      <point x="364" y="460" type="line"/>
      <point x="520" y="460" type="line"/>
      <point x="520" y="534" type="line"/>
      <point x="364" y="534" type="line"/>
      <point x="463" y="670" type="line"/>
      <point x="403" y="710" type="line"/>
      <point x="300" y="564" type="line"/>
      <point x="198" y="710" type="line"/>
      <point x="138" y="670" type="line"/>
      <point x="236" y="534" type="line"/>
      <point x="80" y="534" type="line"/>
      <point x="80" y="460" type="line"/>
      <point x="236" y="460" type="line"/>
      <point x="138" y="324" type="line"/>
    </contour>
  </outline>
</glyph>
<glyph name="plus" format="2">
  <advance width="600"/>
  <unicode hex="002B"/>
  <outline>
    <contour>
      <point x="61" y="256" type="line"/>
      <point x="539" y="256" type="line"/>
      <point x="539" y="334" type="line"/>
      <point x="61" y="334" type="line"/>
    </contour>
    <contour>
      <point x="261" y="56" type="line"/>
      <point x="339" y="56" type="line"/>
      <point x="339" y="534" type="line"/>
      <point x="261" y="534" type="line"/>
    </contour>
  </outline>
</glyph>
<glyph name="comma" format="2">
  <advance width="600"/>
  <unicode hex="002C"/>
  <outline>
    <contour>
      <point x="240" y="-162" type="line"/>
      <point x="300" y="-162" type="line"/>
      <point x="360" y="10" type="line"/>
      <point x="360" y="122" type="line"/>
      <point x="240" y="122" type="line"/>
      <point x="240" y="0" type="line"/>
      <point x="294" y="0" type="line"/>
    </contour>
  </outline>
</glyph>
<glyph name="hyphen" format="2">
  <advance width="600"/>
  <unicode hex="002D"/>
  <outline>
    <contour>
      <point x="120" y="252" type="line"/>
      <point x="480" y="252" type="line"/>
      <point x="480" y="331" type="line"/>
      <point x="120" y="331" type="line"/>
    </contour>
  </outline>
</glyph>
<glyph name="period" format="2">
  <advance width="600"/>
  <unicode hex="002E"/>
  <outline>
    <contour>
      <point x="238" y="0" type="line"/>
      <point x="362" y="0" type="line"/>
      <point x="362" y="122" type="line"/>
      <point x="238" y="122" type="line"/>
    </contour>
  </outline>
</glyph>
<glyph name="slash" format="2">
  <advance width="600"/>
  <unicode hex="002F"/>
  <outline>
    <contour>
      <point x="108" y="-110" type="line"/>
      <point x="188" y="-110" type="line"/>
      <point x="492" y="750" type="line"/>
      <point x="412" y="750" type="line"/>
    </contour>
  </outline>
</glyph>
<glyph name="zero" format="2">
  <advance width="600"/>
  <unicode hex="0030"/>
  <outline>
    <contour>
      <point x="120" y="102" type="line"/>
      <point x="200" y="98" type="line"/>
      <point x="480" y="608" type="line"/>
      <point x="400" y="612" type="line"/>
    </contour>
    <component base="zero.ss09"/>
  </outline>
</glyph>
<glyph name="one" format="2">
  <advance width="600"/>
  <unicode hex="0031"/>
  <outline>
    <contour>
      <point x="284" y="0" type="line"/>
      <point x="370" y="0" type="line"/>
      <point x="370" y="710" type="line"/>
      <point x="300" y="710" type="line"/>
      <point x="300" y="630"/>
      <point x="270" y="600"/>
      <point x="194" y="600" type="curve" smooth="yes"/>
      <point x="98" y="600" type="line"/>
      <point x="98" y="526" type="line"/>
      <point x="284" y="526" type="line"/>
    </contour>
    <contour>
      <point x="60" y="0" type="line"/>
      <point x="540" y="0" type="line"/>
      <point x="540" y="84" type="line"/>
      <point x="60" y="84" type="line"/>
    </contour>
  </outline>
</glyph>
<glyph name="two" format="2">
  <advance width="600"/>
  <unicode hex="0032"/>
  <outline>
    <contour>
      <point x="50" y="0" type="curve"/>
      <point x="550" y="0" type="line"/>
      <point x="550" y="84" type="line"/>
      <point x="156" y="84" type="line"/>
      <point x="160" y="138"/>
      <point x="226" y="212"/>
      <point x="354" y="280" type="curve" smooth="yes"/>
      <point x="501" y="358"/>
      <point x="549" y="412"/>
      <point x="549" y="520" type="curve" smooth="yes"/>
      <point x="549" y="642"/>
      <point x="463" y="726"/>
      <point x="317" y="726" type="curve" smooth="yes"/>
      <point x="163" y="726"/>
      <point x="70" y="637"/>
      <point x="54" y="498" type="curve"/>
      <point x="144" y="492" type="line"/>
      <point x="159" y="588"/>
      <point x="217" y="642"/>
      <point x="317" y="642" type="curve" smooth="yes"/>
      <point x="411" y="642"/>
      <point x="459" y="591"/>
      <point x="459" y="518" type="curve" smooth="yes"/>
      <point x="459" y="446"/>
      <point x="420" y="414"/>
      <point x="322" y="362" type="curve" smooth="yes"/>
      <point x="109" y="249"/>
      <point x="50" y="150"/>
    </contour>
  </outline>
</glyph>
<glyph name="three" format="2">
  <advance width="600"/>
  <unicode hex="0033"/>
  <outline>
    <contour>
      <point x="294" y="-16" type="curve" smooth="yes"/>
      <point x="442" y="-16"/>
      <point x="550" y="62"/>
      <point x="550" y="198" type="curve" smooth="yes"/>
      <point x="550" y="302"/>
      <point x="477" y="376"/>
      <point x="361" y="390" type="curve"/>
      <point x="361" y="372" type="line"/>
      <point x="469" y="392"/>
      <point x="525" y="446"/>
      <point x="525" y="534" type="curve" smooth="yes"/>
      <point x="525" y="652"/>
      <point x="437" y="726"/>
      <point x="299" y="726" type="curve" smooth="yes"/>
      <point x="161" y="726"/>
      <point x="79" y="653"/>
      <point x="66" y="547" type="curve"/>
      <point x="156" y="541" type="line"/>
      <point x="165" y="604"/>
      <point x="209" y="642"/>
      <point x="299" y="642" type="curve" smooth="yes"/>
      <point x="387" y="642"/>
      <point x="435" y="603"/>
      <point x="435" y="530" type="curve" smooth="yes"/>
      <point x="435" y="449"/>
      <point x="373" y="419"/>
      <point x="299" y="419" type="curve" smooth="yes"/>
      <point x="243" y="419" type="line"/>
      <point x="243" y="335" type="line"/>
      <point x="299" y="335" type="line" smooth="yes"/>
      <point x="391" y="335"/>
      <point x="460" y="292"/>
      <point x="460" y="198" type="curve" smooth="yes"/>
      <point x="460" y="102"/>
      <point x="380" y="68"/>
      <point x="294" y="68" type="curve" smooth="yes"/>
      <point x="209" y="68"/>
      <point x="147" y="102"/>
      <point x="139" y="189" type="curve"/>
      <point x="50" y="183" type="line"/>
      <point x="56" y="66"/>
      <point x="140" y="-16"/>
    </contour>
  </outline>
</glyph>
<glyph name="four" format="2">
  <advance width="600"/>
  <unicode hex="0034"/>
  <outline>
    <contour>
      <point x="388" y="0" type="line"/>
      <point x="474" y="0" type="line"/>
      <point x="474" y="154" type="line"/>
      <point x="560" y="154" type="line"/>
      <point x="560" y="238" type="line"/>
      <point x="474" y="238" type="line"/>
      <point x="474" y="710" type="line"/>
      <point x="382" y="710" type="line"/>
      <point x="40" y="232" type="line"/>
      <point x="40" y="154" type="line"/>
      <point x="388" y="154" type="line"/>
    </contour>
    <contour>
      <point x="128" y="238" type="line"/>
      <point x="388" y="590" type="line"/>
      <point x="388" y="238" type="line"/>
    </contour>
  </outline>
</glyph>
<glyph name="five" format="2">
  <advance width="600"/>
  <unicode hex="0035"/>
  <outline>
    <contour>
      <point x="298" y="-16" type="curve" smooth="yes"/>
      <point x="439" y="-16"/>
      <point x="540" y="85"/>
      <point x="540" y="228" type="curve" smooth="yes"/>
      <point x="540" y="370"/>
      <point x="448" y="472"/>
      <point x="312" y="472" type="curve" smooth="yes"/>
      <point x="250" y="472"/>
      <point x="181" y="441"/>
      <point x="150" y="380" type="curve"/>
      <point x="166" y="364" type="line"/>
      <point x="198" y="626" type="line"/>
      <point x="497" y="626" type="line"/>
      <point x="497" y="710" type="line"/>
      <point x="119" y="710" type="line"/>
      <point x="72" y="311" type="line"/>
      <point x="164" y="311" type="line"/>
      <point x="187" y="361"/>
      <point x="244" y="390"/>
      <point x="300" y="390" type="curve" smooth="yes"/>
      <point x="394" y="390"/>
      <point x="450" y="328"/>
      <point x="450" y="228" type="curve" smooth="yes"/>
      <point x="450" y="128"/>
      <point x="390" y="68"/>
      <point x="298" y="68" type="curve" smooth="yes"/>
      <point x="216" y="68"/>
      <point x="160" y="109"/>
      <point x="150" y="189" type="curve"/>
      <point x="60" y="183" type="line"/>
      <point x="70" y="65"/>
      <point x="160" y="-16"/>
    </contour>
  </outline>
</glyph>
<glyph name="six" format="2">
  <advance width="600"/>
  <unicode hex="0036"/>
  <outline>
    <contour>
      <point x="302" y="-16" type="curve" smooth="yes"/>
      <point x="449" y="-16"/>
      <point x="550" y="80"/>
      <point x="550" y="236" type="curve" smooth="yes"/>
      <point x="550" y="382"/>
      <point x="458" y="478"/>
      <point x="318" y="478" type="curve" smooth="yes"/>
      <point x="216" y="478"/>
      <point x="142" y="416"/>
      <point x="120" y="344" type="curve"/>
      <point x="138" y="340" type="line"/>
      <point x="142" y="542"/>
      <point x="212" y="642"/>
      <point x="330" y="642" type="curve" smooth="yes"/>
      <point x="408" y="642"/>
      <point x="444" y="606"/>
      <point x="460" y="550" type="curve"/>
      <point x="550" y="558" type="line"/>
      <point x="522" y="658"/>
      <point x="456" y="726"/>
      <point x="330" y="726" type="curve" smooth="yes"/>
      <point x="120" y="726"/>
      <point x="50" y="534"/>
      <point x="50" y="300" type="curve" smooth="yes"/>
      <point x="50" y="97"/>
      <point x="142" y="-16"/>
    </contour>
    <contour>
      <point x="304" y="68" type="curve" smooth="yes"/>
      <point x="206" y="68"/>
      <point x="144" y="138"/>
      <point x="144" y="236" type="curve" smooth="yes"/>
      <point x="144" y="334"/>
      <point x="216" y="396"/>
      <point x="312" y="396" type="curve" smooth="yes"/>
      <point x="401" y="396"/>
      <point x="460" y="334"/>
      <point x="460" y="236" type="curve" smooth="yes"/>
      <point x="460" y="130"/>
      <point x="397" y="68"/>
    </contour>
  </outline>
</glyph>
<glyph name="seven" format="2">
  <advance width="600"/>
  <unicode hex="0037"/>
  <outline>
    <contour>
      <point x="192" y="0" type="curve"/>
      <point x="284" y="0" type="line"/>
      <point x="284" y="240"/>
      <point x="361" y="428"/>
      <point x="540" y="632" type="curve"/>
      <point x="540" y="710" type="line"/>
      <point x="60" y="710" type="line"/>
      <point x="60" y="626" type="line"/>
      <point x="446" y="626" type="line"/>
      <point x="288" y="444"/>
      <point x="192" y="220"/>
    </contour>
  </outline>
</glyph>
<glyph name="eight" format="2">
  <advance width="600"/>
  <unicode hex="0038"/>
  <outline>
    <contour>
      <point x="300" y="-16" type="curve" smooth="yes"/>
      <point x="441" y="-16"/>
      <point x="550" y="57"/>
      <point x="550" y="195" type="curve" smooth="yes"/>
      <point x="550" y="298"/>
      <point x="484" y="367"/>
      <point x="382" y="391" type="curve"/>
      <point x="380" y="371" type="line"/>
      <point x="462" y="393"/>
      <point x="516" y="443"/>
      <point x="516" y="531" type="curve" smooth="yes"/>
      <point x="516" y="643"/>
      <point x="426" y="726"/>
      <point x="300" y="726" type="curve" smooth="yes"/>
      <point x="174" y="726"/>
      <point x="84" y="643"/>
      <point x="84" y="531" type="curve" smooth="yes"/>
      <point x="84" y="443"/>
      <point x="138" y="393"/>
      <point x="220" y="371" type="curve"/>
      <point x="218" y="391" type="line"/>
      <point x="116" y="367"/>
      <point x="50" y="298"/>
      <point x="50" y="195" type="curve" smooth="yes"/>
      <point x="50" y="57"/>
      <point x="159" y="-16"/>
    </contour>
    <contour>
      <point x="300" y="68" type="curve" smooth="yes"/>
      <point x="207" y="68"/>
      <point x="140" y="110"/>
      <point x="140" y="200" type="curve" smooth="yes"/>
      <point x="140" y="283"/>
      <point x="194" y="337"/>
      <point x="300" y="337" type="curve" smooth="yes"/>
      <point x="406" y="337"/>
      <point x="460" y="283"/>
      <point x="460" y="200" type="curve" smooth="yes"/>
      <point x="460" y="110"/>
      <point x="393" y="68"/>
    </contour>
    <contour>
      <point x="300" y="417" type="curve" smooth="yes"/>
      <point x="224" y="417"/>
      <point x="174" y="455"/>
      <point x="174" y="531" type="curve" smooth="yes"/>
      <point x="174" y="599"/>
      <point x="222" y="642"/>
      <point x="300" y="642" type="curve" smooth="yes"/>
      <point x="378" y="642"/>
      <point x="426" y="599"/>
      <point x="426" y="531" type="curve" smooth="yes"/>
      <point x="426" y="455"/>
      <point x="376" y="417"/>
    </contour>
  </outline>
</glyph>
<glyph name="equal" format="2">
  <advance width="600"/>
  <unicode hex="003D"/>
  <outline>
    <contour>
      <point x="80" y="364" type="line"/>
      <point x="520" y="364" type="line"/>
      <point x="520" y="442" type="line"/>
      <point x="80" y="442" type="line"/>
    </contour>
    <contour>
      <point x="80" y="157" type="line"/>
      <point x="520" y="157" type="line"/>
      <point x="520" y="235" type="line"/>
      <point x="80" y="235" type="line"/>
    </contour>
  </outline>
</glyph>
<glyph name="greater" format="2">
  <advance width="600"/>
  <unicode hex="003E"/>
  <outline>
    <contour>
      <point x="72" y="33" type="line"/>
      <point x="528" y="236" type="line"/>
      <point x="528" y="342" type="line"/>
      <point x="72" y="545" type="line"/>
      <point x="72" y="459" type="line"/>
      <point x="466" y="283" type="line"/>
      <point x="466" y="295" type="line"/>
      <point x="72" y="119" type="line"/>
    </contour>
  </outline>
</glyph>
<glyph name="question" format="2">
  <advance width="600"/>
  <unicode hex="003F"/>
  <outline>
    <contour>
      <point x="254" y="201" type="curve"/>
      <point x="340" y="201" type="line"/>
      <point x="340" y="271"/>
      <point x="355" y="303"/>
      <point x="409" y="338" type="curve" smooth="yes"/>
      <point x="495" y="394"/>
      <point x="534" y="438"/>
      <point x="534" y="522" type="curve" smooth="yes"/>
      <point x="534" y="641"/>
      <point x="445" y="726"/>
      <point x="315" y="726" type="curve" smooth="yes"/>
      <point x="169" y="726"/>
      <point x="78" y="632"/>
      <point x="66" y="500" type="curve"/>
      <point x="156" y="494" type="line"/>
      <point x="166" y="590"/>
      <point x="216" y="642"/>
      <point x="315" y="642" type="curve" smooth="yes"/>
      <point x="396" y="642"/>
      <point x="444" y="591"/>
      <point x="444" y="522" type="curve" smooth="yes"/>
      <point x="444" y="462"/>
      <point x="429" y="438"/>
      <point x="351" y="390" type="curve" smooth="yes"/>
      <point x="282" y="347"/>
      <point x="254" y="297"/>
    </contour>
    <component base="period" xOffset="-3"/>
  </outline>
</glyph>
<glyph name="at" format="2">
  <advance width="600"/>
  <unicode hex="0040"/>
  <outline>
    <contour>
      <point x="428" y="-70" type="curve"/>
      <point x="402" y="-4" type="line"/>
      <point x="358" y="-29"/>
      <point x="314" y="-42"/>
      <point x="276" y="-42" type="curve" smooth="yes"/>
      <point x="161" y="-42"/>
      <point x="90" y="46"/>
      <point x="90" y="246" type="curve" smooth="yes"/>
      <point x="90" y="512"/>
      <point x="194" y="640"/>
      <point x="326" y="640" type="curve" smooth="yes"/>
      <point x="455" y="640"/>
      <point x="510" y="539"/>
      <point x="510" y="377" type="curve" smooth="yes"/>
      <point x="510" y="202"/>
      <point x="486" y="144"/>
      <point x="450" y="144" type="curve" smooth="yes"/>
      <point x="431" y="144"/>
      <point x="416" y="169"/>
      <point x="416" y="218" type="curve" smooth="yes"/>
      <point x="416" y="269"/>
      <point x="427" y="360"/>
      <point x="442" y="500" type="curve"/>
      <point x="372" y="500" type="line"/>
      <point x="361" y="407" type="line"/>
      <point x="371" y="418" type="line"/>
      <point x="373" y="465"/>
      <point x="341" y="501"/>
      <point x="293" y="501" type="curve" smooth="yes"/>
      <point x="210" y="501"/>
      <point x="144" y="383"/>
      <point x="144" y="252" type="curve" smooth="yes"/>
      <point x="144" y="147"/>
      <point x="183" y="80"/>
      <point x="250" y="80" type="curve" smooth="yes"/>
      <point x="300" y="80"/>
      <point x="342" y="116"/>
      <point x="360" y="182" type="curve"/>
      <point x="350" y="182" type="line"/>
      <point x="360" y="119"/>
      <point x="393" y="76"/>
      <point x="438" y="76" type="curve" smooth="yes"/>
      <point x="517" y="76"/>
      <point x="580" y="140"/>
      <point x="580" y="382" type="curve" smooth="yes"/>
      <point x="580" y="575"/>
      <point x="494" y="710"/>
      <point x="330" y="710" type="curve" smooth="yes"/>
      <point x="153" y="710"/>
      <point x="20" y="554"/>
      <point x="20" y="245" type="curve" smooth="yes"/>
      <point x="20" y="-5"/>
      <point x="126" y="-110"/>
      <point x="274" y="-110" type="curve" smooth="yes"/>
      <point x="326" y="-110"/>
      <point x="375" y="-97"/>
    </contour>
    <contour>
      <point x="274" y="142" type="curve" smooth="yes"/>
      <point x="240" y="142"/>
      <point x="222" y="188"/>
      <point x="222" y="260" type="curve" smooth="yes"/>
      <point x="222" y="350"/>
      <point x="258" y="433"/>
      <point x="302" y="433" type="curve" smooth="yes"/>
      <point x="337" y="433"/>
      <point x="355" y="400"/>
      <point x="355" y="334" type="curve" smooth="yes"/>
      <point x="355" y="233"/>
      <point x="317" y="142"/>
    </contour>
  </outline>
</glyph>
<glyph name="A" format="2">
  <advance width="600"/>
  <unicode hex="0041"/>
  <anchor x="300" y="0" name="bottom"/>
  <anchor x="574" y="0" name="ogonek"/>
  <anchor x="300" y="710" name="top"/>
  <outline>
    <contour>
      <point x="26" y="0" type="line"/>
      <point x="118" y="0" type="line"/>
      <point x="300" y="632" type="line"/>
      <point x="482" y="0" type="line"/>
      <point x="574" y="0" type="line"/>
      <point x="358" y="710" type="line"/>
      <point x="242" y="710" type="line"/>
    </contour>
    <contour>
      <point x="135" y="202" type="line"/>
      <point x="465" y="202" type="line"/>
      <point x="435" y="286" type="line"/>
      <point x="165" y="286" type="line"/>
    </contour>
  </outline>
</glyph>
<glyph name="B" format="2">
  <advance width="600"/>
  <unicode hex="0042"/>
  <anchor x="300" y="0" name="bottom"/>
  <anchor x="300" y="710" name="top"/>
  <outline>
    <contour>
      <point x="90" y="0" type="line"/>
      <point x="315" y="0" type="line" smooth="yes"/>
      <point x="465" y="0"/>
      <point x="556" y="75"/>
      <point x="556" y="198" type="curve" smooth="yes"/>
      <point x="556" y="302"/>
      <point x="482" y="368"/>
      <point x="358" y="368" type="curve"/>
      <point x="358" y="362" type="line"/>
      <point x="458" y="362"/>
      <point x="526" y="427"/>
      <point x="526" y="516" type="curve" smooth="yes"/>
      <point x="526" y="636"/>
      <point x="446" y="710"/>
      <point x="290" y="710" type="curve" smooth="yes"/>
      <point x="90" y="710" type="line"/>
    </contour>
    <contour>
      <point x="176" y="84" type="line"/>
      <point x="176" y="319" type="line"/>
      <point x="316" y="319" type="line" smooth="yes"/>
      <point x="414" y="319"/>
      <point x="466" y="274"/>
      <point x="466" y="198" type="curve" smooth="yes"/>
      <point x="466" y="126"/>
      <point x="418" y="84"/>
      <point x="316" y="84" type="curve" smooth="yes"/>
    </contour>
    <contour>
      <point x="176" y="403" type="line"/>
      <point x="176" y="626" type="line"/>
      <point x="294" y="626" type="line" smooth="yes"/>
      <point x="392" y="626"/>
      <point x="436" y="586"/>
      <point x="436" y="514" type="curve" smooth="yes"/>
      <point x="436" y="443"/>
      <point x="392" y="403"/>
      <point x="294" y="403" type="curve" smooth="yes"/>
    </contour>
  </outline>
</glyph>
<glyph name="C" format="2">
  <advance width="600"/>
  <unicode hex="0043"/>
  <anchor x="315" y="0" name="bottom"/>
  <anchor x="302" y="710" name="top"/>
  <outline>
    <contour>
      <point x="302" y="-16" type="curve" smooth="yes"/>
      <point x="436" y="-16"/>
      <point x="530" y="78"/>
      <point x="556" y="234" type="curve"/>
      <point x="465" y="239" type="line"/>
      <point x="445" y="126"/>
      <point x="384" y="68"/>
      <point x="302" y="68" type="curve" smooth="yes"/>
      <point x="189" y="68"/>
      <point x="128" y="171"/>
      <point x="128" y="354" type="curve" smooth="yes"/>
      <point x="128" y="538"/>
      <point x="189" y="642"/>
      <point x="302" y="642" type="curve" smooth="yes"/>
      <point x="376" y="642"/>
      <point x="435" y="589"/>
      <point x="458" y="487" type="curve"/>
      <point x="550" y="493" type="line"/>
      <point x="520" y="640"/>
      <point x="427" y="726"/>
      <point x="302" y="726" type="curve" smooth="yes"/>
      <point x="132" y="726"/>
      <point x="38" y="583"/>
      <point x="38" y="354" type="curve" smooth="yes"/>
      <point x="38" y="127"/>
      <point x="132" y="-16"/>
    </contour>
  </outline>
</glyph>
<glyph name="D" format="2">
  <advance width="600"/>
  <unicode hex="0044"/>
  <anchor x="300" y="0" name="bottom"/>
  <anchor x="180" y="355" name="center"/>
  <anchor x="300" y="710" name="top"/>
  <outline>
    <contour>
      <point x="90" y="0" type="line"/>
      <point x="258" y="0" type="line" smooth="yes"/>
      <point x="442" y="0"/>
      <point x="562" y="126"/>
      <point x="562" y="354" type="curve" smooth="yes"/>
      <point x="562" y="582"/>
      <point x="442" y="710"/>
      <point x="258" y="710" type="curve" smooth="yes"/>
      <point x="90" y="710" type="line"/>
    </contour>
    <contour>
      <point x="176" y="84" type="line"/>
      <point x="176" y="626" type="line"/>
      <point x="253" y="626" type="line" smooth="yes"/>
      <point x="391" y="626"/>
      <point x="472" y="534"/>
      <point x="472" y="354" type="curve" smooth="yes"/>
      <point x="472" y="174"/>
      <point x="391" y="84"/>
      <point x="253" y="84" type="curve" smooth="yes"/>
    </contour>
  </outline>
</glyph>
<glyph name="E" format="2">
  <advance width="600"/>
  <unicode hex="0045"/>
  <anchor x="318" y="0" name="bottom"/>
  <anchor x="530" y="0" name="ogonek"/>
  <anchor x="318" y="711" name="top"/>
  <outline>
    <contour>
      <point x="90" y="0" type="line"/>
      <point x="530" y="0" type="line"/>
      <point x="530" y="84" type="line"/>
      <point x="176" y="84" type="line"/>
      <point x="176" y="315" type="line"/>
      <point x="510" y="315" type="line"/>
      <point x="510" y="397" type="line"/>
      <point x="176" y="397" type="line"/>
      <point x="176" y="626" type="line"/>
      <point x="522" y="626" type="line"/>
      <point x="522" y="710" type="line"/>
      <point x="90" y="710" type="line"/>
    </contour>
  </outline>
</glyph>
<glyph name="F" format="2">
  <advance width="600"/>
  <unicode hex="0046"/>
  <anchor x="300" y="0" name="bottom"/>
  <anchor x="300" y="710" name="top"/>
  <outline>
    <contour>
      <point x="100" y="0" type="line"/>
      <point x="186" y="0" type="line"/>
      <point x="186" y="306" type="line"/>
      <point x="522" y="306" type="line"/>
      <point x="522" y="388" type="line"/>
      <point x="186" y="388" type="line"/>
      <point x="186" y="669" type="line"/>
      <point x="146" y="628" type="line"/>
      <point x="540" y="628" type="line"/>
      <point x="540" y="710" type="line"/>
      <point x="100" y="710" type="line"/>
    </contour>
  </outline>
</glyph>
<glyph name="G" format="2">
  <advance width="600"/>
  <unicode hex="0047"/>
  <anchor x="299" y="0" name="bottom"/>
  <anchor x="299" y="710" name="top"/>
  <outline>
    <contour>
      <point x="298" y="-16" type="curve" smooth="yes"/>
      <point x="410" y="-16"/>
      <point x="466" y="57"/>
      <point x="494" y="160" type="curve"/>
      <point x="470" y="168" type="line"/>
      <point x="474" y="0" type="line"/>
      <point x="554" y="0" type="line"/>
      <point x="554" y="359" type="line"/>
      <point x="304" y="359" type="line"/>
      <point x="304" y="277" type="line"/>
      <point x="474" y="277" type="line"/>
      <point x="470" y="154"/>
      <point x="407" y="68"/>
      <point x="306" y="68" type="curve" smooth="yes"/>
      <point x="193" y="68"/>
      <point x="128" y="171"/>
      <point x="128" y="354" type="curve" smooth="yes"/>
      <point x="128" y="538"/>
      <point x="191" y="642"/>
      <point x="302" y="642" type="curve" smooth="yes"/>
      <point x="386" y="642"/>
      <point x="438" y="580"/>
      <point x="461" y="492" type="curve"/>
      <point x="551" y="498" type="line"/>
      <point x="520" y="632"/>
      <point x="432" y="726"/>
      <point x="302" y="726" type="curve" smooth="yes"/>
      <point x="136" y="726"/>
      <point x="38" y="583"/>
      <point x="38" y="354" type="curve" smooth="yes"/>
      <point x="38" y="110"/>
      <point x="148" y="-16"/>
    </contour>
  </outline>
</glyph>
<glyph name="H" format="2">
  <advance width="600"/>
  <unicode hex="0048"/>
  <anchor x="300" y="0" name="bottom"/>
  <anchor x="300" y="568" name="center"/>
  <anchor x="300" y="710" name="top"/>
  <outline>
    <contour>
      <point x="60" y="0" type="line"/>
      <point x="146" y="0" type="line"/>
      <point x="146" y="349" type="line"/>
      <point x="102" y="315" type="line"/>
      <point x="498" y="315" type="line"/>
      <point x="454" y="349" type="line"/>
      <point x="454" y="0" type="line"/>
      <point x="540" y="0" type="line"/>
      <point x="540" y="710" type="line"/>
      <point x="454" y="710" type="line"/>
      <point x="454" y="365" type="line"/>
      <point x="498" y="399" type="line"/>
      <point x="102" y="399" type="line"/>
      <point x="146" y="365" type="line"/>
      <point x="146" y="710" type="line"/>
      <point x="60" y="710" type="line"/>
    </contour>
  </outline>
</glyph>
<glyph name="I" format="2">
  <advance width="600"/>
  <unicode hex="0049"/>
  <anchor x="300" y="0" name="bottom"/>
  <anchor x="520" y="0" name="ogonek"/>
  <anchor x="300" y="710" name="top"/>
  <outline>
    <contour>
      <point x="80" y="0" type="line"/>
      <point x="520" y="0" type="line"/>
      <point x="520" y="84" type="line"/>
      <point x="343" y="84" type="line"/>
      <point x="343" y="626" type="line"/>
      <point x="520" y="626" type="line"/>
      <point x="520" y="710" type="line"/>
      <point x="80" y="710" type="line"/>
      <point x="80" y="626" type="line"/>
      <point x="257" y="626" type="line"/>
      <point x="257" y="84" type="line"/>
      <point x="80" y="84" type="line"/>
    </contour>
  </outline>
</glyph>
<glyph name="J" format="2">
  <advance width="600"/>
  <unicode hex="004A"/>
  <anchor x="465" y="710" name="top"/>
  <outline>
    <contour>
      <point x="275" y="-16" type="curve" smooth="yes"/>
      <point x="420" y="-16"/>
      <point x="510" y="81"/>
      <point x="510" y="238" type="curve" smooth="yes"/>
      <point x="510" y="710" type="line"/>
      <point x="424" y="710" type="line"/>
      <point x="424" y="238" type="line" smooth="yes"/>
      <point x="424" y="125"/>
      <point x="374" y="68"/>
      <point x="275" y="68" type="curve" smooth="yes"/>
      <point x="176" y="68"/>
      <point x="128" y="123"/>
      <point x="124" y="238" type="curve"/>
      <point x="40" y="230" type="line"/>
      <point x="44" y="80"/>
      <point x="135" y="-16"/>
    </contour>
  </outline>
</glyph>
<glyph name="K" format="2">
  <advance width="600"/>
  <unicode hex="004B"/>
  <anchor x="284" y="0" name="bottom"/>
  <anchor x="277" y="710" name="top"/>
  <outline>
    <contour>
      <point x="136" y="226" type="line"/>
      <point x="550" y="710" type="line"/>
      <point x="444" y="710" type="line"/>
      <point x="136" y="342" type="line"/>
    </contour>
    <contour>
      <point x="60" y="0" type="line"/>
      <point x="146" y="0" type="line"/>
      <point x="146" y="710" type="line"/>
      <point x="60" y="710" type="line"/>
    </contour>
    <contour>
      <point x="454" y="0" type="line"/>
      <point x="560" y="0" type="line"/>
      <point x="266" y="422" type="line"/>
      <point x="206" y="360" type="line"/>
    </contour>
  </outline>
</glyph>
<glyph name="L" format="2">
  <advance width="600"/>
  <unicode hex="004C"/>
  <anchor x="321" y="0" name="bottom"/>
  <anchor x="184" y="380" name="center"/>
  <anchor x="143" y="710" name="top"/>
  <anchor x="334" y="530" name="topright"/>
  <outline>
    <contour>
      <point x="100" y="0" type="line"/>
      <point x="540" y="0" type="line"/>
      <point x="540" y="84" type="line"/>
      <point x="143" y="84" type="line"/>
      <point x="186" y="40" type="line"/>
      <point x="186" y="710" type="line"/>
      <point x="100" y="710" type="line"/>
    </contour>
  </outline>
</glyph>
<glyph name="M" format="2">
  <advance width="600"/>
  <unicode hex="004D"/>
  <anchor x="300" y="0" name="bottom"/>
  <anchor x="300" y="710" name="top"/>
  <outline>
    <contour>
      <point x="262" y="80" type="line"/>
      <point x="338" y="80" type="line"/>
      <point x="472" y="630" type="line"/>
      <point x="464" y="630" type="line"/>
      <point x="464" y="0" type="line"/>
      <point x="550" y="0" type="line"/>
      <point x="550" y="710" type="line"/>
      <point x="420" y="710" type="line"/>
      <point x="280" y="126" type="line"/>
      <point x="320" y="126" type="line"/>
      <point x="180" y="710" type="line"/>
      <point x="50" y="710" type="line"/>
      <point x="50" y="0" type="line"/>
      <point x="136" y="0" type="line"/>
      <point x="136" y="630" type="line"/>
      <point x="128" y="630" type="line"/>
    </contour>
  </outline>
</glyph>
<glyph name="N" format="2">
  <advance width="600"/>
  <unicode hex="004E"/>
  <anchor x="300" y="0" name="bottom"/>
  <anchor x="300" y="710" name="top"/>
  <outline>
    <contour>
      <point x="70" y="0" type="line"/>
      <point x="156" y="0" type="line"/>
      <point x="156" y="653" type="line"/>
      <point x="141" y="649" type="line"/>
      <point x="408" y="0" type="line"/>
      <point x="530" y="0" type="line"/>
      <point x="530" y="710" type="line"/>
      <point x="444" y="710" type="line"/>
      <point x="444" y="58" type="line"/>
      <point x="459" y="61" type="line"/>
      <point x="192" y="710" type="line"/>
      <point x="70" y="710" type="line"/>
    </contour>
  </outline>
</glyph>
<glyph name="O" format="2">
  <advance width="600"/>
  <unicode hex="004F"/>
  <anchor x="300" y="0" name="bottom"/>
  <anchor x="300" y="355" name="center"/>
  <anchor x="400" y="0" name="ogonek"/>
  <anchor x="300" y="710" name="top"/>
  <anchor x="369" y="710" name="topright"/>
  <outline>
    <contour>
      <point x="300" y="-16" type="curve" smooth="yes"/>
      <point x="468" y="-16"/>
      <point x="562" y="117"/>
      <point x="562" y="354" type="curve" smooth="yes"/>
      <point x="562" y="593"/>
      <point x="468" y="726"/>
      <point x="300" y="726" type="curve" smooth="yes"/>
      <point x="132" y="726"/>
      <point x="38" y="593"/>
      <point x="38" y="354" type="curve" smooth="yes"/>
      <point x="38" y="117"/>
      <point x="132" y="-16"/>
    </contour>
    <contour>
      <point x="300" y="68" type="curve" smooth="yes"/>
      <point x="190" y="68"/>
      <point x="128" y="168"/>
      <point x="128" y="354" type="curve" smooth="yes"/>
      <point x="128" y="540"/>
      <point x="190" y="642"/>
      <point x="300" y="642" type="curve" smooth="yes"/>
      <point x="410" y="642"/>
      <point x="472" y="540"/>
      <point x="472" y="354" type="curve" smooth="yes"/>
      <point x="472" y="168"/>
      <point x="410" y="68"/>
    </contour>
  </outline>
</glyph>
<glyph name="P" format="2">
  <advance width="600"/>
  <unicode hex="0050"/>
  <anchor x="300" y="0" name="bottom"/>
  <anchor x="300" y="710" name="top"/>
  <outline>
    <contour>
      <point x="90" y="0" type="line"/>
      <point x="176" y="0" type="line"/>
      <point x="176" y="276" type="line"/>
      <point x="306" y="276" type="line" smooth="yes"/>
      <point x="454" y="276"/>
      <point x="550" y="357"/>
      <point x="550" y="493" type="curve" smooth="yes"/>
      <point x="550" y="629"/>
      <point x="454" y="710"/>
      <point x="306" y="710" type="curve" smooth="yes"/>
      <point x="90" y="710" type="line"/>
    </contour>
    <contour>
      <point x="176" y="360" type="line"/>
      <point x="176" y="626" type="line"/>
      <point x="296" y="626" type="line" smooth="yes"/>
      <point x="408" y="626"/>
      <point x="460" y="579"/>
      <point x="460" y="493" type="curve" smooth="yes"/>
      <point x="460" y="407"/>
      <point x="408" y="360"/>
      <point x="296" y="360" type="curve" smooth="yes"/>
    </contour>
  </outline>
</glyph>
<glyph name="Q" format="2">
  <advance width="600"/>
  <unicode hex="0051"/>
  <anchor x="300" y="0" name="bottom"/>
  <anchor x="300" y="710" name="top"/>
  <outline>
    <contour>
      <point x="380" y="-119" type="line"/>
      <point x="466" y="-119" type="line"/>
      <point x="336" y="218" type="line"/>
      <point x="250" y="218" type="line"/>
    </contour>
    <contour>
      <point x="300" y="-16" type="curve" smooth="yes"/>
      <point x="468" y="-16"/>
      <point x="562" y="117"/>
      <point x="562" y="354" type="curve" smooth="yes"/>
      <point x="562" y="593"/>
      <point x="468" y="726"/>
      <point x="300" y="726" type="curve" smooth="yes"/>
      <point x="132" y="726"/>
      <point x="38" y="593"/>
      <point x="38" y="354" type="curve" smooth="yes"/>
      <point x="38" y="117"/>
      <point x="132" y="-16"/>
    </contour>
    <contour>
      <point x="300" y="68" type="curve" smooth="yes"/>
      <point x="190" y="68"/>
      <point x="128" y="168"/>
      <point x="128" y="354" type="curve" smooth="yes"/>
      <point x="128" y="540"/>
      <point x="190" y="642"/>
      <point x="300" y="642" type="curve" smooth="yes"/>
      <point x="410" y="642"/>
      <point x="472" y="540"/>
      <point x="472" y="354" type="curve" smooth="yes"/>
      <point x="472" y="168"/>
      <point x="410" y="68"/>
    </contour>
  </outline>
</glyph>
<glyph name="R" format="2">
  <advance width="600"/>
  <unicode hex="0052"/>
  <anchor x="304" y="0" name="bottom"/>
  <anchor x="286" y="710" name="top"/>
  <outline>
    <contour>
      <point x="70" y="0" type="line"/>
      <point x="156" y="0" type="line"/>
      <point x="156" y="286" type="line"/>
      <point x="304" y="286" type="line" smooth="yes"/>
      <point x="396" y="286"/>
      <point x="425" y="259"/>
      <point x="431" y="193" type="curve" smooth="yes"/>
      <point x="448" y="0" type="line"/>
      <point x="534" y="0" type="line"/>
      <point x="516" y="204" type="line" smooth="yes"/>
      <point x="508" y="294"/>
      <point x="463" y="330"/>
      <point x="368" y="336" type="curve"/>
      <point x="372" y="324" type="line"/>
      <point x="448" y="329"/>
      <point x="528" y="398"/>
      <point x="528" y="498" type="curve" smooth="yes"/>
      <point x="528" y="630"/>
      <point x="435" y="710"/>
      <point x="286" y="710" type="curve" smooth="yes"/>
      <point x="70" y="710" type="line"/>
    </contour>
    <contour>
      <point x="156" y="370" type="line"/>
      <point x="156" y="626" type="line"/>
      <point x="286" y="626" type="line" smooth="yes"/>
      <point x="384" y="626"/>
      <point x="438" y="580"/>
      <point x="438" y="498" type="curve" smooth="yes"/>
      <point x="438" y="416"/>
      <point x="384" y="370"/>
      <point x="286" y="370" type="curve" smooth="yes"/>
    </contour>
  </outline>
</glyph>
<glyph name="S" format="2">
  <advance width="600"/>
  <unicode hex="0053"/>
  <anchor x="300" y="0" name="bottom"/>
  <anchor x="299" y="710" name="top"/>
  <outline>
    <contour>
      <point x="311" y="-16" type="curve" smooth="yes"/>
      <point x="456" y="-16"/>
      <point x="556" y="62"/>
      <point x="556" y="175" type="curve" smooth="yes"/>
      <point x="556" y="292"/>
      <point x="495" y="352"/>
      <point x="321" y="400" type="curve" smooth="yes"/>
      <point x="187" y="437"/>
      <point x="151" y="461"/>
      <point x="151" y="528" type="curve" smooth="yes"/>
      <point x="151" y="596"/>
      <point x="207" y="642"/>
      <point x="295" y="642" type="curve" smooth="yes"/>
      <point x="391" y="642"/>
      <point x="441" y="580"/>
      <point x="453" y="494" type="curve"/>
      <point x="543" y="500" type="line"/>
      <point x="527" y="630"/>
      <point x="443" y="726"/>
      <point x="297" y="726" type="curve" smooth="yes"/>
      <point x="151" y="726"/>
      <point x="61" y="643"/>
      <point x="61" y="524" type="curve" smooth="yes"/>
      <point x="61" y="418"/>
      <point x="119" y="368"/>
      <point x="267" y="326" type="curve" smooth="yes"/>
      <point x="432" y="279"/>
      <point x="466" y="244"/>
      <point x="466" y="177" type="curve" smooth="yes"/>
      <point x="466" y="107"/>
      <point x="412" y="68"/>
      <point x="313" y="68" type="curve" smooth="yes"/>
      <point x="213" y="68"/>
      <point x="148" y="127"/>
      <point x="134" y="233" type="curve"/>
      <point x="44" y="227" type="line"/>
      <point x="56" y="83"/>
      <point x="161" y="-16"/>
    </contour>
  </outline>
</glyph>
<glyph name="T" format="2">
  <advance width="600"/>
  <unicode hex="0054"/>
  <anchor x="300" y="0" name="bottom"/>
  <anchor x="300" y="348" name="center"/>
  <anchor x="300" y="710" name="top"/>
  <outline>
    <contour>
      <point x="257" y="0" type="line"/>
      <point x="343" y="0" type="line"/>
      <point x="343" y="626" type="line"/>
      <point x="560" y="626" type="line"/>
      <point x="560" y="710" type="line"/>
      <point x="40" y="710" type="line"/>
      <point x="40" y="626" type="line"/>
      <point x="257" y="626" type="line"/>
    </contour>
  </outline>
</glyph>
<glyph name="U" format="2">
  <advance width="600"/>
  <unicode hex="0055"/>
  <anchor x="300" y="0" name="bottom"/>
  <anchor x="394" y="0" name="ogonek"/>
  <anchor x="300" y="710" name="top"/>
  <anchor x="454" y="710" name="topright"/>
  <outline>
    <contour>
      <point x="300" y="-16" type="curve" smooth="yes"/>
      <point x="449" y="-16"/>
      <point x="540" y="85"/>
      <point x="540" y="248" type="curve" smooth="yes"/>
      <point x="540" y="710" type="line"/>
      <point x="454" y="710" type="line"/>
      <point x="454" y="248" type="line" smooth="yes"/>
      <point x="454" y="131"/>
      <point x="400" y="68"/>
      <point x="300" y="68" type="curve" smooth="yes"/>
      <point x="200" y="68"/>
      <point x="146" y="131"/>
      <point x="146" y="248" type="curve" smooth="yes"/>
      <point x="146" y="710" type="line"/>
      <point x="60" y="710" type="line"/>
      <point x="60" y="248" type="line" smooth="yes"/>
      <point x="60" y="85"/>
      <point x="151" y="-16"/>
    </contour>
  </outline>
</glyph>
<glyph name="V" format="2">
  <advance width="600"/>
  <unicode hex="0056"/>
  <anchor x="300" y="0" name="bottom"/>
  <anchor x="300" y="710" name="top"/>
  <outline>
    <contour>
      <point x="244" y="0" type="line"/>
      <point x="356" y="0" type="line"/>
      <point x="570" y="710" type="line"/>
      <point x="478" y="710" type="line"/>
      <point x="288" y="56" type="line"/>
      <point x="312" y="56" type="line"/>
      <point x="122" y="710" type="line"/>
      <point x="30" y="710" type="line"/>
    </contour>
  </outline>
</glyph>
<glyph name="W" format="2">
  <advance width="600"/>
  <unicode hex="0057"/>
  <anchor x="300" y="0" name="bottom"/>
  <anchor x="300" y="710" name="top"/>
  <outline>
    <contour>
      <point x="108" y="0" type="line"/>
      <point x="238" y="0" type="line"/>
      <point x="312" y="560" type="line"/>
      <point x="288" y="560" type="line"/>
      <point x="362" y="0" type="line"/>
      <point x="492" y="0" type="line"/>
      <point x="570" y="710" type="line"/>
      <point x="480" y="710" type="line"/>
      <point x="414" y="50" type="line"/>
      <point x="424" y="50" type="line"/>
      <point x="346" y="630" type="line"/>
      <point x="254" y="630" type="line"/>
      <point x="176" y="50" type="line"/>
      <point x="186" y="50" type="line"/>
      <point x="120" y="710" type="line"/>
      <point x="30" y="710" type="line"/>
    </contour>
  </outline>
</glyph>
<glyph name="X" format="2">
  <advance width="600"/>
  <unicode hex="0058"/>
  <anchor x="300" y="0" name="bottom"/>
  <anchor x="300" y="710" name="top"/>
  <outline>
    <contour>
      <point x="50" y="0" type="line"/>
      <point x="148" y="0" type="line"/>
      <point x="299" y="289" type="line"/>
      <point x="450" y="0" type="line"/>
      <point x="550" y="0" type="line"/>
      <point x="354" y="356" type="line"/>
      <point x="546" y="710" type="line"/>
      <point x="448" y="710" type="line"/>
      <point x="301" y="425" type="line"/>
      <point x="154" y="710" type="line"/>
      <point x="54" y="710" type="line"/>
      <point x="246" y="357" type="line"/>
    </contour>
  </outline>
</glyph>
<glyph name="Y" format="2">
  <advance width="600"/>
  <unicode hex="0059"/>
  <anchor x="300" y="0" name="bottom"/>
  <anchor x="300" y="710" name="top"/>
  <outline>
    <contour>
      <point x="258" y="0" type="line"/>
      <point x="344" y="0" type="line"/>
      <point x="344" y="290" type="line"/>
      <point x="560" y="710" type="line"/>
      <point x="462" y="710" type="line"/>
      <point x="300" y="378" type="line"/>
      <point x="138" y="710" type="line"/>
      <point x="40" y="710" type="line"/>
      <point x="258" y="290" type="line"/>
    </contour>
  </outline>
</glyph>
<glyph name="Z" format="2">
  <advance width="600"/>
  <unicode hex="005A"/>
  <anchor x="300" y="0" name="bottom"/>
  <anchor x="300" y="710" name="top"/>
  <outline>
    <contour>
      <point x="50" y="0" type="line"/>
      <point x="550" y="0" type="line"/>
      <point x="550" y="84" type="line"/>
      <point x="146" y="84" type="line"/>
      <point x="542" y="624" type="line"/>
      <point x="542" y="710" type="line"/>
      <point x="68" y="710" type="line"/>
      <point x="68" y="626" type="line"/>
      <point x="446" y="626" type="line"/>
      <point x="50" y="86" type="line"/>
    </contour>
  </outline>
</glyph>
<glyph name="bracketright" format="2">
  <advance width="600"/>
  <unicode hex="005D"/>
  <outline>
    <contour>
      <point x="140" y="-110" type="line"/>
      <point x="460" y="-110" type="line"/>
      <point x="460" y="750" type="line"/>
      <point x="140" y="750" type="line"/>
      <point x="140" y="680" type="line"/>
      <point x="380" y="680" type="line"/>
      <point x="380" y="-40" type="line"/>
      <point x="140" y="-40" type="line"/>
    </contour>
  </outline>
</glyph>
<glyph name="asciicircum" format="2">
  <advance width="600"/>
  <unicode hex="005E"/>
  <outline>
    <contour>
      <point x="110" y="373" type="line"/>
      <point x="196" y="373" type="line"/>
      <point x="306" y="649" type="line"/>
      <point x="294" y="649" type="line"/>
      <point x="404" y="373" type="line"/>
      <point x="490" y="373" type="line"/>
      <point x="353" y="710" type="line"/>
      <point x="247" y="710" type="line"/>
    </contour>
  </outline>
</glyph>
<glyph name="underscore" format="2">
  <advance width="600"/>
  <unicode hex="005F"/>
  <outline>
    <contour>
      <point x="80" y="-78" type="line"/>
      <point x="520" y="-78" type="line"/>
      <point x="520" y="0" type="line"/>
      <point x="80" y="0" type="line"/>
    </contour>
  </outline>
</glyph>
<glyph name="grave" format="2">
  <advance width="600"/>
  <unicode hex="0060"/>
  <outline>
    <contour>
      <point x="298" y="500" type="line"/>
      <point x="400" y="500" type="line"/>
      <point x="326" y="728" type="line"/>
      <point x="200" y="728" type="line"/>
    </contour>
  </outline>
</glyph>
<glyph name="a" format="2">
  <advance width="600"/>
  <unicode hex="0061"/>
  <anchor x="279" y="0" name="bottom"/>
  <anchor x="550" y="0" name="ogonek"/>
  <anchor x="284" y="530" name="top"/>
  <outline>
    <contour>
      <point x="230" y="-12" type="curve" smooth="yes"/>
      <point x="322" y="-12"/>
      <point x="402" y="39"/>
      <point x="416" y="108" type="curve"/>
      <point x="400" y="108" type="line"/>
      <point x="402" y="30"/>
      <point x="437" y="-2"/>
      <point x="506" y="-2" type="curve" smooth="yes"/>
      <point x="522" y="-2"/>
      <point x="542" y="-1"/>
      <point x="550" y="0" type="curve"/>
      <point x="550" y="74" type="line"/>
      <point x="516" y="74" type="line" smooth="yes"/>
      <point x="494" y="74"/>
      <point x="484" y="82"/>
      <point x="484" y="106" type="curve" smooth="yes"/>
      <point x="484" y="326" type="line" smooth="yes"/>
      <point x="484" y="460"/>
      <point x="410" y="542"/>
      <point x="282" y="542" type="curve" smooth="yes"/>
      <point x="162" y="542"/>
      <point x="84" y="474"/>
      <point x="64" y="374" type="curve"/>
      <point x="153" y="367" type="line"/>
      <point x="169" y="428"/>
      <point x="208" y="462"/>
      <point x="282" y="462" type="curve" smooth="yes"/>
      <point x="358" y="462"/>
      <point x="400" y="418"/>
      <point x="400" y="328" type="curve"/>
      <point x="222" y="292" type="line" smooth="yes"/>
      <point x="106" y="269"/>
      <point x="54" y="222"/>
      <point x="54" y="132" type="curve" smooth="yes"/>
      <point x="54" y="46"/>
      <point x="130" y="-12"/>
    </contour>
    <contour>
      <point x="238" y="62" type="curve" smooth="yes"/>
      <point x="178" y="62"/>
      <point x="142" y="90"/>
      <point x="142" y="140" type="curve" smooth="yes"/>
      <point x="142" y="184"/>
      <point x="166" y="210"/>
      <point x="238" y="224" type="curve" smooth="yes"/>
      <point x="400" y="256" type="line"/>
      <point x="400" y="210" type="line" smooth="yes"/>
      <point x="400" y="122"/>
      <point x="346" y="62"/>
    </contour>
  </outline>
</glyph>
<glyph name="b" format="2">
  <advance width="600"/>
  <unicode hex="0062"/>
  <anchor x="300" y="0" name="bottom"/>
  <anchor x="300" y="530" name="top"/>
  <outline>
    <contour>
      <point x="333" y="-12" type="curve" smooth="yes"/>
      <point x="473" y="-12"/>
      <point x="560" y="95"/>
      <point x="560" y="265" type="curve" smooth="yes"/>
      <point x="560" y="435"/>
      <point x="473" y="542"/>
      <point x="333" y="542" type="curve" smooth="yes"/>
      <point x="248" y="542"/>
      <point x="183" y="487"/>
      <point x="165" y="437" type="curve"/>
      <point x="174" y="416" type="line"/>
      <point x="174" y="710" type="line"/>
      <point x="90" y="710" type="line"/>
      <point x="90" y="0" type="line"/>
      <point x="166" y="0" type="line"/>
      <point x="171" y="120" type="line"/>
      <point x="158" y="105" type="line"/>
      <point x="183" y="32"/>
      <point x="249" y="-12"/>
    </contour>
    <contour>
      <point x="328" y="68" type="curve" smooth="yes"/>
      <point x="232" y="68"/>
      <point x="174" y="144"/>
      <point x="174" y="265" type="curve" smooth="yes"/>
      <point x="174" y="388"/>
      <point x="232" y="462"/>
      <point x="330" y="462" type="curve" smooth="yes"/>
      <point x="417" y="462"/>
      <point x="472" y="388"/>
      <point x="472" y="265" type="curve" smooth="yes"/>
      <point x="472" y="144"/>
      <point x="417" y="68"/>
    </contour>
  </outline>
</glyph>
<glyph name="c" format="2">
  <advance width="600"/>
  <unicode hex="0063"/>
  <anchor x="313" y="0" name="bottom"/>
  <anchor x="313" y="530" name="top"/>
  <outline>
    <contour>
      <point x="314" y="-12" type="curve" smooth="yes"/>
      <point x="432" y="-12"/>
      <point x="518" y="64"/>
      <point x="540" y="182" type="curve"/>
      <point x="452" y="188" type="line"/>
      <point x="436" y="108"/>
      <point x="382" y="68"/>
      <point x="314" y="68" type="curve" smooth="yes"/>
      <point x="216" y="68"/>
      <point x="158" y="142"/>
      <point x="158" y="265" type="curve" smooth="yes"/>
      <point x="158" y="388"/>
      <point x="216" y="462"/>
      <point x="314" y="462" type="curve" smooth="yes"/>
      <point x="382" y="462"/>
      <point x="432" y="422"/>
      <point x="448" y="352" type="curve"/>
      <point x="536" y="358" type="line"/>
      <point x="514" y="476"/>
      <point x="432" y="542"/>
      <point x="314" y="542" type="curve" smooth="yes"/>
      <point x="166" y="542"/>
      <point x="70" y="433"/>
      <point x="70" y="265" type="curve" smooth="yes"/>
      <point x="70" y="97"/>
      <point x="166" y="-12"/>
    </contour>
  </outline>
</glyph>
<glyph name="d" format="2">
  <advance width="600"/>
  <unicode hex="0064"/>
  <anchor x="300" y="0" name="bottom"/>
  <anchor x="430" y="616" name="center"/>
  <anchor x="300" y="530" name="top"/>
  <anchor x="530" y="530" name="topright"/>
  <outline>
    <contour>
      <point x="267" y="-12" type="curve" smooth="yes"/>
      <point x="351" y="-12"/>
      <point x="417" y="32"/>
      <point x="442" y="105" type="curve"/>
      <point x="429" y="120" type="line"/>
      <point x="434" y="0" type="line"/>
      <point x="510" y="0" type="line"/>
      <point x="510" y="710" type="line"/>
      <point x="426" y="710" type="line"/>
      <point x="426" y="416" type="line"/>
      <point x="435" y="437" type="line"/>
      <point x="417" y="487"/>
      <point x="352" y="542"/>
      <point x="267" y="542" type="curve" smooth="yes"/>
      <point x="127" y="542"/>
      <point x="40" y="435"/>
      <point x="40" y="265" type="curve" smooth="yes"/>
      <point x="40" y="95"/>
      <point x="127" y="-12"/>
    </contour>
    <contour>
      <point x="272" y="68" type="curve" smooth="yes"/>
      <point x="183" y="68"/>
      <point x="128" y="144"/>
      <point x="128" y="265" type="curve" smooth="yes"/>
      <point x="128" y="388"/>
      <point x="183" y="462"/>
      <point x="270" y="462" type="curve" smooth="yes"/>
      <point x="368" y="462"/>
      <point x="426" y="388"/>
      <point x="426" y="265" type="curve" smooth="yes"/>
      <point x="426" y="144"/>
      <point x="368" y="68"/>
    </contour>
  </outline>
</glyph>
<glyph name="e" format="2">
  <advance width="600"/>
  <unicode hex="0065"/>
  <anchor x="306" y="0" name="bottom"/>
  <anchor x="435" y="24" name="ogonek"/>
  <anchor x="303" y="528" name="top"/>
  <outline>
    <contour>
      <point x="306" y="-12" type="curve" smooth="yes"/>
      <point x="418" y="-12"/>
      <point x="500" y="55"/>
      <point x="528" y="150" type="curve"/>
      <point x="438" y="157" type="line"/>
      <point x="420" y="103"/>
      <point x="375" y="68"/>
      <point x="306" y="68" type="curve" smooth="yes"/>
      <point x="214" y="68"/>
      <point x="157" y="125"/>
      <point x="151" y="239" type="curve"/>
      <point x="537" y="239" type="line"/>
      <point x="537" y="264" type="line" smooth="yes"/>
      <point x="537" y="442"/>
      <point x="440" y="542"/>
      <point x="302" y="542" type="curve" smooth="yes"/>
      <point x="156" y="542"/>
      <point x="63" y="433"/>
      <point x="63" y="265" type="curve" smooth="yes"/>
      <point x="63" y="97"/>
      <point x="156" y="-12"/>
    </contour>
    <contour>
      <point x="151" y="313" type="line"/>
      <point x="165" y="411"/>
      <point x="220" y="462"/>
      <point x="302" y="462" type="curve" smooth="yes"/>
      <point x="380" y="462"/>
      <point x="437" y="415"/>
      <point x="445" y="313" type="curve"/>
    </contour>
  </outline>
</glyph>
<glyph name="f" format="2">
  <advance width="600"/>
  <unicode hex="0066"/>
  <anchor x="300" y="0" name="bottom"/>
  <anchor x="300" y="710" name="top"/>
  <outline>
    <contour>
      <point x="212" y="0" type="line"/>
      <point x="296" y="0" type="line"/>
      <point x="296" y="564" type="line" smooth="yes"/>
      <point x="296" y="608"/>
      <point x="318" y="636"/>
      <point x="360" y="636" type="curve" smooth="yes"/>
      <point x="530" y="636" type="line"/>
      <point x="530" y="710" type="line"/>
      <point x="360" y="710" type="line" smooth="yes"/>
      <point x="260" y="710"/>
      <point x="212" y="658"/>
      <point x="212" y="564" type="curve" smooth="yes"/>
    </contour>
    <contour>
      <point x="70" y="456" type="line"/>
      <point x="520" y="456" type="line"/>
      <point x="520" y="530" type="line"/>
      <point x="70" y="530" type="line"/>
    </contour>
  </outline>
</glyph>
<glyph name="g" format="2">
  <advance width="600"/>
  <unicode hex="0067"/>
  <anchor x="300" y="-150" name="bottom"/>
  <anchor x="298" y="530" name="top"/>
  <outline>
    <contour>
      <point x="297" y="-162" type="curve" smooth="yes"/>
      <point x="443" y="-162"/>
      <point x="530" y="-88"/>
      <point x="530" y="36" type="curve" smooth="yes"/>
      <point x="530" y="530" type="line"/>
      <point x="450" y="530" type="line"/>
      <point x="450" y="446" type="line"/>
      <point x="426" y="505"/>
      <point x="361" y="542"/>
      <point x="287" y="542" type="curve" smooth="yes"/>
      <point x="154" y="542"/>
      <point x="60" y="436"/>
      <point x="60" y="285" type="curve" smooth="yes"/>
      <point x="60" y="134"/>
      <point x="156" y="28"/>
      <point x="291" y="28" type="curve" smooth="yes"/>
      <point x="360" y="28"/>
      <point x="420" y="64"/>
      <point x="446" y="120" type="curve"/>
      <point x="446" y="34" type="line" smooth="yes"/>
      <point x="446" y="-44"/>
      <point x="393" y="-82"/>
      <point x="297" y="-82" type="curve" smooth="yes"/>
      <point x="215" y="-82"/>
      <point x="179" y="-52"/>
      <point x="163" y="-2" type="curve"/>
      <point x="75" y="-8" type="line"/>
      <point x="97" y="-101"/>
      <point x="183" y="-162"/>
    </contour>
    <contour>
      <point x="295" y="108" type="curve" smooth="yes"/>
      <point x="204" y="108"/>
      <point x="148" y="176"/>
      <point x="148" y="285" type="curve" smooth="yes"/>
      <point x="148" y="394"/>
      <point x="202" y="462"/>
      <point x="295" y="462" type="curve" smooth="yes"/>
      <point x="387" y="462"/>
      <point x="448" y="394"/>
      <point x="446" y="285" type="curve" smooth="yes"/>
      <point x="445" y="176"/>
      <point x="386" y="108"/>
    </contour>
  </outline>
</glyph>
<glyph name="h" format="2">
  <advance width="600"/>
  <unicode hex="0068"/>
  <anchor x="300" y="0" name="bottom"/>
  <anchor x="186" y="616" name="center"/>
  <anchor x="143" y="710" name="top"/>
  <outline>
    <contour>
      <point x="100" y="0" type="line"/>
      <point x="184" y="0" type="line"/>
      <point x="184" y="316" type="line" smooth="yes"/>
      <point x="184" y="414"/>
      <point x="240" y="468"/>
      <point x="325" y="468" type="curve" smooth="yes"/>
      <point x="399" y="468"/>
      <point x="436" y="419"/>
      <point x="436" y="317" type="curve" smooth="yes"/>
      <point x="436" y="0" type="line"/>
      <point x="520" y="0" type="line"/>
      <point x="520" y="341" type="line" smooth="yes"/>
      <point x="520" y="459"/>
      <point x="457" y="542"/>
      <point x="343" y="542" type="curve" smooth="yes"/>
      <point x="260" y="542"/>
      <point x="194" y="503"/>
      <point x="174" y="415" type="curve"/>
      <point x="184" y="413" type="line"/>
      <point x="184" y="710" type="line"/>
      <point x="100" y="710" type="line"/>
    </contour>
  </outline>
</glyph>
<glyph name="k" format="2">
  <advance width="600"/>
  <unicode hex="006B"/>
  <anchor x="309" y="0" name="bottom"/>
  <anchor x="133" y="710" name="top"/>
  <outline>
    <contour>
      <point x="90" y="0" type="line"/>
      <point x="174" y="0" type="line"/>
      <point x="174" y="138" type="line"/>
      <point x="278" y="248" type="line"/>
      <point x="452" y="0" type="line"/>
      <point x="554" y="0" type="line"/>
      <point x="335" y="305" type="line"/>
      <point x="544" y="530" type="line"/>
      <point x="432" y="530" type="line"/>
      <point x="174" y="245" type="line"/>
      <point x="174" y="710" type="line"/>
      <point x="90" y="710" type="line"/>
    </contour>
  </outline>
</glyph>
<glyph name="l" format="2">
  <advance width="600"/>
  <unicode hex="006C"/>
  <anchor x="314" y="0" name="bottom"/>
  <anchor x="320" y="397" name="center"/>
  <anchor x="280" y="710" name="top"/>
  <anchor x="400" y="530" name="topright"/>
  <outline>
    <contour>
      <point x="273" y="30" type="line"/>
      <point x="357" y="30" type="line"/>
      <point x="357" y="562" type="line" smooth="yes"/>
      <point x="357" y="659"/>
      <point x="306" y="710"/>
      <point x="209" y="710" type="curve" smooth="yes"/>
      <point x="80" y="710" type="line"/>
      <point x="80" y="636" type="line"/>
      <point x="205" y="636" type="line" smooth="yes"/>
      <point x="248" y="636"/>
      <point x="273" y="611"/>
      <point x="273" y="568" type="curve" smooth="yes"/>
    </contour>
    <contour>
      <point x="60" y="0" type="line"/>
      <point x="540" y="0" type="line"/>
      <point x="540" y="74" type="line"/>
      <point x="60" y="74" type="line"/>
    </contour>
  </outline>
</glyph>
<glyph name="m" format="2">
  <advance width="600"/>
  <unicode hex="006D"/>
  <anchor x="303" y="0" name="bottom"/>
  <anchor x="326" y="530" name="top"/>
  <outline>
    <contour>
      <point x="40" y="0" type="line"/>
      <point x="124" y="0" type="line"/>
      <point x="124" y="338" type="line" smooth="yes"/>
      <point x="124" y="428"/>
      <point x="154" y="468"/>
      <point x="196" y="468" type="curve" smooth="yes"/>
      <point x="240" y="468"/>
      <point x="258" y="430"/>
      <point x="258" y="340" type="curve" smooth="yes"/>
      <point x="258" y="0" type="line"/>
      <point x="342" y="0" type="line"/>
      <point x="342" y="338" type="line" smooth="yes"/>
      <point x="342" y="428"/>
      <point x="372" y="468"/>
      <point x="414" y="468" type="curve" smooth="yes"/>
      <point x="456" y="468"/>
      <point x="476" y="434"/>
      <point x="476" y="340" type="curve" smooth="yes"/>
      <point x="476" y="0" type="line"/>
      <point x="560" y="0" type="line"/>
      <point x="560" y="352" type="line" smooth="yes"/>
      <point x="560" y="488"/>
      <point x="523" y="542"/>
      <point x="438" y="542" type="curve" smooth="yes"/>
      <point x="374" y="542"/>
      <point x="330" y="490"/>
      <point x="318" y="408" type="curve"/>
      <point x="328" y="408" type="line"/>
      <point x="320" y="496"/>
      <point x="286" y="542"/>
      <point x="224" y="542" type="curve" smooth="yes"/>
      <point x="163" y="542"/>
      <point x="122" y="492"/>
      <point x="110" y="414" type="curve"/>
      <point x="120" y="412" type="line"/>
      <point x="117" y="530" type="line"/>
      <point x="40" y="530" type="line"/>
    </contour>
  </outline>
</glyph>
<glyph name="n" format="2">
  <advance width="600"/>
  <unicode hex="006E"/>
  <anchor x="300" y="0" name="bottom"/>
  <anchor x="300" y="530" name="top"/>
  <outline>
    <contour>
      <point x="84" y="0" type="line"/>
      <point x="168" y="0" type="line"/>
      <point x="168" y="317" type="line" smooth="yes"/>
      <point x="168" y="415"/>
      <point x="232" y="468"/>
      <point x="314" y="468" type="curve" smooth="yes"/>
      <point x="394" y="468"/>
      <point x="432" y="415"/>
      <point x="432" y="317" type="curve" smooth="yes"/>
      <point x="432" y="0" type="line"/>
      <point x="516" y="0" type="line"/>
      <point x="516" y="341" type="line" smooth="yes"/>
      <point x="516" y="453"/>
      <point x="453" y="542"/>
      <point x="332" y="542" type="curve" smooth="yes"/>
      <point x="249" y="542"/>
      <point x="174" y="498"/>
      <point x="154" y="404" type="curve"/>
      <point x="164" y="395" type="line"/>
      <point x="161" y="530" type="line"/>
      <point x="84" y="530" type="line"/>
    </contour>
  </outline>
</glyph>
<glyph name="o" format="2">
  <advance width="600"/>
  <unicode hex="006F"/>
  <anchor x="300" y="0" name="bottom"/>
  <anchor x="300" y="265" name="center"/>
  <anchor x="377" y="0" name="ogonek"/>
  <anchor x="300" y="530" name="top"/>
  <anchor x="366" y="530" name="topright"/>
  <outline>
    <contour>
      <point x="300" y="-12" type="curve" smooth="yes"/>
      <point x="446" y="-12"/>
      <point x="542" y="96"/>
      <point x="542" y="265" type="curve" smooth="yes"/>
      <point x="542" y="434"/>
      <point x="446" y="542"/>
      <point x="300" y="542" type="curve" smooth="yes"/>
      <point x="153" y="542"/>
      <point x="58" y="434"/>
      <point x="58" y="265" type="curve" smooth="yes"/>
      <point x="58" y="96"/>
      <point x="153" y="-12"/>
    </contour>
    <contour>
      <point x="300" y="68" type="curve" smooth="yes"/>
      <point x="202" y="68"/>
      <point x="146" y="142"/>
      <point x="146" y="265" type="curve" smooth="yes"/>
      <point x="146" y="388"/>
      <point x="202" y="462"/>
      <point x="300" y="462" type="curve" smooth="yes"/>
      <point x="397" y="462"/>
      <point x="454" y="388"/>
      <point x="454" y="265" type="curve" smooth="yes"/>
      <point x="454" y="142"/>
      <point x="397" y="68"/>
    </contour>
  </outline>
</glyph>
<glyph name="p" format="2">
  <advance width="600"/>
  <unicode hex="0070"/>
  <anchor x="300" y="0" name="bottom"/>
  <anchor x="300" y="530" name="top"/>
  <outline>
    <contour>
      <point x="80" y="-150" type="line"/>
      <point x="164" y="-150" type="line"/>
      <point x="164" y="114" type="line"/>
      <point x="152" y="100" type="line"/>
      <point x="170" y="32"/>
      <point x="240" y="-12"/>
      <point x="322" y="-12" type="curve" smooth="yes"/>
      <point x="480" y="-12"/>
      <point x="550" y="119"/>
      <point x="550" y="265" type="curve" smooth="yes"/>
      <point x="550" y="411"/>
      <point x="480" y="542"/>
      <point x="322" y="542" type="curve" smooth="yes"/>
      <point x="240" y="542"/>
      <point x="174" y="498"/>
      <point x="148" y="416" type="curve"/>
      <point x="160" y="410" type="line"/>
      <point x="158" y="530" type="line"/>
      <point x="80" y="530" type="line"/>
    </contour>
    <contour>
      <point x="314" y="68" type="curve" smooth="yes"/>
      <point x="221" y="68"/>
      <point x="164" y="135"/>
      <point x="164" y="265" type="curve" smooth="yes"/>
      <point x="164" y="395"/>
      <point x="222" y="462"/>
      <point x="314" y="462" type="curve" smooth="yes"/>
      <point x="406" y="462"/>
      <point x="462" y="389"/>
      <point x="462" y="265" type="curve" smooth="yes"/>
      <point x="462" y="141"/>
      <point x="406" y="68"/>
    </contour>
  </outline>
</glyph>
<glyph name="q" format="2">
  <advance width="600"/>
  <unicode hex="0071"/>
  <anchor x="300" y="0" name="bottom"/>
  <anchor x="300" y="530" name="top"/>
  <outline>
    <contour>
      <point x="520" y="-150" type="line"/>
      <point x="520" y="530" type="line"/>
      <point x="442" y="530" type="line"/>
      <point x="440" y="410" type="line"/>
      <point x="452" y="416" type="line"/>
      <point x="426" y="498"/>
      <point x="360" y="542"/>
      <point x="278" y="542" type="curve" smooth="yes"/>
      <point x="120" y="542"/>
      <point x="50" y="411"/>
      <point x="50" y="265" type="curve" smooth="yes"/>
      <point x="50" y="119"/>
      <point x="120" y="-12"/>
      <point x="278" y="-12" type="curve" smooth="yes"/>
      <point x="360" y="-12"/>
      <point x="430" y="32"/>
      <point x="448" y="100" type="curve"/>
      <point x="436" y="114" type="line"/>
      <point x="436" y="-150" type="line"/>
    </contour>
    <contour>
      <point x="286" y="68" type="curve" smooth="yes"/>
      <point x="194" y="68"/>
      <point x="138" y="141"/>
      <point x="138" y="265" type="curve" smooth="yes"/>
      <point x="138" y="389"/>
      <point x="194" y="462"/>
      <point x="286" y="462" type="curve" smooth="yes"/>
      <point x="378" y="462"/>
      <point x="436" y="395"/>
      <point x="436" y="265" type="curve" smooth="yes"/>
      <point x="436" y="135"/>
      <point x="379" y="68"/>
    </contour>
  </outline>
</glyph>
<glyph name="r" format="2">
  <advance width="600"/>
  <unicode hex="0072"/>
  <anchor x="269" y="0" name="bottom"/>
  <anchor x="339" y="530" name="top"/>
  <outline>
    <contour>
      <point x="90" y="0" type="line"/>
      <point x="480" y="0" type="line"/>
      <point x="480" y="74" type="line"/>
      <point x="272" y="74" type="line"/>
      <point x="312" y="34" type="line"/>
      <point x="312" y="320" type="line" smooth="yes"/>
      <point x="312" y="407"/>
      <point x="354" y="454"/>
      <point x="432" y="454" type="curve" smooth="yes"/>
      <point x="540" y="454" type="line"/>
      <point x="540" y="530" type="line"/>
      <point x="431" y="530" type="line" smooth="yes"/>
      <point x="355" y="530"/>
      <point x="309" y="486"/>
      <point x="298" y="394" type="curve"/>
      <point x="306" y="388" type="line"/>
      <point x="298" y="530" type="line"/>
      <point x="90" y="530" type="line"/>
      <point x="90" y="456" type="line"/>
      <point x="269" y="456" type="line"/>
      <point x="228" y="497" type="line"/>
      <point x="228" y="34" type="line"/>
      <point x="269" y="74" type="line"/>
      <point x="90" y="74" type="line"/>
    </contour>
  </outline>
</glyph>
<glyph name="s" format="2">
  <advance width="600"/>
  <unicode hex="0073"/>
  <anchor x="302" y="0" name="bottom"/>
  <anchor x="302" y="530" name="top"/>
  <outline>
    <contour>
      <point x="310" y="-12" type="curve" smooth="yes"/>
      <point x="430" y="-12"/>
      <point x="520" y="44"/>
      <point x="520" y="138" type="curve" smooth="yes"/>
      <point x="520" y="226"/>
      <point x="476" y="269"/>
      <point x="312" y="296" type="curve" smooth="yes"/>
      <point x="216" y="312"/>
      <point x="180" y="328"/>
      <point x="180" y="382" type="curve" smooth="yes"/>
      <point x="180" y="427"/>
      <point x="216" y="462"/>
      <point x="294" y="462" type="curve" smooth="yes"/>
      <point x="366" y="462"/>
      <point x="410" y="422"/>
      <point x="422" y="366" type="curve"/>
      <point x="510" y="372" type="line"/>
      <point x="494" y="464"/>
      <point x="426" y="542"/>
      <point x="295" y="542" type="curve" smooth="yes"/>
      <point x="165" y="542"/>
      <point x="94" y="474"/>
      <point x="94" y="382" type="curve" smooth="yes"/>
      <point x="94" y="296"/>
      <point x="140" y="249"/>
      <point x="294" y="222" type="curve" smooth="yes"/>
      <point x="410" y="202"/>
      <point x="434" y="184"/>
      <point x="434" y="138" type="curve" smooth="yes"/>
      <point x="434" y="90"/>
      <point x="388" y="68"/>
      <point x="310" y="68" type="curve" smooth="yes"/>
      <point x="226" y="68"/>
      <point x="178" y="107"/>
      <point x="168" y="173" type="curve"/>
      <point x="80" y="167" type="line"/>
      <point x="88" y="67"/>
      <point x="172" y="-12"/>
    </contour>
  </outline>
</glyph>
<glyph name="t" format="2">
  <advance width="600"/>
  <unicode hex="0074"/>
  <anchor x="360" y="0" name="bottom"/>
  <anchor x="288" y="290" name="center"/>
  <anchor x="298" y="530" name="top"/>
  <anchor x="346" y="616" name="topright"/>
  <outline>
    <contour>
      <point x="378" y="0" type="curve" smooth="yes"/>
      <point x="520" y="0" type="line"/>
      <point x="520" y="74" type="line"/>
      <point x="378" y="74" type="line" smooth="yes"/>
      <point x="331" y="74"/>
      <point x="309" y="97"/>
      <point x="309" y="146" type="curve" smooth="yes"/>
      <point x="309" y="654" type="line"/>
      <point x="225" y="654" type="line"/>
      <point x="225" y="146" type="line" smooth="yes"/>
      <point x="225" y="47"/>
      <point x="275" y="0"/>
    </contour>
    <contour>
      <point x="50" y="456" type="line"/>
      <point x="520" y="456" type="line"/>
      <point x="520" y="530" type="line"/>
      <point x="50" y="530" type="line"/>
    </contour>
  </outline>
</glyph>
<glyph name="u" format="2">
  <advance width="600"/>
  <unicode hex="0075"/>
  <anchor x="293" y="0" name="bottom"/>
  <anchor x="504" y="0" name="ogonek"/>
  <anchor x="293" y="530" name="top"/>
  <anchor x="420" y="530" name="topright"/>
  <outline>
    <contour>
      <point x="263" y="-12" type="curve" smooth="yes"/>
      <point x="353" y="-12"/>
      <point x="416" y="37"/>
      <point x="437" y="124" type="curve"/>
      <point x="424" y="131" type="line"/>
      <point x="424" y="0" type="line"/>
      <point x="504" y="0" type="line"/>
      <point x="504" y="530" type="line"/>
      <point x="420" y="530" type="line"/>
      <point x="420" y="214" type="line" smooth="yes"/>
      <point x="420" y="119"/>
      <point x="369" y="62"/>
      <point x="286" y="62" type="curve" smooth="yes"/>
      <point x="210" y="62"/>
      <point x="174" y="109"/>
      <point x="174" y="212" type="curve" smooth="yes"/>
      <point x="174" y="530" type="line"/>
      <point x="90" y="530" type="line"/>
      <point x="90" y="189" type="line" smooth="yes"/>
      <point x="90" y="63"/>
      <point x="158" y="-12"/>
    </contour>
  </outline>
</glyph>
<glyph name="v" format="2">
  <advance width="600"/>
  <unicode hex="0076"/>
  <anchor x="300" y="0" name="bottom"/>
  <anchor x="300" y="530" name="top"/>
  <outline>
    <contour>
      <point x="247" y="0" type="line"/>
      <point x="353" y="0" type="line"/>
      <point x="550" y="530" type="line"/>
      <point x="458" y="530" type="line"/>
      <point x="300" y="86" type="line"/>
      <point x="142" y="530" type="line"/>
      <point x="50" y="530" type="line"/>
    </contour>
  </outline>
</glyph>
<glyph name="w" format="2">
  <advance width="600"/>
  <unicode hex="0077"/>
  <anchor x="300" y="0" name="bottom"/>
  <anchor x="300" y="530" name="top"/>
  <outline>
    <contour>
      <point x="125" y="0" type="line"/>
      <point x="230" y="0" type="line"/>
      <point x="300" y="334" type="line"/>
      <point x="370" y="0" type="line"/>
      <point x="476" y="0" type="line"/>
      <point x="580" y="530" type="line"/>
      <point x="488" y="530" type="line"/>
      <point x="419" y="88" type="line"/>
      <point x="341" y="456" type="line"/>
      <point x="259" y="456" type="line"/>
      <point x="181" y="88" type="line"/>
      <point x="112" y="530" type="line"/>
      <point x="20" y="530" type="line"/>
    </contour>
  </outline>
</glyph>
<glyph name="x" format="2">
  <advance width="600"/>
  <unicode hex="0078"/>
  <anchor x="300" y="0" name="bottom"/>
  <anchor x="300" y="530" name="top"/>
  <outline>
    <contour>
      <point x="54" y="0" type="line"/>
      <point x="154" y="0" type="line"/>
      <point x="301" y="214" type="line"/>
      <point x="448" y="0" type="line"/>
      <point x="546" y="0" type="line"/>
      <point x="353" y="270" type="line"/>
      <point x="537" y="530" type="line"/>
      <point x="437" y="530" type="line"/>
      <point x="301" y="330" type="line"/>
      <point x="162" y="530" type="line"/>
      <point x="64" y="530" type="line"/>
      <point x="249" y="272" type="line"/>
    </contour>
  </outline>
</glyph>
<glyph name="y" format="2">
  <advance width="600"/>
  <unicode hex="0079"/>
  <anchor x="448" y="0" name="bottom"/>
  <anchor x="301" y="530" name="top"/>
  <outline>
    <contour>
      <point x="136" y="-150" type="line"/>
      <point x="205" y="-150" type="line" smooth="yes"/>
      <point x="276" y="-150"/>
      <point x="313" y="-124"/>
      <point x="333" y="-67" type="curve" smooth="yes"/>
      <point x="548" y="530" type="line"/>
      <point x="456" y="530" type="line"/>
      <point x="305" y="88" type="line"/>
      <point x="144" y="530" type="line"/>
      <point x="52" y="530" type="line"/>
      <point x="249" y="10" type="line"/>
      <point x="278" y="10" type="line"/>
      <point x="259" y="-40" type="line" smooth="yes"/>
      <point x="249" y="-65"/>
      <point x="234" y="-76"/>
      <point x="197" y="-76" type="curve" smooth="yes"/>
      <point x="136" y="-76" type="line"/>
    </contour>
  </outline>
</glyph>
<glyph name="z" format="2">
  <advance width="600"/>
  <unicode hex="007A"/>
  <anchor x="301" y="0" name="bottom"/>
  <anchor x="301" y="530" name="top"/>
  <outline>
    <contour>
      <point x="82" y="0" type="line"/>
      <point x="518" y="0" type="line"/>
      <point x="518" y="74" type="line"/>
      <point x="174" y="74" type="line"/>
      <point x="510" y="446" type="line"/>
      <point x="510" y="530" type="line"/>
      <point x="92" y="530" type="line"/>
      <point x="92" y="456" type="line"/>
      <point x="418" y="456" type="line"/>
      <point x="82" y="84" type="line"/>
    </contour>
  </outline>
</glyph>
<glyph name="braceleft" format="2">
  <advance width="600"/>
  <unicode hex="007B"/>
  <outline>
    <contour>
      <point x="402" y="-120" type="curve" smooth="yes"/>
      <point x="490" y="-120" type="line"/>
      <point x="490" y="-42" type="line"/>
      <point x="403" y="-42" type="line" smooth="yes"/>
      <point x="342" y="-42"/>
      <point x="320" y="-11"/>
      <point x="320" y="50" type="curve" smooth="yes"/>
      <point x="320" y="142" type="line" smooth="yes"/>
      <point x="320" y="242"/>
      <point x="288" y="302"/>
      <point x="190" y="312" type="curve"/>
      <point x="190" y="318" type="line"/>
      <point x="288" y="328"/>
      <point x="320" y="388"/>
      <point x="320" y="488" type="curve" smooth="yes"/>
      <point x="320" y="580" type="line" smooth="yes"/>
      <point x="320" y="641"/>
      <point x="342" y="672"/>
      <point x="403" y="672" type="curve" smooth="yes"/>
      <point x="490" y="672" type="line"/>
      <point x="490" y="750" type="line"/>
      <point x="402" y="750" type="line" smooth="yes"/>
      <point x="286" y="750"/>
      <point x="240" y="679"/>
      <point x="240" y="578" type="curve" smooth="yes"/>
      <point x="240" y="474" type="line" smooth="yes"/>
      <point x="240" y="388"/>
      <point x="218" y="356"/>
      <point x="110" y="356" type="curve"/>
      <point x="110" y="274" type="line"/>
      <point x="218" y="274"/>
      <point x="240" y="242"/>
      <point x="240" y="156" type="curve" smooth="yes"/>
      <point x="240" y="52" type="line" smooth="yes"/>
      <point x="240" y="-49"/>
      <point x="286" y="-120"/>
    </contour>
  </outline>
</glyph>
<glyph name="asciitilde" format="2">
  <advance width="600"/>
  <unicode hex="007E"/>
  <outline>
    <contour>
      <point x="391" y="236" type="curve" smooth="yes"/>
      <point x="469" y="236"/>
      <point x="522" y="310"/>
      <point x="522" y="420" type="curve"/>
      <point x="443" y="420" type="line"/>
      <point x="443" y="350"/>
      <point x="424" y="313"/>
      <point x="390" y="313" type="curve" smooth="yes"/>
      <point x="364" y="313"/>
      <point x="353" y="321"/>
      <point x="318" y="366" type="curve" smooth="yes"/>
      <point x="283" y="411"/>
      <point x="260" y="430"/>
      <point x="209" y="430" type="curve" smooth="yes"/>
      <point x="132" y="430"/>
      <point x="79" y="355"/>
      <point x="79" y="246" type="curve"/>
      <point x="158" y="246" type="line"/>
      <point x="158" y="316"/>
      <point x="177" y="353"/>
      <point x="212" y="353" type="curve" smooth="yes"/>
      <point x="234" y="353"/>
      <point x="242" y="349"/>
      <point x="283" y="299" type="curve" smooth="yes"/>
      <point x="323" y="251"/>
      <point x="344" y="236"/>
    </contour>
  </outline>
</glyph>
<glyph name="cent" format="2">
  <advance width="600"/>
  <unicode hex="00A2"/>
  <anchor x="308" y="90" name="bottom"/>
  <anchor x="308" y="620" name="top"/>
  <outline>
    <contour>
      <point x="226" y="-12" type="line"/>
      <point x="296" y="-12" type="line"/>
      <point x="359" y="726" type="line"/>
      <point x="289" y="726" type="line"/>
    </contour>
    <component base="c" xOffset="-5" yOffset="90"/>
  </outline>
</glyph>
<glyph name="sterling" format="2">
  <advance width="600"/>
  <unicode hex="00A3"/>
  <outline>
    <contour>
      <point x="46" y="0" type="line"/>
      <point x="542" y="0" type="line"/>
      <point x="542" y="87" type="line"/>
      <point x="132" y="87" type="line"/>
      <point x="216" y="130"/>
      <point x="240" y="198"/>
      <point x="240" y="317" type="curve"/>
      <point x="406" y="317" type="line"/>
      <point x="406" y="391" type="line"/>
      <point x="228" y="391" type="line"/>
      <point x="212" y="444"/>
      <point x="202" y="484"/>
      <point x="202" y="515" type="curve" smooth="yes"/>
      <point x="202" y="589"/>
      <point x="252" y="642"/>
      <point x="328" y="642" type="curve" smooth="yes"/>
      <point x="386" y="642"/>
      <point x="437" y="609"/>
      <point x="454" y="543" type="curve"/>
      <point x="554" y="550" type="line"/>
      <point x="539" y="643"/>
      <point x="473" y="726"/>
      <point x="324" y="726" type="curve" smooth="yes"/>
      <point x="203" y="726"/>
      <point x="113" y="641"/>
      <point x="113" y="529" type="curve" smooth="yes"/>
      <point x="113" y="488"/>
      <point x="125" y="443"/>
      <point x="142" y="391" type="curve"/>
      <point x="46" y="391" type="line"/>
      <point x="46" y="317" type="line"/>
      <point x="159" y="317" type="line"/>
      <point x="161" y="303"/>
      <point x="163" y="290"/>
      <point x="163" y="278" type="curve" smooth="yes"/>
      <point x="163" y="194"/>
      <point x="121" y="127"/>
      <point x="46" y="82" type="curve"/>
    </contour>
  </outline>
</glyph>
<glyph name="currency" format="2">
  <advance width="600"/>
  <unicode hex="00A4"/>
  <outline>
    <contour>
      <point x="300" y="166" type="curve" smooth="yes"/>
      <point x="416" y="166"/>
      <point x="511" y="261"/>
      <point x="511" y="377" type="curve" smooth="yes"/>
      <point x="511" y="493"/>
      <point x="416" y="588"/>
      <point x="300" y="588" type="curve" smooth="yes"/>
      <point x="184" y="588"/>
      <point x="89" y="493"/>
      <point x="89" y="377" type="curve" smooth="yes"/>
      <point x="89" y="261"/>
      <point x="184" y="166"/>
    </contour>
    <contour>
      <point x="300" y="236" type="curve" smooth="yes"/>
      <point x="222" y="236"/>
      <point x="159" y="299"/>
      <point x="159" y="377" type="curve" smooth="yes"/>
      <point x="159" y="455"/>
      <point x="222" y="518"/>
      <point x="300" y="518" type="curve" smooth="yes"/>
      <point x="376" y="518"/>
      <point x="441" y="455"/>
      <point x="441" y="377" type="curve" smooth="yes"/>
      <point x="441" y="299"/>
      <point x="376" y="236"/>
    </contour>
    <contour>
      <point x="89" y="111" type="line"/>
      <point x="223" y="244" type="line"/>
      <point x="167" y="300" type="line"/>
      <point x="33" y="166" type="line"/>
    </contour>
    <contour>
      <point x="511" y="111" type="line"/>
      <point x="567" y="166" type="line"/>
      <point x="433" y="300" type="line"/>
      <point x="377" y="244" type="line"/>
    </contour>
    <contour>
      <point x="433" y="455" type="line"/>
      <point x="567" y="589" type="line"/>
      <point x="511" y="644" type="line"/>
      <point x="377" y="511" type="line"/>
    </contour>
    <contour>
      <point x="167" y="455" type="line"/>
      <point x="223" y="511" type="line"/>
      <point x="89" y="644" type="line"/>
      <point x="33" y="589" type="line"/>
    </contour>
  </outline>
</glyph>
<glyph name="yen" format="2">
  <advance width="600"/>
  <unicode hex="00A5"/>
  <anchor x="300" y="0" name="bottom"/>
  <anchor x="300" y="710" name="top"/>
  <outline>
    <contour>
      <point x="78" y="143" type="line"/>
      <point x="524" y="143" type="line"/>
      <point x="524" y="221" type="line"/>
      <point x="78" y="221" type="line"/>
    </contour>
    <contour>
      <point x="78" y="291" type="line"/>
      <point x="524" y="291" type="line"/>
      <point x="524" y="369" type="line"/>
      <point x="78" y="369" type="line"/>
    </contour>
    <component base="Y"/>
  </outline>
</glyph>
<glyph name="brokenbar" format="2">
  <advance width="600"/>
  <unicode hex="00A6"/>
  <outline>
    <contour>
      <point x="261" y="395" type="line"/>
      <point x="339" y="395" type="line"/>
      <point x="339" y="750" type="line"/>
      <point x="261" y="750" type="line"/>
    </contour>
    <contour>
      <point x="261" y="-110" type="line"/>
      <point x="339" y="-110" type="line"/>
      <point x="339" y="245" type="line"/>
      <point x="261" y="245" type="line"/>
    </contour>
  </outline>
</glyph>
<glyph name="section" format="2">
  <advance width="600"/>
  <unicode hex="00A7"/>
  <outline>
    <contour>
      <point x="310" y="-64" type="curve" smooth="yes"/>
      <point x="431" y="-64"/>
      <point x="518" y="-2"/>
      <point x="518" y="84" type="curve" smooth="yes"/>
      <point x="518" y="145"/>
      <point x="492" y="183"/>
      <point x="436" y="210" type="curve"/>
      <point x="492" y="232"/>
      <point x="520" y="269"/>
      <point x="520" y="322" type="curve" smooth="yes"/>
      <point x="520" y="411"/>
      <point x="470" y="449"/>
      <point x="315" y="490" type="curve" smooth="yes"/>
      <point x="216" y="516"/>
      <point x="188" y="535"/>
      <point x="188" y="576" type="curve" smooth="yes"/>
      <point x="188" y="616"/>
      <point x="233" y="646"/>
      <point x="296" y="646" type="curve" smooth="yes"/>
      <point x="372" y="646"/>
      <point x="422" y="611"/>
      <point x="433" y="550" type="curve"/>
      <point x="519" y="556" type="line"/>
      <point x="504" y="663"/>
      <point x="425" y="726"/>
      <point x="305" y="726" type="curve" smooth="yes"/>
      <point x="182" y="726"/>
      <point x="99" y="666"/>
      <point x="99" y="572" type="curve" smooth="yes"/>
      <point x="99" y="525"/>
      <point x="130" y="487"/>
      <point x="191" y="460" type="curve"/>
      <point x="129" y="433"/>
      <point x="97" y="390"/>
      <point x="97" y="332" type="curve" smooth="yes"/>
      <point x="97" y="256"/>
      <point x="150" y="212"/>
      <point x="287" y="183" type="curve" smooth="yes"/>
      <point x="392" y="161"/>
      <point x="431" y="131"/>
      <point x="431" y="90" type="curve" smooth="yes"/>
      <point x="431" y="45"/>
      <point x="401" y="16"/>
      <point x="310" y="16" type="curve" smooth="yes"/>
      <point x="223" y="16"/>
      <point x="177" y="57"/>
      <point x="167" y="121" type="curve"/>
      <point x="80" y="115" type="line"/>
      <point x="90" y="12"/>
      <point x="174" y="-64"/>
    </contour>
    <contour>
      <point x="339" y="248" type="curve" smooth="yes"/>
      <point x="215" y="248"/>
      <point x="177" y="296"/>
      <point x="177" y="341" type="curve" smooth="yes"/>
      <point x="177" y="384"/>
      <point x="223" y="419"/>
      <point x="278" y="419" type="curve" smooth="yes"/>
      <point x="353" y="419"/>
      <point x="441" y="392"/>
      <point x="441" y="326" type="curve" smooth="yes"/>
      <point x="441" y="279"/>
      <point x="401" y="248"/>
    </contour>
  </outline>
</glyph>
<glyph name="copyright" format="2">
  <advance width="600"/>
  <unicode hex="00A9"/>
  <outline>
    <contour>
      <point x="299" y="-12" type="curve" smooth="yes"/>
      <point x="473" y="-12"/>
      <point x="590" y="140"/>
      <point x="590" y="357" type="curve" smooth="yes"/>
      <point x="590" y="574"/>
      <point x="473" y="726"/>
      <point x="299" y="726" type="curve" smooth="yes"/>
      <point x="125" y="726"/>
      <point x="10" y="574"/>
      <point x="10" y="357" type="curve" smooth="yes"/>
      <point x="10" y="140"/>
      <point x="125" y="-12"/>
    </contour>
    <contour>
      <point x="299" y="50" type="curve" smooth="yes"/>
      <point x="160" y="50"/>
      <point x="76" y="173"/>
      <point x="76" y="357" type="curve" smooth="yes"/>
      <point x="76" y="542"/>
      <point x="160" y="664"/>
      <point x="299" y="664" type="curve" smooth="yes"/>
      <point x="438" y="664"/>
      <point x="524" y="542"/>
      <point x="524" y="357" type="curve" smooth="yes"/>
      <point x="524" y="173"/>
      <point x="438" y="50"/>
    </contour>
    <contour>
      <point x="300" y="144" type="curve" smooth="yes"/>
      <point x="387" y="144"/>
      <point x="457" y="205"/>
      <point x="469" y="303" type="curve"/>
      <point x="400" y="308" type="line"/>
      <point x="391" y="245"/>
      <point x="354" y="213"/>
      <point x="300" y="213" type="curve" smooth="yes"/>
      <point x="234" y="213"/>
      <point x="199" y="270"/>
      <point x="199" y="356" type="curve" smooth="yes"/>
      <point x="199" y="442"/>
      <point x="234" y="499"/>
      <point x="300" y="499" type="curve" smooth="yes"/>
      <point x="353" y="499"/>
      <point x="389" y="469"/>
      <point x="397" y="412" type="curve"/>
      <point x="466" y="417" type="line"/>
      <point x="456" y="510"/>
      <point x="384" y="568"/>
      <point x="300" y="568" type="curve" smooth="yes"/>
      <point x="200" y="568"/>
      <point x="130" y="479"/>
      <point x="130" y="356" type="curve" smooth="yes"/>
      <point x="130" y="232"/>
      <point x="200" y="144"/>
    </contour>
  </outline>
</glyph>
<glyph name="ordfeminine" format="2">
  <advance width="600"/>
  <unicode hex="00AA"/>
  <outline>
    <contour>
      <point x="246" y="376" type="curve" smooth="yes"/>
      <point x="312" y="376"/>
      <point x="355" y="410"/>
      <point x="365" y="452" type="curve"/>
      <point x="358" y="455" type="line"/>
      <point x="358" y="393"/>
      <point x="390" y="376"/>
      <point x="431" y="376" type="curve" smooth="yes"/>
      <point x="446" y="376"/>
      <point x="458" y="378"/>
      <point x="462" y="379" type="curve"/>
      <point x="462" y="439" type="line"/>
      <point x="451" y="439" type="line" smooth="yes"/>
      <point x="439" y="439"/>
      <point x="433" y="445"/>
      <point x="433" y="463" type="curve" smooth="yes"/>
      <point x="433" y="588" type="line" smooth="yes"/>
      <point x="433" y="677"/>
      <point x="383" y="726"/>
      <point x="287" y="726" type="curve" smooth="yes"/>
      <point x="203" y="726"/>
      <point x="148" y="687"/>
      <point x="136" y="616" type="curve"/>
      <point x="222" y="612" type="line"/>
      <point x="229" y="644"/>
      <point x="249" y="662"/>
      <point x="287" y="662" type="curve" smooth="yes"/>
      <point x="326" y="662"/>
      <point x="349" y="639"/>
      <point x="349" y="594" type="curve"/>
      <point x="238" y="572" type="line" smooth="yes"/>
      <point x="169" y="558"/>
      <point x="130" y="526"/>
      <point x="130" y="466" type="curve" smooth="yes"/>
      <point x="130" y="409"/>
      <point x="176" y="376"/>
    </contour>
    <contour>
      <point x="260" y="435" type="curve" smooth="yes"/>
      <point x="231" y="435"/>
      <point x="216" y="449"/>
      <point x="216" y="473" type="curve" smooth="yes"/>
      <point x="216" y="495"/>
      <point x="231" y="512"/>
      <point x="266" y="520" type="curve" smooth="yes"/>
      <point x="349" y="538" type="line"/>
      <point x="349" y="515" type="line" smooth="yes"/>
      <point x="349" y="466"/>
      <point x="312" y="435"/>
    </contour>
  </outline>
</glyph>
<glyph name="logicalnot" format="2">
  <advance width="600"/>
  <unicode hex="00AC"/>
  <outline>
    <contour>
      <point x="436" y="66" type="line"/>
      <point x="510" y="66" type="line"/>
      <point x="510" y="316" type="line"/>
      <point x="90" y="316" type="line"/>
      <point x="90" y="242" type="line"/>
      <point x="436" y="242" type="line"/>
    </contour>
  </outline>
</glyph>
<glyph name="registered" format="2">
  <advance width="600"/>
  <unicode hex="00AE"/>
  <outline>
    <contour>
      <point x="301" y="179" type="curve" smooth="yes"/>
      <point x="452" y="179"/>
      <point x="572" y="302"/>
      <point x="572" y="453" type="curve" smooth="yes"/>
      <point x="572" y="604"/>
      <point x="452" y="726"/>
      <point x="301" y="726" type="curve" smooth="yes"/>
      <point x="149" y="726"/>
      <point x="28" y="604"/>
      <point x="28" y="453" type="curve" smooth="yes"/>
      <point x="28" y="302"/>
      <point x="149" y="179"/>
    </contour>
    <contour>
      <point x="301" y="233" type="curve" smooth="yes"/>
      <point x="173" y="233"/>
      <point x="86" y="333"/>
      <point x="86" y="453" type="curve" smooth="yes"/>
      <point x="86" y="573"/>
      <point x="173" y="672"/>
      <point x="301" y="672" type="curve" smooth="yes"/>
      <point x="428" y="672"/>
      <point x="514" y="573"/>
      <point x="514" y="453" type="curve" smooth="yes"/>
      <point x="514" y="333"/>
      <point x="428" y="233"/>
    </contour>
    <contour>
      <point x="192" y="303" type="line"/>
      <point x="248" y="303" type="line"/>
      <point x="248" y="420" type="line"/>
      <point x="294" y="420" type="line"/>
      <point x="363" y="303" type="line"/>
      <point x="426" y="303" type="line"/>
      <point x="349" y="427" type="line"/>
      <point x="390" y="438"/>
      <point x="414" y="468"/>
      <point x="414" y="510" type="curve" smooth="yes"/>
      <point x="414" y="567"/>
      <point x="368" y="601"/>
      <point x="291" y="601" type="curve" smooth="yes"/>
      <point x="192" y="601" type="line"/>
    </contour>
    <contour>
      <point x="248" y="466" type="line"/>
      <point x="248" y="554" type="line"/>
      <point x="299" y="554" type="line" smooth="yes"/>
      <point x="338" y="554"/>
      <point x="360" y="539"/>
      <point x="360" y="512" type="curve" smooth="yes"/>
      <point x="360" y="484"/>
      <point x="338" y="466"/>
      <point x="299" y="466" type="curve" smooth="yes"/>
    </contour>
  </outline>
</glyph>
<glyph name="degree" format="2">
  <advance width="600"/>
  <unicode hex="00B0"/>
  <outline>
    <contour>
      <point x="300" y="410" type="curve" smooth="yes"/>
      <point x="386" y="410"/>
      <point x="458" y="478"/>
      <point x="458" y="568" type="curve" smooth="yes"/>
      <point x="458" y="658"/>
      <point x="386" y="726"/>
      <point x="300" y="726" type="curve" smooth="yes"/>
      <point x="214" y="726"/>
      <point x="142" y="658"/>
      <point x="142" y="568" type="curve" smooth="yes"/>
      <point x="142" y="478"/>
      <point x="214" y="410"/>
    </contour>
    <contour>
      <point x="300" y="484" type="curve" smooth="yes"/>
      <point x="254" y="484"/>
      <point x="216" y="518"/>
      <point x="216" y="568" type="curve" smooth="yes"/>
      <point x="216" y="619"/>
      <point x="255" y="654"/>
      <point x="300" y="654" type="curve" smooth="yes"/>
      <point x="345" y="654"/>
      <point x="384" y="619"/>
      <point x="384" y="568" type="curve" smooth="yes"/>
      <point x="384" y="518"/>
      <point x="346" y="484"/>
    </contour>
  </outline>
</glyph>
<glyph name="plusminus" format="2">
  <advance width="600"/>
  <unicode hex="00B1"/>
  <outline>
    <contour>
      <point x="71" y="0" type="line"/>
      <point x="529" y="0" type="line"/>
      <point x="529" y="74" type="line"/>
      <point x="71" y="74" type="line"/>
    </contour>
    <contour>
      <point x="261" y="106" type="line"/>
      <point x="339" y="106" type="line"/>
      <point x="339" y="564" type="line"/>
      <point x="261" y="564" type="line"/>
    </contour>
    <contour>
      <point x="71" y="296" type="line"/>
      <point x="529" y="296" type="line"/>
      <point x="529" y="374" type="line"/>
      <point x="71" y="374" type="line"/>
    </contour>
  </outline>
</glyph>
<glyph name="twosuperior" format="2">
  <advance width="600"/>
  <unicode hex="00B2"/>
  <outline>
    <contour>
      <point x="166" y="323" type="curve"/>
      <point x="430" y="323" type="line"/>
      <point x="430" y="381" type="line"/>
      <point x="240" y="381" type="line"/>
      <point x="240" y="407"/>
      <point x="257" y="436"/>
      <point x="297" y="458" type="curve" smooth="yes"/>
      <point x="338" y="480" type="line" smooth="yes"/>
      <point x="396" y="511"/>
      <point x="434" y="542"/>
      <point x="434" y="606" type="curve" smooth="yes"/>
      <point x="434" y="672"/>
      <point x="385" y="718"/>
      <point x="308" y="718" type="curve" smooth="yes"/>
      <point x="222" y="718"/>
      <point x="175" y="668"/>
      <point x="167" y="592" type="curve"/>
      <point x="231" y="589" type="line"/>
      <point x="237" y="637"/>
      <point x="260" y="660"/>
      <point x="308" y="660" type="curve" smooth="yes"/>
      <point x="340" y="660"/>
      <point x="368" y="640"/>
      <point x="368" y="606" type="curve" smooth="yes"/>
      <point x="368" y="568"/>
      <point x="355" y="553"/>
      <point x="317" y="532" type="curve" smooth="yes"/>
      <point x="265" y="503" type="line" smooth="yes"/>
      <point x="177" y="454"/>
      <point x="166" y="406"/>
    </contour>
  </outline>
</glyph>
<glyph name="threesuperior" format="2">
  <advance width="600"/>
  <unicode hex="00B3"/>
  <outline>
    <contour>
      <point x="300" y="315" type="curve" smooth="yes"/>
      <point x="380" y="315"/>
      <point x="441" y="359"/>
      <point x="441" y="433" type="curve" smooth="yes"/>
      <point x="441" y="477"/>
      <point x="421" y="514"/>
      <point x="355" y="530" type="curve"/>
      <point x="398" y="543"/>
      <point x="422" y="566"/>
      <point x="422" y="612" type="curve" smooth="yes"/>
      <point x="422" y="675"/>
      <point x="379" y="718"/>
      <point x="295" y="718" type="curve" smooth="yes"/>
      <point x="217" y="718"/>
      <point x="173" y="672"/>
      <point x="165" y="614" type="curve"/>
      <point x="229" y="610" type="line"/>
      <point x="232" y="637"/>
      <point x="254" y="659"/>
      <point x="295" y="659" type="curve" smooth="yes"/>
      <point x="337" y="659"/>
      <point x="357" y="637"/>
      <point x="357" y="606" type="curve" smooth="yes"/>
      <point x="357" y="572"/>
      <point x="332" y="555"/>
      <point x="295" y="555" type="curve" smooth="yes"/>
      <point x="270" y="555" type="line"/>
      <point x="270" y="498" type="line"/>
      <point x="295" y="498" type="line" smooth="yes"/>
      <point x="352" y="498"/>
      <point x="376" y="472"/>
      <point x="376" y="434" type="curve" smooth="yes"/>
      <point x="376" y="397"/>
      <point x="349" y="373"/>
      <point x="300" y="373" type="curve" smooth="yes"/>
      <point x="247" y="373"/>
      <point x="226" y="395"/>
      <point x="223" y="427" type="curve"/>
      <point x="159" y="424" type="line"/>
      <point x="163" y="361"/>
      <point x="196" y="315"/>
    </contour>
  </outline>
</glyph>
<glyph name="acute" format="2">
  <advance width="600"/>
  <unicode hex="00B4"/>
  <outline>
    <contour>
      <point x="302" y="500" type="line"/>
      <point x="400" y="728" type="line"/>
      <point x="274" y="728" type="line"/>
      <point x="200" y="500" type="line"/>
    </contour>
  </outline>
</glyph>
<glyph name="micro" format="2">
  <advance width="600"/>
  <unicode hex="00B5"/>
  <unicode hex="03BC"/>
  <outline>
    <contour>
      <point x="93" y="-150" type="line"/>
      <point x="177" y="-150" type="line"/>
      <point x="177" y="51" type="line"/>
      <point x="194" y="12"/>
      <point x="236" y="-12"/>
      <point x="286" y="-12" type="curve" smooth="yes"/>
      <point x="348" y="-12"/>
      <point x="402" y="26"/>
      <point x="427" y="88" type="curve"/>
      <point x="427" y="0" type="line"/>
      <point x="507" y="0" type="line"/>
      <point x="507" y="530" type="line"/>
      <point x="423" y="530" type="line"/>
      <point x="423" y="214" type="line" smooth="yes"/>
      <point x="423" y="121"/>
      <point x="371" y="62"/>
      <point x="286" y="62" type="curve" smooth="yes"/>
      <point x="213" y="62"/>
      <point x="177" y="113"/>
      <point x="177" y="214" type="curve" smooth="yes"/>
      <point x="177" y="530" type="line"/>
      <point x="93" y="530" type="line"/>
    </contour>
  </outline>
</glyph>
<glyph name="paragraph" format="2">
  <advance width="600"/>
  <unicode hex="00B6"/>
  <outline>
    <contour>
      <point x="270" y="0" type="line"/>
      <point x="350" y="0" type="line"/>
      <point x="350" y="634" type="line"/>
      <point x="420" y="634" type="line"/>
      <point x="420" y="0" type="line"/>
      <point x="500" y="0" type="line"/>
      <point x="500" y="710" type="line"/>
      <point x="275" y="710" type="line" smooth="yes"/>
      <point x="166" y="710"/>
      <point x="80" y="632"/>
      <point x="80" y="508" type="curve" smooth="yes"/>
      <point x="80" y="384"/>
      <point x="161" y="306"/>
      <point x="270" y="306" type="curve"/>
    </contour>
  </outline>
</glyph>
<glyph name="onesuperior" format="2">
  <advance width="600"/>
  <unicode hex="00B9"/>
  <outline>
    <contour>
      <point x="265" y="323" type="line"/>
      <point x="331" y="323" type="line"/>
      <point x="331" y="711" type="line"/>
      <point x="282" y="711" type="line"/>
      <point x="282" y="658"/>
      <point x="251" y="626"/>
      <point x="193" y="626" type="curve" smooth="yes"/>
      <point x="169" y="626" type="line"/>
      <point x="169" y="576" type="line"/>
      <point x="265" y="577" type="line"/>
    </contour>
  </outline>
</glyph>
<glyph name="ordmasculine" format="2">
  <advance width="600"/>
  <unicode hex="00BA"/>
  <outline>
    <contour>
      <point x="300" y="376" type="curve" smooth="yes"/>
      <point x="403" y="376"/>
      <point x="470" y="444"/>
      <point x="470" y="551" type="curve" smooth="yes"/>
      <point x="470" y="656"/>
      <point x="403" y="726"/>
      <point x="300" y="726" type="curve" smooth="yes"/>
      <point x="196" y="726"/>
      <point x="130" y="657"/>
      <point x="130" y="551" type="curve" smooth="yes"/>
      <point x="130" y="444"/>
      <point x="196" y="376"/>
    </contour>
    <contour>
      <point x="300" y="441" type="curve" smooth="yes"/>
      <point x="244" y="441"/>
      <point x="214" y="483"/>
      <point x="214" y="551" type="curve" smooth="yes"/>
      <point x="214" y="617"/>
      <point x="244" y="661"/>
      <point x="300" y="661" type="curve" smooth="yes"/>
      <point x="354" y="661"/>
      <point x="386" y="619"/>
      <point x="386" y="551" type="curve" smooth="yes"/>
      <point x="386" y="482"/>
      <point x="354" y="441"/>
    </contour>
  </outline>
</glyph>
<glyph name="questiondown" format="2">
  <advance width="600"/>
  <unicode hex="00BF"/>
  <outline>
    <contour>
      <point x="285" y="-162" type="curve" smooth="yes"/>
      <point x="431" y="-162"/>
      <point x="522" y="-68"/>
      <point x="534" y="64" type="curve"/>
      <point x="444" y="70" type="line"/>
      <point x="434" y="-26"/>
      <point x="384" y="-78"/>
      <point x="285" y="-78" type="curve" smooth="yes"/>
      <point x="204" y="-78"/>
      <point x="156" y="-40"/>
      <point x="156" y="25" type="curve" smooth="yes"/>
      <point x="156" y="89"/>
      <point x="171" y="115"/>
      <point x="249" y="163" type="curve" smooth="yes"/>
      <point x="318" y="206"/>
      <point x="346" y="256"/>
      <point x="346" y="352" type="curve"/>
      <point x="260" y="352" type="line"/>
      <point x="260" y="282"/>
      <point x="245" y="250"/>
      <point x="191" y="215" type="curve" smooth="yes"/>
      <point x="105" y="159"/>
      <point x="66" y="113"/>
      <point x="66" y="25" type="curve" smooth="yes"/>
      <point x="66" y="-90"/>
      <point x="155" y="-162"/>
    </contour>
    <component base="period" xScale="-1.0" yScale="-1.0" xOffset="603" yOffset="544"/>
  </outline>
</glyph>
<glyph name="AE" format="2">
  <advance width="600"/>
  <unicode hex="00C6"/>
  <anchor x="300" y="0" name="bottom"/>
  <anchor x="300" y="710" name="top"/>
  <outline>
    <contour>
      <point x="10" y="0" type="line"/>
      <point x="100" y="0" type="line"/>
      <point x="296" y="629" type="line"/>
      <point x="314" y="629" type="line"/>
      <point x="314" y="0" type="line"/>
      <point x="580" y="0" type="line"/>
      <point x="580" y="84" type="line"/>
      <point x="400" y="84" type="line"/>
      <point x="400" y="315" type="line"/>
      <point x="560" y="315" type="line"/>
      <point x="560" y="397" type="line"/>
      <point x="400" y="397" type="line"/>
      <point x="400" y="626" type="line"/>
      <point x="572" y="626" type="line"/>
      <point x="572" y="710" type="line"/>
      <point x="236" y="710" type="line"/>
    </contour>
    <contour>
      <point x="147" y="202" type="line"/>
      <point x="330" y="202" type="line"/>
      <point x="330" y="286" type="line"/>
      <point x="173" y="286" type="line"/>
    </contour>
  </outline>
</glyph>
<glyph name="multiply" format="2">
  <advance width="600"/>
  <unicode hex="00D7"/>
  <outline>
    <contour>
      <point x="89" y="139" type="line"/>
      <point x="144" y="84" type="line"/>
      <point x="511" y="451" type="line"/>
      <point x="456" y="506" type="line"/>
    </contour>
    <contour>
      <point x="89" y="451" type="line"/>
      <point x="456" y="84" type="line"/>
      <point x="511" y="139" type="line"/>
      <point x="144" y="506" type="line"/>
    </contour>
  </outline>
</glyph>
<glyph name="Thorn" format="2">
  <advance width="600"/>
  <unicode hex="00DE"/>
  <outline>
    <contour>
      <point x="115" y="149" type="line"/>
      <point x="308" y="149" type="line" smooth="yes"/>
      <point x="467" y="149"/>
      <point x="560" y="231"/>
      <point x="560" y="368" type="curve" smooth="yes"/>
      <point x="560" y="503"/>
      <point x="467" y="582"/>
      <point x="308" y="582" type="curve" smooth="yes"/>
      <point x="115" y="582" type="line"/>
      <point x="115" y="498" type="line"/>
      <point x="308" y="498" type="line" smooth="yes"/>
      <point x="416" y="498"/>
      <point x="470" y="455"/>
      <point x="470" y="368" type="curve" smooth="yes"/>
      <point x="470" y="279"/>
      <point x="416" y="233"/>
      <point x="308" y="233" type="curve" smooth="yes"/>
      <point x="115" y="233" type="line"/>
    </contour>
    <contour>
      <point x="90" y="0" type="line"/>
      <point x="176" y="0" type="line"/>
      <point x="176" y="710" type="line"/>
      <point x="90" y="710" type="line"/>
    </contour>
  </outline>
</glyph>
<glyph name="germandbls" format="2">
  <advance width="600"/>
  <unicode hex="00DF"/>
  <outline>
    <contour>
      <point x="80" y="0" type="line"/>
      <point x="164" y="0" type="line"/>
      <point x="164" y="502" type="line" smooth="yes"/>
      <point x="164" y="588"/>
      <point x="216" y="640"/>
      <point x="296" y="640" type="curve" smooth="yes"/>
      <point x="378" y="640"/>
      <point x="418" y="596"/>
      <point x="418" y="534" type="curve" smooth="yes"/>
      <point x="418" y="463"/>
      <point x="369" y="417"/>
      <point x="286" y="417" type="curve" smooth="yes"/>
      <point x="242" y="417" type="line"/>
      <point x="242" y="338" type="line"/>
      <point x="286" y="338" type="line" smooth="yes"/>
      <point x="401" y="338"/>
      <point x="460" y="289"/>
      <point x="460" y="206" type="curve" smooth="yes"/>
      <point x="460" y="121"/>
      <point x="401" y="80"/>
      <point x="296" y="80" type="curve" smooth="yes"/>
      <point x="232" y="80" type="line"/>
      <point x="232" y="0" type="line"/>
      <point x="296" y="0" type="line" smooth="yes"/>
      <point x="456" y="0"/>
      <point x="548" y="76"/>
      <point x="548" y="202" type="curve" smooth="yes"/>
      <point x="548" y="310"/>
      <point x="466" y="386"/>
      <point x="346" y="393" type="curve"/>
      <point x="347" y="376" type="line"/>
      <point x="441" y="382"/>
      <point x="504" y="445"/>
      <point x="504" y="536" type="curve" smooth="yes"/>
      <point x="504" y="645"/>
      <point x="426" y="720"/>
      <point x="296" y="720" type="curve" smooth="yes"/>
      <point x="166" y="720"/>
      <point x="80" y="636"/>
      <point x="80" y="502" type="curve" smooth="yes"/>
    </contour>
  </outline>
</glyph>
<glyph name="ae" format="2">
  <advance width="600"/>
  <unicode hex="00E6"/>
  <anchor x="300" y="0" name="bottom"/>
  <anchor x="300" y="530" name="top"/>
  <outline>
    <contour>
      <point x="419" y="-12" type="curve" smooth="yes"/>
      <point x="508" y="-12"/>
      <point x="551" y="33"/>
      <point x="576" y="150" type="curve"/>
      <point x="491" y="157" type="line"/>
      <point x="478" y="93"/>
      <point x="458" y="68"/>
      <point x="419" y="68" type="curve" smooth="yes"/>
      <point x="369" y="68"/>
      <point x="338" y="129"/>
      <point x="333" y="239" type="curve"/>
      <point x="582" y="239" type="line"/>
      <point x="582" y="278" type="line" smooth="yes"/>
      <point x="582" y="455"/>
      <point x="522" y="542"/>
      <point x="419" y="542" type="curve" smooth="yes"/>
      <point x="309" y="542"/>
      <point x="249" y="443"/>
      <point x="249" y="265" type="curve" smooth="yes"/>
      <point x="249" y="87"/>
      <point x="309" y="-12"/>
    </contour>
    <contour>
      <point x="146" y="-12" type="curve" smooth="yes"/>
      <point x="227" y="-12"/>
      <point x="276" y="44"/>
      <point x="288" y="138" type="curve"/>
      <point x="326" y="320" type="line"/>
      <point x="326" y="468"/>
      <point x="277" y="542"/>
      <point x="178" y="542" type="curve" smooth="yes"/>
      <point x="93" y="542"/>
      <point x="43" y="486"/>
      <point x="26" y="374" type="curve"/>
      <point x="110" y="368" type="line"/>
      <point x="118" y="423"/>
      <point x="132" y="462"/>
      <point x="178" y="462" type="curve" smooth="yes"/>
      <point x="225" y="462"/>
      <point x="246" y="418"/>
      <point x="246" y="312" type="curve"/>
      <point x="160" y="300" type="line" smooth="yes"/>
      <point x="72" y="288"/>
      <point x="18" y="225"/>
      <point x="18" y="141" type="curve" smooth="yes"/>
      <point x="18" y="34"/>
      <point x="73" y="-12"/>
    </contour>
    <contour>
      <point x="161" y="62" type="curve" smooth="yes"/>
      <point x="127" y="62"/>
      <point x="102" y="87"/>
      <point x="102" y="141" type="curve" smooth="yes"/>
      <point x="102" y="185"/>
      <point x="122" y="215"/>
      <point x="177" y="224" type="curve" smooth="yes"/>
      <point x="246" y="235" type="line"/>
      <point x="246" y="219" type="line" smooth="yes"/>
      <point x="246" y="118"/>
      <point x="223" y="62"/>
    </contour>
    <contour>
      <point x="334" y="313" type="line"/>
      <point x="344" y="420"/>
      <point x="369" y="462"/>
      <point x="419" y="462" type="curve" smooth="yes"/>
      <point x="463" y="462"/>
      <point x="491" y="420"/>
      <point x="495" y="313" type="curve"/>
    </contour>
  </outline>
</glyph>
<glyph name="eth" format="2">
  <advance width="600"/>
  <unicode hex="00F0"/>
  <outline>
    <contour>
      <point x="254" y="526" type="line"/>
      <point x="560" y="634" type="line"/>
      <point x="536" y="698" type="line"/>
      <point x="230" y="590" type="line"/>
    </contour>
    <contour>
      <point x="463" y="263" type="curve"/>
      <point x="544" y="255" type="line"/>
      <point x="544" y="507"/>
      <point x="454" y="696"/>
      <point x="200" y="722" type="curve"/>
      <point x="180" y="648" type="line"/>
      <point x="372" y="632"/>
      <point x="463" y="519"/>
    </contour>
    <contour>
      <point x="302" y="-12" type="curve" smooth="yes"/>
      <point x="448" y="-12"/>
      <point x="544" y="86"/>
      <point x="544" y="255" type="curve" smooth="yes"/>
      <point x="544" y="359"/>
      <point x="448" y="502"/>
      <point x="302" y="502" type="curve" smooth="yes"/>
      <point x="155" y="502"/>
      <point x="60" y="404"/>
      <point x="60" y="245" type="curve" smooth="yes"/>
      <point x="60" y="86"/>
      <point x="155" y="-12"/>
    </contour>
    <contour>
      <point x="302" y="68" type="curve" smooth="yes"/>
      <point x="204" y="68"/>
      <point x="148" y="132"/>
      <point x="148" y="245" type="curve" smooth="yes"/>
      <point x="148" y="358"/>
      <point x="204" y="422"/>
      <point x="302" y="422" type="curve" smooth="yes"/>
      <point x="399" y="422"/>
      <point x="456" y="358"/>
      <point x="456" y="255" type="curve" smooth="yes"/>
      <point x="456" y="129"/>
      <point x="399" y="68"/>
    </contour>
  </outline>
</glyph>
<glyph name="divide" format="2">
  <advance width="600"/>
  <unicode hex="00F7"/>
  <outline>
    <contour>
      <point x="300" y="52" type="curve" smooth="yes"/>
      <point x="340" y="52"/>
      <point x="364" y="78"/>
      <point x="364" y="114" type="curve" smooth="yes"/>
      <point x="364" y="150"/>
      <point x="340" y="176"/>
      <point x="300" y="176" type="curve" smooth="yes"/>
      <point x="260" y="176"/>
      <point x="236" y="150"/>
      <point x="236" y="114" type="curve" smooth="yes"/>
      <point x="236" y="78"/>
      <point x="260" y="52"/>
    </contour>
    <contour>
      <point x="300" y="414" type="curve" smooth="yes"/>
      <point x="340" y="414"/>
      <point x="364" y="440"/>
      <point x="364" y="476" type="curve" smooth="yes"/>
      <point x="364" y="512"/>
      <point x="340" y="538"/>
      <point x="300" y="538" type="curve" smooth="yes"/>
      <point x="260" y="538"/>
      <point x="236" y="512"/>
      <point x="236" y="476" type="curve" smooth="yes"/>
      <point x="236" y="440"/>
      <point x="260" y="414"/>
    </contour>
    <contour>
      <point x="70" y="256" type="line"/>
      <point x="530" y="256" type="line"/>
      <point x="530" y="334" type="line"/>
      <point x="70" y="334" type="line"/>
    </contour>
  </outline>
</glyph>
<glyph name="thorn" format="2">
  <advance width="600"/>
  <unicode hex="00FE"/>
  <anchor x="300" y="0" name="bottom"/>
  <anchor x="300" y="530" name="top"/>
  <outline>
    <contour>
      <point x="80" y="-150" type="line"/>
      <point x="166" y="-150" type="line"/>
      <point x="166" y="109" type="line"/>
      <point x="154" y="91" type="line"/>
      <point x="183" y="27"/>
      <point x="240" y="-12"/>
      <point x="327" y="-12" type="curve" smooth="yes"/>
      <point x="480" y="-12"/>
      <point x="550" y="119"/>
      <point x="550" y="265" type="curve" smooth="yes"/>
      <point x="550" y="411"/>
      <point x="480" y="542"/>
      <point x="327" y="542" type="curve" smooth="yes"/>
      <point x="240" y="542"/>
      <point x="181" y="500"/>
      <point x="155" y="436" type="curve"/>
      <point x="166" y="419" type="line"/>
      <point x="166" y="710" type="line"/>
      <point x="80" y="710" type="line"/>
    </contour>
    <contour>
      <point x="310" y="68" type="curve" smooth="yes"/>
      <point x="201" y="68"/>
      <point x="157" y="166"/>
      <point x="157" y="265" type="curve" smooth="yes"/>
      <point x="157" y="368"/>
      <point x="201" y="466"/>
      <point x="310" y="466" type="curve" smooth="yes"/>
      <point x="420" y="466"/>
      <point x="462" y="370"/>
      <point x="462" y="265" type="curve" smooth="yes"/>
      <point x="462" y="164"/>
      <point x="420" y="68"/>
    </contour>
  </outline>
</glyph>
<glyph name="dcaron" format="2">
  <advance width="600"/>
  <unicode hex="010F"/>
  <outline>
    <contour>
      <point x="227" y="-12" type="curve" smooth="yes"/>
      <point x="305" y="-12"/>
      <point x="354" y="33"/>
      <point x="383" y="108" type="curve"/>
      <point x="369" y="120" type="line"/>
      <point x="374" y="0" type="line"/>
      <point x="450" y="0" type="line"/>
      <point x="450" y="710" type="line"/>
      <point x="366" y="710" type="line"/>
      <point x="366" y="416" type="line"/>
      <point x="377" y="435" type="line"/>
      <point x="354" y="486"/>
      <point x="306" y="542"/>
      <point x="227" y="542" type="curve" smooth="yes"/>
      <point x="97" y="542"/>
      <point x="20" y="435"/>
      <point x="20" y="265" type="curve" smooth="yes"/>
      <point x="20" y="95"/>
      <point x="97" y="-12"/>
    </contour>
    <contour>
      <point x="232" y="68" type="curve" smooth="yes"/>
      <point x="158" y="68"/>
      <point x="108" y="144"/>
      <point x="108" y="265" type="curve" smooth="yes"/>
      <point x="108" y="388"/>
      <point x="158" y="462"/>
      <point x="230" y="462" type="curve" smooth="yes"/>
      <point x="312" y="462"/>
      <point x="366" y="388"/>
      <point x="366" y="265" type="curve" smooth="yes"/>
      <point x="366" y="144"/>
      <point x="312" y="68"/>
    </contour>
    <contour>
      <point x="476" y="456" type="line"/>
      <point x="536" y="456" type="line"/>
      <point x="590" y="710" type="line"/>
      <point x="506" y="710" type="line"/>
    </contour>
  </outline>
</glyph>
<glyph name="idotless" format="2">
  <advance width="600"/>
  <unicode hex="0131"/>
  <anchor x="300" y="0" name="bottom"/>
  <anchor x="560" y="0" name="ogonek"/>
  <anchor x="330" y="530" name="top"/>
  <outline>
    <contour>
      <point x="80" y="0" type="line"/>
      <point x="293" y="0" type="line"/>
      <point x="377" y="0" type="line"/>
      <point x="560" y="0" type="line"/>
      <point x="560" y="74" type="line"/>
      <point x="377" y="74" type="line"/>
      <point x="377" y="530" type="line"/>
      <point x="90" y="530" type="line"/>
      <point x="90" y="456" type="line"/>
      <point x="334" y="456" type="line"/>
      <point x="293" y="497" type="line"/>
      <point x="293" y="74" type="line"/>
      <point x="80" y="74" type="line"/>
    </contour>
  </outline>
</glyph>
<glyph name="Eng" format="2">
  <advance width="600"/>
  <unicode hex="014A"/>
  <anchor x="300" y="0" name="bottom"/>
  <anchor x="300" y="710" name="top"/>
  <outline>
    <contour>
      <point x="277" y="-150" type="line"/>
      <point x="380" y="-150" type="line" smooth="yes"/>
      <point x="472" y="-150"/>
      <point x="530" y="-94"/>
      <point x="530" y="-7" type="curve" smooth="yes"/>
      <point x="530" y="91" type="line"/>
      <point x="444" y="91" type="line"/>
      <point x="444" y="-8" type="line" smooth="yes"/>
      <point x="444" y="-46"/>
      <point x="422" y="-66"/>
      <point x="380" y="-66" type="curve" smooth="yes"/>
      <point x="277" y="-66" type="line"/>
    </contour>
    <component base="N"/>
  </outline>
</glyph>
<glyph name="eng" format="2">
  <advance width="600"/>
  <unicode hex="014B"/>
  <anchor x="300" y="0" name="bottom"/>
  <anchor x="300" y="530" name="top"/>
  <outline>
    <contour>
      <point x="285" y="-150" type="line"/>
      <point x="366" y="-150" type="line" smooth="yes"/>
      <point x="459" y="-150"/>
      <point x="516" y="-94"/>
      <point x="516" y="-7" type="curve" smooth="yes"/>
      <point x="516" y="91" type="line"/>
      <point x="432" y="91" type="line"/>
      <point x="432" y="-8" type="line" smooth="yes"/>
      <point x="432" y="-49"/>
      <point x="408" y="-76"/>
      <point x="368" y="-76" type="curve" smooth="yes"/>
      <point x="285" y="-76" type="line"/>
    </contour>
    <component base="n"/>
  </outline>
</glyph>
<glyph name="OE" format="2">
  <advance width="600"/>
  <unicode hex="0152"/>
  <anchor x="300" y="0" name="bottom"/>
  <anchor x="300" y="710" name="top"/>
  <outline>
    <contour>
      <point x="212" y="-16" type="curve" smooth="yes"/>
      <point x="338" y="-16"/>
      <point x="402" y="136"/>
      <point x="402" y="354" type="curve" smooth="yes"/>
      <point x="402" y="572"/>
      <point x="338" y="726"/>
      <point x="212" y="726" type="curve" smooth="yes"/>
      <point x="83" y="726"/>
      <point x="10" y="594"/>
      <point x="10" y="354" type="curve" smooth="yes"/>
      <point x="10" y="114"/>
      <point x="83" y="-16"/>
    </contour>
    <contour>
      <point x="212" y="68" type="curve" smooth="yes"/>
      <point x="127" y="68"/>
      <point x="98" y="168"/>
      <point x="98" y="354" type="curve" smooth="yes"/>
      <point x="98" y="542"/>
      <point x="127" y="642"/>
      <point x="212" y="642" type="curve" smooth="yes"/>
      <point x="297" y="642"/>
      <point x="326" y="542"/>
      <point x="326" y="354" type="curve" smooth="yes"/>
      <point x="326" y="168"/>
      <point x="297" y="68"/>
    </contour>
    <contour>
      <point x="328" y="0" type="line"/>
      <point x="590" y="0" type="line"/>
      <point x="590" y="84" type="line"/>
      <point x="414" y="84" type="line"/>
      <point x="414" y="315" type="line"/>
      <point x="570" y="315" type="line"/>
      <point x="570" y="397" type="line"/>
      <point x="414" y="397" type="line"/>
      <point x="414" y="626" type="line"/>
      <point x="582" y="626" type="line"/>
      <point x="582" y="710" type="line"/>
      <point x="328" y="710" type="line"/>
    </contour>
  </outline>
</glyph>
<glyph name="oe" format="2">
  <advance width="600"/>
  <unicode hex="0153"/>
  <outline>
    <contour>
      <point x="428" y="-12" type="curve" smooth="yes"/>
      <point x="517" y="-12"/>
      <point x="560" y="33"/>
      <point x="585" y="150" type="curve"/>
      <point x="500" y="157" type="line"/>
      <point x="487" y="93"/>
      <point x="467" y="68"/>
      <point x="428" y="68" type="curve" smooth="yes"/>
      <point x="378" y="68"/>
      <point x="347" y="129"/>
      <point x="342" y="239" type="curve"/>
      <point x="591" y="239" type="line"/>
      <point x="591" y="277" type="line" smooth="yes"/>
      <point x="591" y="449"/>
      <point x="534" y="542"/>
      <point x="428" y="542" type="curve" smooth="yes"/>
      <point x="318" y="542"/>
      <point x="257" y="436"/>
      <point x="257" y="265" type="curve" smooth="yes"/>
      <point x="257" y="97"/>
      <point x="318" y="-12"/>
    </contour>
    <contour>
      <point x="175" y="-12" type="curve" smooth="yes"/>
      <point x="277" y="-12"/>
      <point x="340" y="104"/>
      <point x="340" y="265" type="curve" smooth="yes"/>
      <point x="340" y="436"/>
      <point x="277" y="542"/>
      <point x="175" y="542" type="curve" smooth="yes"/>
      <point x="74" y="542"/>
      <point x="10" y="435"/>
      <point x="10" y="265" type="curve" smooth="yes"/>
      <point x="10" y="95"/>
      <point x="74" y="-12"/>
    </contour>
    <contour>
      <point x="175" y="68" type="curve" smooth="yes"/>
      <point x="126" y="68"/>
      <point x="96" y="143"/>
      <point x="96" y="265" type="curve" smooth="yes"/>
      <point x="96" y="387"/>
      <point x="126" y="462"/>
      <point x="175" y="462" type="curve" smooth="yes"/>
      <point x="225" y="462"/>
      <point x="255" y="388"/>
      <point x="255" y="265" type="curve" smooth="yes"/>
      <point x="255" y="142"/>
      <point x="225" y="68"/>
    </contour>
    <contour>
      <point x="343" y="313" type="line"/>
      <point x="351" y="413"/>
      <point x="377" y="462"/>
      <point x="423" y="462" type="curve" smooth="yes"/>
      <point x="470" y="462"/>
      <point x="497" y="413"/>
      <point x="504" y="313" type="curve"/>
    </contour>
  </outline>
</glyph>
<glyph name="tcaron" format="2">
  <advance width="600"/>
  <unicode hex="0165"/>
  <anchor x="360" y="0" name="bottom"/>
  <anchor x="288" y="290" name="center"/>
  <anchor x="298" y="530" name="top"/>
  <anchor x="346" y="616" name="topright"/>
  <outline>
    <contour>
      <point x="379" y="573" type="line"/>
      <point x="439" y="573" type="line"/>
      <point x="493" y="827" type="line"/>
      <point x="409" y="827" type="line"/>
    </contour>
    <component base="t"/>
  </outline>
</glyph>
<glyph name="Schwa" format="2">
  <advance width="600"/>
  <unicode hex="018F"/>
  <outline>
    <contour>
      <point x="308" y="-16" type="curve" smooth="yes"/>
      <point x="463" y="-16"/>
      <point x="572" y="127"/>
      <point x="572" y="355" type="curve" smooth="yes"/>
      <point x="572" y="593"/>
      <point x="471" y="726"/>
      <point x="298" y="726" type="curve" smooth="yes"/>
      <point x="179" y="726"/>
      <point x="92" y="641"/>
      <point x="52" y="498" type="curve"/>
      <point x="146" y="490" type="line"/>
      <point x="168" y="582"/>
      <point x="220" y="642"/>
      <point x="302" y="642" type="curve" smooth="yes"/>
      <point x="413" y="642"/>
      <point x="481" y="541"/>
      <point x="481" y="390" type="curve"/>
      <point x="38" y="390" type="line"/>
      <point x="38" y="343" type="line" smooth="yes"/>
      <point x="38" y="130"/>
      <point x="138" y="-16"/>
    </contour>
    <contour>
      <point x="308" y="68" type="curve" smooth="yes"/>
      <point x="198" y="68"/>
      <point x="131" y="158"/>
      <point x="131" y="306" type="curve"/>
      <point x="480" y="306" type="line"/>
      <point x="480" y="158"/>
      <point x="413" y="68"/>
    </contour>
  </outline>
</glyph>
<glyph name="florin" format="2">
  <advance width="600"/>
  <unicode hex="0192"/>
  <outline>
    <contour>
      <point x="80" y="0" type="line"/>
      <point x="164" y="-1" type="line" smooth="yes"/>
      <point x="255" y="-2"/>
      <point x="305" y="44"/>
      <point x="315" y="133" type="curve" smooth="yes"/>
      <point x="365" y="580" type="line" smooth="yes"/>
      <point x="369" y="616"/>
      <point x="390" y="636"/>
      <point x="426" y="636" type="curve" smooth="yes"/>
      <point x="520" y="636" type="line"/>
      <point x="520" y="709" type="line"/>
      <point x="433" y="710" type="line" smooth="yes"/>
      <point x="343" y="711"/>
      <point x="293" y="665"/>
      <point x="283" y="576" type="curve" smooth="yes"/>
      <point x="234" y="129" type="line" smooth="yes"/>
      <point x="230" y="93"/>
      <point x="209" y="74"/>
      <point x="172" y="74" type="curve" smooth="yes"/>
      <point x="80" y="74" type="line"/>
    </contour>
    <contour>
      <point x="163" y="456" type="line"/>
      <point x="520" y="456" type="line"/>
      <point x="520" y="530" type="line"/>
      <point x="163" y="530" type="line"/>
    </contour>
  </outline>
</glyph>
<glyph name="Uhorn" format="2">
  <advance width="600"/>
  <unicode hex="01AF"/>
  <anchor x="254" y="0" name="bottom"/>
  <anchor x="254" y="710" name="top"/>
  <outline>
    <contour>
      <point x="254" y="-16" type="curve" smooth="yes"/>
      <point x="399" y="-16"/>
      <point x="490" y="85"/>
      <point x="490" y="248" type="curve" smooth="yes"/>
      <point x="490" y="710" type="line"/>
      <point x="404" y="710" type="line"/>
      <point x="404" y="248" type="line" smooth="yes"/>
      <point x="404" y="131"/>
      <point x="350" y="68"/>
      <point x="254" y="68" type="curve" smooth="yes"/>
      <point x="158" y="68"/>
      <point x="104" y="131"/>
      <point x="104" y="248" type="curve" smooth="yes"/>
      <point x="104" y="710" type="line"/>
      <point x="18" y="710" type="line"/>
      <point x="18" y="248" type="line" smooth="yes"/>
      <point x="18" y="85"/>
      <point x="109" y="-16"/>
    </contour>
    <contour>
      <point x="410" y="662" type="line"/>
      <point x="466" y="662" type="line" smooth="yes"/>
      <point x="534" y="662"/>
      <point x="582" y="690"/>
      <point x="582" y="762" type="curve" smooth="yes"/>
      <point x="582" y="794"/>
      <point x="574" y="832"/>
      <point x="568" y="850" type="curve"/>
      <point x="494" y="850" type="line"/>
      <point x="500" y="826"/>
      <point x="508" y="788"/>
      <point x="508" y="758" type="curve" smooth="yes"/>
      <point x="508" y="722"/>
      <point x="488" y="710"/>
      <point x="458" y="710" type="curve" smooth="yes"/>
      <point x="404" y="710" type="line"/>
    </contour>
  </outline>
</glyph>
<glyph name="uhorn" format="2">
  <advance width="600"/>
  <unicode hex="01B0"/>
  <anchor x="249" y="0" name="bottom"/>
  <anchor x="460" y="0" name="ogonek"/>
  <anchor x="249" y="530" name="top"/>
  <outline>
    <contour>
      <point x="219" y="-12" type="curve" smooth="yes"/>
      <point x="309" y="-12"/>
      <point x="372" y="37"/>
      <point x="393" y="124" type="curve"/>
      <point x="380" y="131" type="line"/>
      <point x="380" y="0" type="line"/>
      <point x="460" y="0" type="line"/>
      <point x="460" y="530" type="line"/>
      <point x="376" y="530" type="line"/>
      <point x="376" y="214" type="line" smooth="yes"/>
      <point x="376" y="119"/>
      <point x="325" y="62"/>
      <point x="242" y="62" type="curve" smooth="yes"/>
      <point x="166" y="62"/>
      <point x="130" y="109"/>
      <point x="130" y="212" type="curve" smooth="yes"/>
      <point x="130" y="530" type="line"/>
      <point x="46" y="530" type="line"/>
      <point x="46" y="189" type="line" smooth="yes"/>
      <point x="46" y="63"/>
      <point x="114" y="-12"/>
    </contour>
    <contour>
      <point x="382" y="482" type="line"/>
      <point x="438" y="482" type="line" smooth="yes"/>
      <point x="506" y="482"/>
      <point x="554" y="510"/>
      <point x="554" y="582" type="curve" smooth="yes"/>
      <point x="554" y="614"/>
      <point x="546" y="652"/>
      <point x="540" y="670" type="curve"/>
      <point x="466" y="670" type="line"/>
      <point x="472" y="646"/>
      <point x="480" y="608"/>
      <point x="480" y="578" type="curve" smooth="yes"/>
      <point x="480" y="542"/>
      <point x="460" y="530"/>
      <point x="430" y="530" type="curve" smooth="yes"/>
      <point x="376" y="530" type="line"/>
    </contour>
  </outline>
</glyph>
<glyph name="Ezh" format="2">
  <advance width="600"/>
  <unicode hex="01B7"/>
  <anchor x="291" y="710" name="top"/>
  <outline>
    <contour>
      <point x="284" y="-16" type="curve" smooth="yes"/>
      <point x="439" y="-16"/>
      <point x="546" y="74"/>
      <point x="546" y="201" type="curve" smooth="yes"/>
      <point x="546" y="314"/>
      <point x="462" y="403"/>
      <point x="343" y="415" type="curve"/>
      <point x="535" y="612" type="line"/>
      <point x="535" y="710" type="line"/>
      <point x="48" y="710" type="line"/>
      <point x="48" y="626" type="line"/>
      <point x="429" y="626" type="line"/>
      <point x="231" y="421" type="line"/>
      <point x="231" y="336" type="line"/>
      <point x="285" y="337" type="line" smooth="yes"/>
      <point x="386" y="339"/>
      <point x="456" y="283"/>
      <point x="456" y="201" type="curve" smooth="yes"/>
      <point x="456" y="123"/>
      <point x="385" y="68"/>
      <point x="284" y="68" type="curve" smooth="yes"/>
      <point x="210" y="68"/>
      <point x="119" y="114"/>
      <point x="47" y="187" type="curve"/>
      <point x="47" y="83" type="line"/>
      <point x="106" y="22"/>
      <point x="197" y="-16"/>
    </contour>
  </outline>
</glyph>
<glyph name="Gstroke" format="2">
  <advance width="600"/>
  <unicode hex="01E4"/>
  <outline>
    <contour>
      <point x="299" y="-16" type="curve" smooth="yes"/>
      <point x="464" y="-16"/>
      <point x="560" y="92"/>
      <point x="560" y="310" type="curve" smooth="yes"/>
      <point x="560" y="359" type="line"/>
      <point x="306" y="359" type="line"/>
      <point x="306" y="277" type="line"/>
      <point x="474" y="277" type="line"/>
      <point x="474" y="141"/>
      <point x="409" y="68"/>
      <point x="299" y="68" type="curve" smooth="yes"/>
      <point x="179" y="68"/>
      <point x="110" y="181"/>
      <point x="110" y="354" type="curve" smooth="yes"/>
      <point x="110" y="528"/>
      <point x="179" y="642"/>
      <point x="299" y="642" type="curve" smooth="yes"/>
      <point x="393" y="642"/>
      <point x="441" y="580"/>
      <point x="463" y="492" type="curve"/>
      <point x="553" y="498" type="line"/>
      <point x="522" y="630"/>
      <point x="441" y="726"/>
      <point x="299" y="726" type="curve" smooth="yes"/>
      <point x="131" y="726"/>
      <point x="20" y="581"/>
      <point x="20" y="354" type="curve" smooth="yes"/>
      <point x="20" y="128"/>
      <point x="131" y="-16"/>
    </contour>
    <contour>
      <point x="306" y="149" type="line"/>
      <point x="586" y="149" type="line"/>
      <point x="586" y="219" type="line"/>
      <point x="306" y="219" type="line"/>
    </contour>
  </outline>
</glyph>
<glyph name="gstroke" format="2">
  <advance width="600"/>
  <unicode hex="01E5"/>
  <anchor x="300" y="-150" name="bottom"/>
  <anchor x="298" y="530" name="top"/>
  <outline>
    <contour>
      <point x="295" y="246" type="line"/>
      <point x="580" y="246" type="line"/>
      <point x="580" y="316" type="line"/>
      <point x="295" y="316" type="line"/>
    </contour>
    <component base="g"/>
  </outline>
</glyph>
<glyph name="jdotless" format="2">
  <advance width="600"/>
  <unicode hex="0237"/>
  <anchor x="300" y="-150" name="bottom"/>
  <anchor x="396" y="530" name="top"/>
  <outline>
    <contour>
      <point x="110" y="-150" type="line"/>
      <point x="288" y="-150" type="line" smooth="yes"/>
      <point x="394" y="-150"/>
      <point x="440" y="-97"/>
      <point x="440" y="0" type="curve" smooth="yes"/>
      <point x="440" y="530" type="line"/>
      <point x="120" y="530" type="line"/>
      <point x="120" y="456" type="line"/>
      <point x="397" y="456" type="line"/>
      <point x="356" y="497" type="line"/>
      <point x="356" y="6" type="line" smooth="yes"/>
      <point x="356" y="-58"/>
      <point x="330" y="-76"/>
      <point x="278" y="-76" type="curve" smooth="yes"/>
      <point x="110" y="-76" type="line"/>
    </contour>
  </outline>
</glyph>
<glyph name="verticallinemod" format="2">
  <advance width="600"/>
  <unicode hex="02C8"/>
  <outline>
    <contour>
      <point x="270" y="427" type="line"/>
      <point x="330" y="427" type="line"/>
      <point x="344" y="634" type="line"/>
      <point x="344" y="710" type="line"/>
      <point x="256" y="710" type="line"/>
      <point x="256" y="634" type="line"/>
    </contour>
  </outline>
</glyph>
<glyph name="gravecomb" format="2">
  <unicode hex="0300"/>
  <anchor x="340" y="530" name="_top"/>
  <anchor x="340" y="730" name="top"/>
  <outline>
    <contour>
      <point x="310" y="598" type="line"/>
      <point x="380" y="598" type="line"/>
      <point x="314" y="726" type="line"/>
      <point x="220" y="726" type="line"/>
    </contour>
  </outline>
</glyph>
<glyph name="acutecomb" format="2">
  <unicode hex="0301"/>
  <anchor x="258" y="530" name="_top"/>
  <anchor x="258" y="730" name="top"/>
  <outline>
    <contour>
      <point x="220" y="598" type="line"/>
      <point x="290" y="598" type="line"/>
      <point x="380" y="726" type="line"/>
      <point x="286" y="726" type="line"/>
    </contour>
  </outline>
</glyph>
<glyph name="circumflexcomb" format="2">
  <unicode hex="0302"/>
  <anchor x="301" y="530" name="_top"/>
  <outline>
    <contour>
      <point x="160" y="598" type="line"/>
      <point x="230" y="598" type="line"/>
      <point x="308" y="698" type="line"/>
      <point x="292" y="698" type="line"/>
      <point x="370" y="598" type="line"/>
      <point x="440" y="598" type="line"/>
      <point x="347" y="731" type="line"/>
      <point x="253" y="731" type="line"/>
    </contour>
  </outline>
</glyph>
<glyph name="tildecomb" format="2">
  <unicode hex="0303"/>
  <anchor x="300" y="530" name="_top"/>
  <outline>
    <contour>
      <point x="360" y="610" type="curve" smooth="yes"/>
      <point x="417" y="610"/>
      <point x="454" y="654"/>
      <point x="458" y="730" type="curve"/>
      <point x="406" y="730" type="line"/>
      <point x="402" y="680"/>
      <point x="389" y="664"/>
      <point x="364" y="664" type="curve" smooth="yes"/>
      <point x="348" y="664"/>
      <point x="335" y="671"/>
      <point x="314" y="688" type="curve" smooth="yes"/>
      <point x="291" y="707"/>
      <point x="270" y="720"/>
      <point x="238" y="720" type="curve" smooth="yes"/>
      <point x="184" y="720"/>
      <point x="144" y="680"/>
      <point x="142" y="603" type="curve"/>
      <point x="194" y="603" type="line"/>
      <point x="196" y="651"/>
      <point x="214" y="666"/>
      <point x="238" y="666" type="curve" smooth="yes"/>
      <point x="258" y="666"/>
      <point x="267" y="659"/>
      <point x="290" y="640" type="curve" smooth="yes"/>
      <point x="312" y="622"/>
      <point x="334" y="610"/>
    </contour>
  </outline>
</glyph>
<glyph name="macroncomb" format="2">
  <unicode hex="0304"/>
  <anchor x="301" y="530" name="_top"/>
  <outline>
    <contour>
      <point x="166" y="625" type="line"/>
      <point x="434" y="625" type="line"/>
      <point x="434" y="697" type="line"/>
      <point x="166" y="697" type="line"/>
    </contour>
  </outline>
</glyph>
<glyph name="brevecomb" format="2">
  <unicode hex="0306"/>
  <anchor x="300" y="530" name="_top"/>
  <outline>
    <contour>
      <point x="300" y="603" type="curve" smooth="yes"/>
      <point x="382" y="603"/>
      <point x="436" y="653"/>
      <point x="440" y="731" type="curve"/>
      <point x="382" y="731" type="line"/>
      <point x="376" y="685"/>
      <point x="346" y="665"/>
      <point x="300" y="665" type="curve" smooth="yes"/>
      <point x="254" y="665"/>
      <point x="224" y="685"/>
      <point x="218" y="731" type="curve"/>
      <point x="160" y="731" type="line"/>
      <point x="164" y="653"/>
      <point x="218" y="603"/>
    </contour>
  </outline>
</glyph>
<glyph name="dotaccentcomb" format="2">
  <unicode hex="0307"/>
  <anchor x="301" y="530" name="_top"/>
  <anchor x="300" y="711" name="top"/>
  <outline>
    <contour>
      <point x="256" y="613" type="line"/>
      <point x="344" y="613" type="line"/>
      <point x="344" y="711" type="line"/>
      <point x="256" y="711" type="line"/>
    </contour>
  </outline>
</glyph>
<glyph name="dieresiscomb" format="2">
  <unicode hex="0308"/>
  <anchor x="300" y="530" name="_top"/>
  <outline>
    <contour>
      <point x="169" y="613" type="line"/>
      <point x="257" y="613" type="line"/>
      <point x="257" y="711" type="line"/>
      <point x="169" y="711" type="line"/>
    </contour>
    <contour>
      <point x="343" y="613" type="line"/>
      <point x="431" y="613" type="line"/>
      <point x="431" y="711" type="line"/>
      <point x="343" y="711" type="line"/>
    </contour>
  </outline>
</glyph>
<glyph name="hookabovecomb" format="2">
  <unicode hex="0309"/>
  <anchor x="298" y="530" name="_top"/>
  <anchor x="298" y="758" name="top"/>
  <outline>
    <contour>
      <point x="326" y="590" type="line"/>
      <point x="350" y="608"/>
      <point x="378" y="636"/>
      <point x="378" y="682" type="curve" smooth="yes"/>
      <point x="378" y="732"/>
      <point x="350" y="758"/>
      <point x="286" y="758" type="curve" smooth="yes"/>
      <point x="256" y="758"/>
      <point x="234" y="754"/>
      <point x="222" y="750" type="curve"/>
      <point x="222" y="692" type="line"/>
      <point x="234" y="696"/>
      <point x="254" y="700"/>
      <point x="278" y="700" type="curve" smooth="yes"/>
      <point x="304" y="700"/>
      <point x="314" y="686"/>
      <point x="314" y="666" type="curve" smooth="yes"/>
      <point x="314" y="642"/>
      <point x="292" y="616"/>
      <point x="266" y="590" type="curve"/>
    </contour>
  </outline>
</glyph>
<glyph name="ringcomb" format="2">
  <unicode hex="030A"/>
  <anchor x="300" y="530" name="_top"/>
  <outline>
    <contour>
      <point x="300" y="576" type="curve" smooth="yes"/>
      <point x="352" y="576"/>
      <point x="392" y="616"/>
      <point x="392" y="668" type="curve" smooth="yes"/>
      <point x="392" y="720"/>
      <point x="352" y="760"/>
      <point x="300" y="760" type="curve" smooth="yes"/>
      <point x="248" y="760"/>
      <point x="208" y="720"/>
      <point x="208" y="668" type="curve" smooth="yes"/>
      <point x="208" y="616"/>
      <point x="248" y="576"/>
    </contour>
    <contour>
      <point x="300" y="626" type="curve" smooth="yes"/>
      <point x="276" y="626"/>
      <point x="258" y="644"/>
      <point x="258" y="668" type="curve" smooth="yes"/>
      <point x="258" y="692"/>
      <point x="276" y="710"/>
      <point x="300" y="710" type="curve" smooth="yes"/>
      <point x="324" y="710"/>
      <point x="342" y="692"/>
      <point x="342" y="668" type="curve" smooth="yes"/>
      <point x="342" y="644"/>
      <point x="324" y="626"/>
    </contour>
  </outline>
</glyph>
<glyph name="horncomb" format="2">
  <unicode hex="031B"/>
  <anchor x="211" y="530" name="_topright"/>
  <outline>
    <contour>
      <point x="217" y="482" type="line"/>
      <point x="273" y="482" type="line" smooth="yes"/>
      <point x="341" y="482"/>
      <point x="389" y="510"/>
      <point x="389" y="582" type="curve" smooth="yes"/>
      <point x="389" y="614"/>
      <point x="381" y="652"/>
      <point x="375" y="670" type="curve"/>
      <point x="301" y="670" type="line"/>
      <point x="307" y="646"/>
      <point x="315" y="608"/>
      <point x="315" y="578" type="curve" smooth="yes"/>
      <point x="315" y="542"/>
      <point x="295" y="530"/>
      <point x="265" y="530" type="curve" smooth="yes"/>
      <point x="211" y="530" type="line"/>
    </contour>
  </outline>
</glyph>
<glyph name="dotbelowcomb" format="2">
  <unicode hex="0323"/>
  <anchor x="300" y="0" name="_bottom"/>
  <anchor x="300" y="-150" name="bottom"/>
  <outline>
    <contour>
      <point x="256" y="-150" type="line"/>
      <point x="344" y="-150" type="line"/>
      <point x="344" y="-60" type="line"/>
      <point x="256" y="-60" type="line"/>
    </contour>
  </outline>
</glyph>
<glyph name="commaaccentcomb" format="2">
  <unicode hex="0326"/>
  <anchor x="300" y="0" name="_bottom"/>
  <anchor x="300" y="-222" name="bottom"/>
  <outline>
    <contour>
      <point x="230" y="-240" type="line"/>
      <point x="286" y="-240" type="line"/>
      <point x="350" y="-140" type="line"/>
      <point x="350" y="-54" type="line"/>
      <point x="250" y="-54" type="line"/>
      <point x="250" y="-144" type="line"/>
      <point x="284" y="-144" type="line"/>
    </contour>
  </outline>
</glyph>
<glyph name="cedillacomb" format="2">
  <unicode hex="0327"/>
  <anchor x="312" y="0" name="_bottom"/>
  <outline>
    <contour>
      <point x="302" y="-220" type="curve" smooth="yes"/>
      <point x="367" y="-220"/>
      <point x="414" y="-182"/>
      <point x="414" y="-126" type="curve" smooth="yes"/>
      <point x="414" y="-74"/>
      <point x="383" y="-39"/>
      <point x="318" y="-36" type="curve"/>
      <point x="352" y="10" type="line"/>
      <point x="288" y="10" type="line"/>
      <point x="250" y="-50" type="line"/>
      <point x="278" y="-80" type="line"/>
      <point x="342" y="-80"/>
      <point x="354" y="-99"/>
      <point x="354" y="-124" type="curve" smooth="yes"/>
      <point x="354" y="-149"/>
      <point x="334" y="-164"/>
      <point x="300" y="-164" type="curve" smooth="yes"/>
      <point x="267" y="-164"/>
      <point x="248" y="-152"/>
      <point x="236" y="-122" type="curve"/>
      <point x="185" y="-142" type="line"/>
      <point x="199" y="-186"/>
      <point x="238" y="-220"/>
    </contour>
  </outline>
</glyph>
<glyph name="ogonekcomb" format="2">
  <unicode hex="0328"/>
  <anchor x="354" y="0" name="_ogonek"/>
  <outline>
    <contour>
      <point x="302" y="-210" type="curve" smooth="yes"/>
      <point x="340" y="-210"/>
      <point x="372" y="-200"/>
      <point x="388" y="-184" type="curve"/>
      <point x="364" y="-128" type="line"/>
      <point x="352" y="-138"/>
      <point x="332" y="-142"/>
      <point x="318" y="-142" type="curve" smooth="yes"/>
      <point x="299" y="-142"/>
      <point x="288" y="-132"/>
      <point x="288" y="-112" type="curve" smooth="yes"/>
      <point x="288" y="-96"/>
      <point x="293" y="-79"/>
      <point x="319" y="-45" type="curve" smooth="yes"/>
      <point x="354" y="0" type="line"/>
      <point x="285" y="10" type="line"/>
      <point x="253" y="-30" type="line" smooth="yes"/>
      <point x="225" y="-65"/>
      <point x="212" y="-96"/>
      <point x="212" y="-130" type="curve" smooth="yes"/>
      <point x="212" y="-180"/>
      <point x="246" y="-210"/>
    </contour>
  </outline>
</glyph>
<glyph name="strokeshortcomb" format="2">
  <unicode hex="0335"/>
  <anchor x="300" y="350" name="_center"/>
  <outline>
    <contour>
      <point x="150" y="316" type="line"/>
      <point x="450" y="316" type="line"/>
      <point x="450" y="384" type="line"/>
      <point x="150" y="384" type="line"/>
    </contour>
  </outline>
</glyph>
<glyph name="strokelongcomb" format="2">
  <unicode hex="0336"/>
  <anchor x="300" y="571" name="_center"/>
  <outline>
    <contour>
      <point x="20" y="531" type="line"/>
      <point x="580" y="531" type="line"/>
      <point x="580" y="611" type="line"/>
      <point x="20" y="611" type="line"/>
    </contour>
  </outline>
</glyph>
<glyph name="slashshortcomb" format="2">
  <unicode hex="0337"/>
  <anchor x="300" y="389" name="_center"/>
  <outline>
    <contour>
      <point x="150" y="296" type="line"/>
      <point x="450" y="416" type="line"/>
      <point x="450" y="482" type="line"/>
      <point x="150" y="362" type="line"/>
    </contour>
  </outline>
</glyph>
<glyph name="slashlongcomb" format="2">
  <unicode hex="0338"/>
  <anchor x="300" y="263" name="_center"/>
  <outline>
    <contour>
      <point x="80" y="-16" type="line"/>
      <point x="152" y="-16" type="line"/>
      <point x="520" y="542" type="line"/>
      <point x="448" y="542" type="line"/>
    </contour>
  </outline>
</glyph>
<glyph name="Lambda" format="2">
  <advance width="600"/>
  <unicode hex="039B"/>
  <outline>
    <contour>
      <point x="26" y="0" type="line"/>
      <point x="114" y="0" type="line"/>
      <point x="300" y="635" type="line"/>
      <point x="486" y="0" type="line"/>
      <point x="574" y="0" type="line"/>
      <point x="358" y="710" type="line"/>
      <point x="242" y="710" type="line"/>
    </contour>
  </outline>
</glyph>
<glyph name="Omega" format="2">
  <advance width="600"/>
  <unicode hex="03A9"/>
  <outline>
    <contour>
      <point x="11" y="0" type="line"/>
      <point x="260" y="0" type="line"/>
      <point x="260" y="84" type="line"/>
      <point x="170" y="85"/>
      <point x="99" y="208"/>
      <point x="99" y="364" type="curve" smooth="yes"/>
      <point x="99" y="527"/>
      <point x="182" y="642"/>
      <point x="300" y="642" type="curve" smooth="yes"/>
      <point x="418" y="642"/>
      <point x="501" y="527"/>
      <point x="501" y="364" type="curve" smooth="yes"/>
      <point x="501" y="208"/>
      <point x="430" y="85"/>
      <point x="340" y="84" type="curve"/>
      <point x="340" y="0" type="line"/>
      <point x="589" y="0" type="line"/>
      <point x="589" y="84" type="line"/>
      <point x="457" y="84" type="line"/>
      <point x="536" y="137"/>
      <point x="591" y="254"/>
      <point x="591" y="364" type="curve" smooth="yes"/>
      <point x="591" y="577"/>
      <point x="471" y="726"/>
      <point x="300" y="726" type="curve" smooth="yes"/>
      <point x="129" y="726"/>
      <point x="9" y="577"/>
      <point x="9" y="364" type="curve" smooth="yes"/>
      <point x="9" y="254"/>
      <point x="64" y="137"/>
      <point x="143" y="84" type="curve"/>
      <point x="11" y="84" type="line"/>
    </contour>
  </outline>
</glyph>
<glyph name="lambda" format="2">
  <advance width="600"/>
  <unicode hex="03BB"/>
  <outline>
    <contour>
      <point x="516" y="0" type="curve" smooth="yes"/>
      <point x="550" y="0" type="line"/>
      <point x="550" y="74" type="line"/>
      <point x="515" y="74" type="line" smooth="yes"/>
      <point x="479" y="74"/>
      <point x="465" y="95"/>
      <point x="454" y="130" type="curve" smooth="yes"/>
      <point x="317" y="576" type="line" smooth="yes"/>
      <point x="287" y="673"/>
      <point x="245" y="710"/>
      <point x="161" y="710" type="curve" smooth="yes"/>
      <point x="105" y="710" type="line"/>
      <point x="105" y="636" type="line"/>
      <point x="168" y="636" type="line" smooth="yes"/>
      <point x="204" y="636"/>
      <point x="219" y="616"/>
      <point x="230" y="580" type="curve" smooth="yes"/>
      <point x="367" y="134" type="line" smooth="yes"/>
      <point x="398" y="34"/>
      <point x="434" y="0"/>
    </contour>
    <contour>
      <point x="59" y="0" type="line"/>
      <point x="147" y="0" type="line"/>
      <point x="326" y="467" type="line"/>
      <point x="267" y="530" type="line"/>
    </contour>
  </outline>
</glyph>
<glyph name="pi" format="2">
  <advance width="600"/>
  <unicode hex="03C0"/>
  <outline>
    <contour>
      <point x="549" y="0" type="curve" smooth="yes"/>
      <point x="580" y="0" type="line"/>
      <point x="580" y="74" type="line"/>
      <point x="548" y="74" type="line" smooth="yes"/>
      <point x="504" y="74"/>
      <point x="480" y="101"/>
      <point x="480" y="146" type="curve" smooth="yes"/>
      <point x="480" y="501" type="line"/>
      <point x="396" y="501" type="line"/>
      <point x="396" y="146" type="line" smooth="yes"/>
      <point x="396" y="58"/>
      <point x="441" y="0"/>
    </contour>
    <contour>
      <point x="123" y="0" type="line"/>
      <point x="207" y="0" type="line"/>
      <point x="207" y="498" type="line"/>
      <point x="123" y="498" type="line"/>
    </contour>
    <contour>
      <point x="16" y="456" type="line"/>
      <point x="582" y="456" type="line"/>
      <point x="582" y="530" type="line"/>
      <point x="16" y="530" type="line"/>
    </contour>
  </outline>
</glyph>
<glyph name="Dje-cy" format="2">
  <advance width="600"/>
  <unicode hex="0402"/>
  <outline>
    <contour>
      <point x="370" y="-16" type="curve" smooth="yes"/>
      <point x="506" y="-16"/>
      <point x="590" y="70"/>
      <point x="590" y="230" type="curve" smooth="yes"/>
      <point x="590" y="390"/>
      <point x="506" y="474"/>
      <point x="372" y="474" type="curve" smooth="yes"/>
      <point x="298" y="474"/>
      <point x="230" y="428"/>
      <point x="208" y="406" type="curve"/>
      <point x="244" y="371" type="line"/>
      <point x="244" y="690" type="line"/>
      <point x="158" y="690" type="line"/>
      <point x="158" y="0" type="line"/>
      <point x="244" y="0" type="line"/>
      <point x="244" y="340" type="line"/>
      <point x="270" y="364"/>
      <point x="320" y="390"/>
      <point x="372" y="390" type="curve" smooth="yes"/>
      <point x="447" y="390"/>
      <point x="500" y="342"/>
      <point x="500" y="228" type="curve" smooth="yes"/>
      <point x="500" y="114"/>
      <point x="447" y="68"/>
      <point x="370" y="68" type="curve" smooth="yes"/>
      <point x="348" y="68"/>
      <point x="322" y="70"/>
      <point x="306" y="72" type="curve"/>
      <point x="306" y="-12" type="line"/>
      <point x="322" y="-14"/>
      <point x="351" y="-16"/>
    </contour>
    <contour>
      <point x="10" y="626" type="line"/>
      <point x="470" y="626" type="line"/>
      <point x="470" y="710" type="line"/>
      <point x="10" y="710" type="line"/>
    </contour>
  </outline>
</glyph>
<glyph name="E-cy" format="2">
  <advance width="600"/>
  <unicode hex="0404"/>
  <anchor x="318" y="0" name="bottom"/>
  <anchor x="303" y="710" name="top"/>
  <outline>
    <contour>
      <point x="111" y="312" type="line"/>
      <point x="441" y="312" type="line"/>
      <point x="441" y="396" type="line"/>
      <point x="111" y="396" type="line"/>
    </contour>
    <component base="C" xOffset="3"/>
  </outline>
</glyph>
<glyph name="Lje-cy" format="2">
  <advance width="600"/>
  <unicode hex="0409"/>
  <outline>
    <contour>
      <point x="10" y="0" type="line"/>
      <point x="37" y="0" type="line" smooth="yes"/>
      <point x="125" y="0"/>
      <point x="160" y="37"/>
      <point x="166" y="147" type="curve" smooth="yes"/>
      <point x="190" y="626" type="line"/>
      <point x="313" y="626" type="line"/>
      <point x="369" y="710" type="line"/>
      <point x="112" y="710" type="line"/>
      <point x="81" y="152" type="line" smooth="yes"/>
      <point x="78" y="99"/>
      <point x="60" y="84"/>
      <point x="24" y="84" type="curve" smooth="yes"/>
      <point x="10" y="84" type="line"/>
    </contour>
    <contour>
      <point x="283" y="0" type="line"/>
      <point x="389" y="0" type="line" smooth="yes"/>
      <point x="507" y="0"/>
      <point x="590" y="80"/>
      <point x="590" y="225" type="curve" smooth="yes"/>
      <point x="590" y="372"/>
      <point x="507" y="454"/>
      <point x="389" y="454" type="curve" smooth="yes"/>
      <point x="369" y="454" type="line"/>
      <point x="369" y="710" type="line"/>
      <point x="283" y="690" type="line"/>
    </contour>
    <contour>
      <point x="369" y="84" type="line"/>
      <point x="369" y="370" type="line"/>
      <point x="389" y="370" type="line" smooth="yes"/>
      <point x="449" y="370"/>
      <point x="500" y="324"/>
      <point x="500" y="225" type="curve" smooth="yes"/>
      <point x="500" y="128"/>
      <point x="449" y="84"/>
      <point x="389" y="84" type="curve" smooth="yes"/>
    </contour>
  </outline>
</glyph>
<glyph name="Nje-cy" format="2">
  <advance width="600"/>
  <unicode hex="040A"/>
  <outline>
    <contour>
      <point x="30" y="0" type="line"/>
      <point x="116" y="0" type="line"/>
      <point x="116" y="349" type="line"/>
      <point x="72" y="315" type="line"/>
      <point x="318" y="315" type="line"/>
      <point x="318" y="399" type="line"/>
      <point x="72" y="399" type="line"/>
      <point x="116" y="365" type="line"/>
      <point x="116" y="710" type="line"/>
      <point x="30" y="710" type="line"/>
    </contour>
    <contour>
      <point x="273" y="0" type="line"/>
      <point x="389" y="0" type="line" smooth="yes"/>
      <point x="507" y="0"/>
      <point x="590" y="70"/>
      <point x="590" y="213" type="curve" smooth="yes"/>
      <point x="590" y="367"/>
      <point x="507" y="428"/>
      <point x="389" y="428" type="curve" smooth="yes"/>
      <point x="359" y="428" type="line"/>
      <point x="359" y="710" type="line"/>
      <point x="273" y="710" type="line"/>
    </contour>
    <contour>
      <point x="359" y="84" type="line"/>
      <point x="359" y="344" type="line"/>
      <point x="389" y="344" type="line" smooth="yes"/>
      <point x="451" y="344"/>
      <point x="500" y="319"/>
      <point x="500" y="213" type="curve" smooth="yes"/>
      <point x="500" y="118"/>
      <point x="451" y="84"/>
      <point x="389" y="84" type="curve" smooth="yes"/>
    </contour>
  </outline>
</glyph>
<glyph name="Tshe-cy" format="2">
  <advance width="600"/>
  <unicode hex="040B"/>
  <outline>
    <contour>
      <point x="150" y="0" type="line"/>
      <point x="236" y="0" type="line"/>
      <point x="236" y="326" type="line"/>
      <point x="276" y="356"/>
      <point x="330" y="390"/>
      <point x="390" y="390" type="curve" smooth="yes"/>
      <point x="447" y="390"/>
      <point x="494" y="358"/>
      <point x="494" y="278" type="curve" smooth="yes"/>
      <point x="494" y="0" type="line"/>
      <point x="580" y="0" type="line"/>
      <point x="580" y="284" type="line" smooth="yes"/>
      <point x="580" y="405"/>
      <point x="500" y="474"/>
      <point x="394" y="474" type="curve" smooth="yes"/>
      <point x="310" y="474"/>
      <point x="240" y="426"/>
      <point x="202" y="388" type="curve"/>
      <point x="236" y="357" type="line"/>
      <point x="236" y="660" type="line"/>
      <point x="150" y="660" type="line"/>
    </contour>
    <contour>
      <point x="0" y="626" type="line"/>
      <point x="520" y="626" type="line"/>
      <point x="520" y="710" type="line"/>
      <point x="0" y="710" type="line"/>
    </contour>
  </outline>
</glyph>
<glyph name="Dzhe-cy" format="2">
  <advance width="600"/>
  <unicode hex="040F"/>
  <outline>
    <contour>
      <point x="60" y="0" type="line"/>
      <point x="540" y="0" type="line"/>
      <point x="540" y="710" type="line"/>
      <point x="454" y="710" type="line"/>
      <point x="454" y="84" type="line"/>
      <point x="146" y="84" type="line"/>
      <point x="146" y="710" type="line"/>
      <point x="60" y="710" type="line"/>
    </contour>
    <contour>
      <point x="260" y="-150" type="line"/>
      <point x="340" y="-150" type="line"/>
      <point x="340" y="32" type="line"/>
      <point x="260" y="32" type="line"/>
    </contour>
  </outline>
</glyph>
<glyph name="Ge-cy" format="2">
  <advance width="600"/>
  <unicode hex="0413"/>
  <anchor x="326" y="710" name="top"/>
  <outline>
    <contour>
      <point x="100" y="0" type="line"/>
      <point x="186" y="0" type="line"/>
      <point x="186" y="626" type="line"/>
      <point x="550" y="626" type="line"/>
      <point x="550" y="710" type="line"/>
      <point x="100" y="710" type="line"/>
    </contour>
  </outline>
</glyph>
<glyph name="De-cy" format="2">
  <advance width="600"/>
  <unicode hex="0414"/>
  <outline>
    <contour>
      <point x="20" y="-150" type="line"/>
      <point x="106" y="-150" type="line"/>
      <point x="106" y="0" type="line"/>
      <point x="494" y="0" type="line"/>
      <point x="494" y="-150" type="line"/>
      <point x="580" y="-150" type="line"/>
      <point x="580" y="84" type="line"/>
      <point x="504" y="84" type="line"/>
      <point x="504" y="710" type="line"/>
      <point x="194" y="710" type="line"/>
      <point x="144" y="214" type="line" smooth="yes"/>
      <point x="138" y="150"/>
      <point x="126" y="120"/>
      <point x="96" y="84" type="curve"/>
      <point x="20" y="84" type="line"/>
    </contour>
    <contour>
      <point x="188" y="84" type="line"/>
      <point x="208" y="108"/>
      <point x="224" y="146"/>
      <point x="230" y="206" type="curve" smooth="yes"/>
      <point x="274" y="626" type="line"/>
      <point x="418" y="626" type="line"/>
      <point x="418" y="84" type="line"/>
    </contour>
  </outline>
</glyph>
<glyph name="Zhe-cy" format="2">
  <advance width="600"/>
  <unicode hex="0416"/>
  <outline>
    <contour>
      <point x="496" y="0" type="line"/>
      <point x="592" y="0" type="line"/>
      <point x="427" y="355" type="line"/>
      <point x="584" y="710" type="line"/>
      <point x="488" y="710" type="line"/>
      <point x="337" y="355" type="line"/>
    </contour>
    <contour>
      <point x="257" y="0" type="line"/>
      <point x="343" y="0" type="line"/>
      <point x="343" y="710" type="line"/>
      <point x="257" y="710" type="line"/>
    </contour>
    <contour>
      <point x="104" y="0" type="line"/>
      <point x="263" y="355" type="line"/>
      <point x="112" y="710" type="line"/>
      <point x="16" y="710" type="line"/>
      <point x="173" y="355" type="line"/>
      <point x="8" y="0" type="line"/>
    </contour>
  </outline>
</glyph>
<glyph name="Ze-cy" format="2">
  <advance width="600"/>
  <unicode hex="0417"/>
  <outline>
    <contour>
      <point x="304" y="-16" type="curve" smooth="yes"/>
      <point x="469" y="-16"/>
      <point x="550" y="77"/>
      <point x="550" y="190" type="curve" smooth="yes"/>
      <point x="550" y="290"/>
      <point x="496" y="346"/>
      <point x="378" y="368" type="curve"/>
      <point x="378" y="350" type="line"/>
      <point x="498" y="366"/>
      <point x="548" y="420"/>
      <point x="548" y="520" type="curve" smooth="yes"/>
      <point x="548" y="635"/>
      <point x="452" y="726"/>
      <point x="304" y="726" type="curve" smooth="yes"/>
      <point x="142" y="726"/>
      <point x="61" y="634"/>
      <point x="50" y="525" type="curve"/>
      <point x="140" y="519" type="line"/>
      <point x="149" y="596"/>
      <point x="192" y="642"/>
      <point x="304" y="642" type="curve" smooth="yes"/>
      <point x="406" y="642"/>
      <point x="458" y="589"/>
      <point x="458" y="517" type="curve" smooth="yes"/>
      <point x="458" y="427"/>
      <point x="408" y="402"/>
      <point x="324" y="402" type="curve" smooth="yes"/>
      <point x="200" y="402" type="line"/>
      <point x="200" y="318" type="line"/>
      <point x="324" y="318" type="line" smooth="yes"/>
      <point x="406" y="318"/>
      <point x="460" y="277"/>
      <point x="460" y="194" type="curve" smooth="yes"/>
      <point x="460" y="110"/>
      <point x="399" y="68"/>
      <point x="304" y="68" type="curve" smooth="yes"/>
      <point x="195" y="68"/>
      <point x="147" y="115"/>
      <point x="140" y="189" type="curve"/>
      <point x="50" y="183" type="line"/>
      <point x="56" y="69"/>
      <point x="147" y="-16"/>
    </contour>
  </outline>
</glyph>
<glyph name="Ii-cy" format="2">
  <advance width="600"/>
  <unicode hex="0418"/>
  <anchor x="580" y="0" name="bottomright"/>
  <anchor x="300" y="710" name="top"/>
  <outline>
    <contour>
      <point x="70" y="0" type="line"/>
      <point x="192" y="0" type="line"/>
      <point x="459" y="649" type="line"/>
      <point x="444" y="653" type="line"/>
      <point x="444" y="0" type="line"/>
      <point x="530" y="0" type="line"/>
      <point x="530" y="710" type="line"/>
      <point x="408" y="710" type="line"/>
      <point x="141" y="61" type="line"/>
      <point x="156" y="58" type="line"/>
      <point x="156" y="710" type="line"/>
      <point x="70" y="710" type="line"/>
    </contour>
  </outline>
</glyph>
<glyph name="Ka-cy" format="2">
  <advance width="600"/>
  <unicode hex="041A"/>
  <anchor x="294" y="710" name="top"/>
  <outline>
    <contour>
      <point x="454" y="0" type="line"/>
      <point x="560" y="0" type="line"/>
      <point x="232" y="355" type="line"/>
      <point x="550" y="710" type="line"/>
      <point x="444" y="710" type="line"/>
      <point x="136" y="355" type="line"/>
    </contour>
    <contour>
      <point x="60" y="0" type="line"/>
      <point x="146" y="0" type="line"/>
      <point x="146" y="710" type="line"/>
      <point x="60" y="710" type="line"/>
    </contour>
  </outline>
</glyph>
<glyph name="El-cy" format="2">
  <advance width="600"/>
  <unicode hex="041B"/>
  <outline>
    <contour>
      <point x="30" y="0" type="line"/>
      <point x="67" y="0" type="line" smooth="yes"/>
      <point x="155" y="0"/>
      <point x="188" y="37"/>
      <point x="200" y="147" type="curve" smooth="yes"/>
      <point x="251" y="626" type="line"/>
      <point x="454" y="626" type="line"/>
      <point x="454" y="0" type="line"/>
      <point x="540" y="0" type="line"/>
      <point x="540" y="710" type="line"/>
      <point x="173" y="710" type="line"/>
      <point x="115" y="152" type="line" smooth="yes"/>
      <point x="109" y="99"/>
      <point x="90" y="84"/>
      <point x="54" y="84" type="curve" smooth="yes"/>
      <point x="30" y="84" type="line"/>
    </contour>
  </outline>
</glyph>
<glyph name="Pe-cy" format="2">
  <advance width="600"/>
  <unicode hex="041F"/>
  <outline>
    <contour>
      <point x="60" y="0" type="line"/>
      <point x="146" y="0" type="line"/>
      <point x="146" y="626" type="line"/>
      <point x="454" y="626" type="line"/>
      <point x="454" y="0" type="line"/>
      <point x="540" y="0" type="line"/>
      <point x="540" y="710" type="line"/>
      <point x="60" y="710" type="line"/>
    </contour>
  </outline>
</glyph>
<glyph name="U-cy" format="2">
  <advance width="600"/>
  <unicode hex="0423"/>
  <anchor x="300" y="710" name="top"/>
  <outline>
    <contour>
      <point x="94" y="0" type="line"/>
      <point x="202" y="0" type="line" smooth="yes"/>
      <point x="266" y="0"/>
      <point x="302" y="24"/>
      <point x="324" y="83" type="curve" smooth="yes"/>
      <point x="560" y="710" type="line"/>
      <point x="467" y="710" type="line"/>
      <point x="246" y="122" type="line" smooth="yes"/>
      <point x="234" y="90"/>
      <point x="220" y="84"/>
      <point x="195" y="84" type="curve" smooth="yes"/>
      <point x="94" y="84" type="line"/>
    </contour>
    <contour>
      <point x="244" y="190" type="line"/>
      <point x="289" y="190" type="line"/>
      <point x="307" y="255" type="line"/>
      <point x="133" y="710" type="line"/>
      <point x="40" y="710" type="line"/>
    </contour>
  </outline>
</glyph>
<glyph name="Ef-cy" format="2">
  <advance width="600"/>
  <unicode hex="0424"/>
  <outline>
    <contour>
      <point x="258" y="73" type="curve" smooth="yes"/>
      <point x="342" y="73" type="line" smooth="yes"/>
      <point x="498" y="73"/>
      <point x="588" y="185"/>
      <point x="588" y="355" type="curve" smooth="yes"/>
      <point x="588" y="525"/>
      <point x="498" y="637"/>
      <point x="342" y="637" type="curve" smooth="yes"/>
      <point x="258" y="637" type="line" smooth="yes"/>
      <point x="102" y="637"/>
      <point x="12" y="525"/>
      <point x="12" y="355" type="curve" smooth="yes"/>
      <point x="12" y="185"/>
      <point x="102" y="73"/>
    </contour>
    <contour>
      <point x="342" y="157" type="curve" smooth="yes"/>
      <point x="258" y="157" type="line" smooth="yes"/>
      <point x="152" y="157"/>
      <point x="102" y="225"/>
      <point x="102" y="355" type="curve" smooth="yes"/>
      <point x="102" y="485"/>
      <point x="151" y="553"/>
      <point x="258" y="553" type="curve" smooth="yes"/>
      <point x="342" y="553" type="line" smooth="yes"/>
      <point x="448" y="553"/>
      <point x="498" y="485"/>
      <point x="498" y="355" type="curve" smooth="yes"/>
      <point x="498" y="225"/>
      <point x="448" y="157"/>
    </contour>
    <contour>
      <point x="258" y="-16" type="line"/>
      <point x="342" y="-16" type="line"/>
      <point x="342" y="726" type="line"/>
      <point x="258" y="726" type="line"/>
    </contour>
  </outline>
</glyph>
<glyph name="Tse-cy" format="2">
  <advance width="600"/>
  <unicode hex="0426"/>
  <outline>
    <contour>
      <point x="36" y="0" type="line"/>
      <point x="506" y="0" type="line"/>
      <point x="506" y="710" type="line"/>
      <point x="420" y="710" type="line"/>
      <point x="420" y="84" type="line"/>
      <point x="122" y="84" type="line"/>
      <point x="122" y="710" type="line"/>
      <point x="36" y="710" type="line"/>
    </contour>
    <contour>
      <point x="496" y="-150" type="line"/>
      <point x="582" y="-150" type="line"/>
      <point x="582" y="84" type="line"/>
      <point x="428" y="84" type="line"/>
      <point x="428" y="0" type="line"/>
      <point x="496" y="0" type="line"/>
    </contour>
  </outline>
</glyph>
<glyph name="Che-cy" format="2">
  <advance width="600"/>
  <unicode hex="0427"/>
  <outline>
    <contour>
      <point x="444" y="0" type="line"/>
      <point x="530" y="0" type="line"/>
      <point x="530" y="710" type="line"/>
      <point x="444" y="710" type="line"/>
      <point x="444" y="392" type="line"/>
      <point x="404" y="356"/>
      <point x="340" y="320"/>
      <point x="260" y="320" type="curve" smooth="yes"/>
      <point x="183" y="320"/>
      <point x="136" y="352"/>
      <point x="136" y="452" type="curve" smooth="yes"/>
      <point x="136" y="710" type="line"/>
      <point x="50" y="710" type="line"/>
      <point x="50" y="446" type="line" smooth="yes"/>
      <point x="50" y="305"/>
      <point x="130" y="236"/>
      <point x="256" y="236" type="curve" smooth="yes"/>
      <point x="360" y="236"/>
      <point x="440" y="286"/>
      <point x="478" y="330" type="curve"/>
      <point x="444" y="361" type="line"/>
    </contour>
  </outline>
</glyph>
<glyph name="Sha-cy" format="2">
  <advance width="600"/>
  <unicode hex="0428"/>
  <outline>
    <contour>
      <point x="40" y="0" type="line"/>
      <point x="560" y="0" type="line"/>
      <point x="560" y="710" type="line"/>
      <point x="474" y="710" type="line"/>
      <point x="474" y="84" type="line"/>
      <point x="343" y="84" type="line"/>
      <point x="343" y="710" type="line"/>
      <point x="257" y="710" type="line"/>
      <point x="257" y="84" type="line"/>
      <point x="126" y="84" type="line"/>
      <point x="126" y="710" type="line"/>
      <point x="40" y="710" type="line"/>
    </contour>
  </outline>
</glyph>
<glyph name="Shcha-cy" format="2">
  <advance width="600"/>
  <unicode hex="0429"/>
  <outline>
    <contour>
      <point x="18" y="0" type="line"/>
      <point x="518" y="0" type="line"/>
      <point x="518" y="710" type="line"/>
      <point x="432" y="710" type="line"/>
      <point x="432" y="84" type="line"/>
      <point x="311" y="84" type="line"/>
      <point x="311" y="710" type="line"/>
      <point x="225" y="710" type="line"/>
      <point x="225" y="84" type="line"/>
      <point x="104" y="84" type="line"/>
      <point x="104" y="710" type="line"/>
      <point x="18" y="710" type="line"/>
    </contour>
    <contour>
      <point x="504" y="-150" type="line"/>
      <point x="590" y="-150" type="line"/>
      <point x="590" y="84" type="line"/>
      <point x="436" y="84" type="line"/>
      <point x="436" y="0" type="line"/>
      <point x="504" y="0" type="line"/>
    </contour>
  </outline>
</glyph>
<glyph name="Hardsign-cy" format="2">
  <advance width="600"/>
  <unicode hex="042A"/>
  <outline>
    <contour>
      <point x="123" y="0" type="line"/>
      <point x="319" y="0" type="line" smooth="yes"/>
      <point x="477" y="0"/>
      <point x="570" y="80"/>
      <point x="570" y="225" type="curve" smooth="yes"/>
      <point x="570" y="372"/>
      <point x="477" y="454"/>
      <point x="319" y="454" type="curve" smooth="yes"/>
      <point x="209" y="454" type="line"/>
      <point x="209" y="710" type="line"/>
      <point x="20" y="710" type="line"/>
      <point x="20" y="626" type="line"/>
      <point x="164" y="626" type="line"/>
      <point x="123" y="667" type="line"/>
    </contour>
    <contour>
      <point x="209" y="84" type="line"/>
      <point x="209" y="370" type="line"/>
      <point x="319" y="370" type="line" smooth="yes"/>
      <point x="426" y="370"/>
      <point x="480" y="324"/>
      <point x="480" y="225" type="curve" smooth="yes"/>
      <point x="480" y="128"/>
      <point x="426" y="84"/>
      <point x="319" y="84" type="curve" smooth="yes"/>
    </contour>
  </outline>
</glyph>
<glyph name="Yeru-cy" format="2">
  <advance width="600"/>
  <unicode hex="042B"/>
  <outline>
    <contour>
      <point x="30" y="0" type="line"/>
      <point x="176" y="0" type="line" smooth="yes"/>
      <point x="334" y="0"/>
      <point x="427" y="80"/>
      <point x="427" y="225" type="curve" smooth="yes"/>
      <point x="427" y="372"/>
      <point x="334" y="454"/>
      <point x="176" y="454" type="curve" smooth="yes"/>
      <point x="116" y="454" type="line"/>
      <point x="116" y="710" type="line"/>
      <point x="30" y="710" type="line"/>
    </contour>
    <contour>
      <point x="116" y="84" type="line"/>
      <point x="116" y="370" type="line"/>
      <point x="176" y="370" type="line" smooth="yes"/>
      <point x="283" y="370"/>
      <point x="337" y="324"/>
      <point x="337" y="225" type="curve" smooth="yes"/>
      <point x="337" y="128"/>
      <point x="283" y="84"/>
      <point x="176" y="84" type="curve" smooth="yes"/>
    </contour>
    <contour>
      <point x="484" y="0" type="line"/>
      <point x="570" y="0" type="line"/>
      <point x="570" y="710" type="line"/>
      <point x="484" y="710" type="line"/>
    </contour>
  </outline>
</glyph>
<glyph name="Softsign-cy" format="2">
  <advance width="600"/>
  <unicode hex="042C"/>
  <outline>
    <contour>
      <point x="80" y="0" type="line"/>
      <point x="309" y="0" type="line" smooth="yes"/>
      <point x="467" y="0"/>
      <point x="560" y="80"/>
      <point x="560" y="225" type="curve" smooth="yes"/>
      <point x="560" y="372"/>
      <point x="467" y="454"/>
      <point x="309" y="454" type="curve" smooth="yes"/>
      <point x="166" y="454" type="line"/>
      <point x="166" y="710" type="line"/>
      <point x="80" y="710" type="line"/>
    </contour>
    <contour>
      <point x="166" y="84" type="line"/>
      <point x="166" y="370" type="line"/>
      <point x="309" y="370" type="line" smooth="yes"/>
      <point x="416" y="370"/>
      <point x="470" y="324"/>
      <point x="470" y="225" type="curve" smooth="yes"/>
      <point x="470" y="128"/>
      <point x="416" y="84"/>
      <point x="309" y="84" type="curve" smooth="yes"/>
    </contour>
  </outline>
</glyph>
<glyph name="Yu-cy" format="2">
  <advance width="600"/>
  <unicode hex="042E"/>
  <outline>
    <contour>
      <point x="386" y="-16" type="curve" smooth="yes"/>
      <point x="516" y="-16"/>
      <point x="580" y="97"/>
      <point x="580" y="354" type="curve" smooth="yes"/>
      <point x="580" y="613"/>
      <point x="516" y="726"/>
      <point x="386" y="726" type="curve" smooth="yes"/>
      <point x="256" y="726"/>
      <point x="192" y="613"/>
      <point x="192" y="354" type="curve" smooth="yes"/>
      <point x="192" y="97"/>
      <point x="256" y="-16"/>
    </contour>
    <contour>
      <point x="20" y="0" type="line"/>
      <point x="106" y="0" type="line"/>
      <point x="106" y="710" type="line"/>
      <point x="20" y="710" type="line"/>
    </contour>
    <contour>
      <point x="78" y="315" type="line"/>
      <point x="267" y="315" type="line"/>
      <point x="267" y="399" type="line"/>
      <point x="78" y="399" type="line"/>
    </contour>
    <contour>
      <point x="386" y="68" type="curve" smooth="yes"/>
      <point x="316" y="68"/>
      <point x="282" y="137"/>
      <point x="282" y="354" type="curve" smooth="yes"/>
      <point x="282" y="572"/>
      <point x="316" y="642"/>
      <point x="386" y="642" type="curve" smooth="yes"/>
      <point x="456" y="642"/>
      <point x="490" y="572"/>
      <point x="490" y="354" type="curve" smooth="yes"/>
      <point x="490" y="137"/>
      <point x="456" y="68"/>
    </contour>
  </outline>
</glyph>
<glyph name="Ya-cy" format="2">
  <advance width="600"/>
  <unicode hex="042F"/>
  <anchor x="332" y="0" name="bottom"/>
  <anchor x="325" y="710" name="top"/>
  <outline>
    <contour>
      <point x="454" y="0" type="line"/>
      <point x="540" y="0" type="line"/>
      <point x="540" y="710" type="line"/>
      <point x="315" y="710" type="line" smooth="yes"/>
      <point x="157" y="710"/>
      <point x="64" y="642"/>
      <point x="64" y="494" type="curve" smooth="yes"/>
      <point x="64" y="346"/>
      <point x="157" y="282"/>
      <point x="315" y="282" type="curve" smooth="yes"/>
      <point x="454" y="282" type="line"/>
    </contour>
    <contour>
      <point x="60" y="0" type="line"/>
      <point x="155" y="0" type="line"/>
      <point x="336" y="290" type="line"/>
      <point x="248" y="303" type="line"/>
    </contour>
    <contour>
      <point x="315" y="366" type="line" smooth="yes"/>
      <point x="211" y="366"/>
      <point x="154" y="404"/>
      <point x="154" y="496" type="curve" smooth="yes"/>
      <point x="154" y="588"/>
      <point x="211" y="626"/>
      <point x="315" y="626" type="curve" smooth="yes"/>
      <point x="454" y="626" type="line"/>
      <point x="454" y="366" type="line"/>
    </contour>
  </outline>
</glyph>
<glyph name="be-cy" format="2">
  <advance width="600"/>
  <unicode hex="0431"/>
  <outline>
    <contour>
      <point x="301" y="-12" type="curve" smooth="yes"/>
      <point x="452" y="-12"/>
      <point x="534" y="92"/>
      <point x="534" y="236" type="curve" smooth="yes"/>
      <point x="534" y="400"/>
      <point x="450" y="488"/>
      <point x="315" y="488" type="curve" smooth="yes"/>
      <point x="230" y="488"/>
      <point x="159" y="440"/>
      <point x="143" y="362" type="curve"/>
      <point x="149" y="358" type="line"/>
      <point x="149" y="508"/>
      <point x="204" y="569"/>
      <point x="344" y="590" type="curve" smooth="yes"/>
      <point x="438" y="604"/>
      <point x="470" y="624"/>
      <point x="480" y="710" type="curve"/>
      <point x="398" y="710" type="line"/>
      <point x="394" y="680"/>
      <point x="384" y="671"/>
      <point x="340" y="662" type="curve" smooth="yes"/>
      <point x="131" y="619"/>
      <point x="66" y="550"/>
      <point x="66" y="286" type="curve" smooth="yes"/>
      <point x="66" y="92"/>
      <point x="150" y="-12"/>
    </contour>
    <contour>
      <point x="301" y="68" type="curve" smooth="yes"/>
      <point x="212" y="68"/>
      <point x="156" y="118"/>
      <point x="156" y="236" type="curve" smooth="yes"/>
      <point x="156" y="342"/>
      <point x="216" y="408"/>
      <point x="301" y="408" type="curve" smooth="yes"/>
      <point x="390" y="408"/>
      <point x="446" y="352"/>
      <point x="446" y="236" type="curve" smooth="yes"/>
      <point x="446" y="118"/>
      <point x="390" y="68"/>
    </contour>
  </outline>
</glyph>
<glyph name="ve-cy" format="2">
  <advance width="600"/>
  <unicode hex="0432"/>
  <outline>
    <contour>
      <point x="90" y="0" type="line"/>
      <point x="349" y="0" type="line" smooth="yes"/>
      <point x="467" y="0"/>
      <point x="530" y="47"/>
      <point x="530" y="144" type="curve" smooth="yes"/>
      <point x="530" y="225"/>
      <point x="467" y="278"/>
      <point x="374" y="278" type="curve"/>
      <point x="374" y="266" type="line"/>
      <point x="454" y="266"/>
      <point x="508" y="316"/>
      <point x="508" y="384" type="curve" smooth="yes"/>
      <point x="508" y="474"/>
      <point x="444" y="530"/>
      <point x="332" y="530" type="curve" smooth="yes"/>
      <point x="90" y="530" type="line"/>
    </contour>
    <contour>
      <point x="174" y="74" type="line"/>
      <point x="174" y="232" type="line"/>
      <point x="339" y="232" type="line" smooth="yes"/>
      <point x="409" y="232"/>
      <point x="442" y="201"/>
      <point x="442" y="150" type="curve" smooth="yes"/>
      <point x="442" y="96"/>
      <point x="412" y="74"/>
      <point x="349" y="74" type="curve" smooth="yes"/>
    </contour>
    <contour>
      <point x="174" y="306" type="line"/>
      <point x="174" y="456" type="line"/>
      <point x="332" y="456" type="line" smooth="yes"/>
      <point x="389" y="456"/>
      <point x="420" y="429"/>
      <point x="420" y="384" type="curve" smooth="yes"/>
      <point x="420" y="337"/>
      <point x="391" y="306"/>
      <point x="320" y="306" type="curve" smooth="yes"/>
    </contour>
  </outline>
</glyph>
<glyph name="ge-cy" format="2">
  <advance width="600"/>
  <unicode hex="0433"/>
  <anchor x="335" y="530" name="top"/>
  <outline>
    <contour>
      <point x="130" y="0" type="line"/>
      <point x="214" y="0" type="line"/>
      <point x="214" y="490" type="line"/>
      <point x="173" y="456" type="line"/>
      <point x="520" y="456" type="line"/>
      <point x="520" y="530" type="line"/>
      <point x="130" y="530" type="line"/>
    </contour>
  </outline>
</glyph>
<glyph name="de-cy" format="2">
  <advance width="600"/>
  <unicode hex="0434"/>
  <outline>
    <contour>
      <point x="70" y="60" type="curve"/>
      <point x="140" y="32" type="line"/>
      <point x="164" y="52"/>
      <point x="222" y="81"/>
      <point x="240" y="232" type="curve" smooth="yes"/>
      <point x="266" y="456" type="line"/>
      <point x="412" y="456" type="line"/>
      <point x="412" y="30" type="line"/>
      <point x="496" y="30" type="line"/>
      <point x="496" y="530" type="line"/>
      <point x="196" y="530" type="line"/>
      <point x="164" y="240" type="line" smooth="yes"/>
      <point x="150" y="113"/>
      <point x="108" y="78"/>
    </contour>
    <contour>
      <point x="30" y="-110" type="line"/>
      <point x="114" y="-110" type="line"/>
      <point x="114" y="0" type="line"/>
      <point x="486" y="0" type="line"/>
      <point x="486" y="-110" type="line"/>
      <point x="570" y="-110" type="line"/>
      <point x="570" y="74" type="line"/>
      <point x="30" y="74" type="line"/>
    </contour>
  </outline>
</glyph>
<glyph name="zhe-cy" format="2">
  <advance width="600"/>
  <unicode hex="0436"/>
  <outline>
    <contour>
      <point x="258" y="0" type="line"/>
      <point x="342" y="0" type="line"/>
      <point x="342" y="530" type="line"/>
      <point x="258" y="530" type="line"/>
    </contour>
    <contour>
      <point x="488" y="0" type="line"/>
      <point x="580" y="0" type="line"/>
      <point x="414" y="265" type="line"/>
      <point x="568" y="530" type="line"/>
      <point x="476" y="530" type="line"/>
      <point x="332" y="265" type="line"/>
    </contour>
    <contour>
      <point x="112" y="0" type="line"/>
      <point x="268" y="265" type="line"/>
      <point x="124" y="530" type="line"/>
      <point x="32" y="530" type="line"/>
      <point x="186" y="265" type="line"/>
      <point x="20" y="0" type="line"/>
    </contour>
  </outline>
</glyph>
<glyph name="ze-cy" format="2">
  <advance width="600"/>
  <unicode hex="0437"/>
  <anchor x="300" y="0" name="bottom"/>
  <anchor x="300" y="530" name="top"/>
  <outline>
    <contour>
      <point x="300" y="-12" type="curve" smooth="yes"/>
      <point x="438" y="-12"/>
      <point x="518" y="55"/>
      <point x="518" y="148" type="curve" smooth="yes"/>
      <point x="518" y="226"/>
      <point x="460" y="272"/>
      <point x="374" y="280" type="curve"/>
      <point x="374" y="264" type="line"/>
      <point x="464" y="276"/>
      <point x="510" y="309"/>
      <point x="510" y="383" type="curve" smooth="yes"/>
      <point x="510" y="472"/>
      <point x="434" y="542"/>
      <point x="302" y="542" type="curve" smooth="yes"/>
      <point x="174" y="542"/>
      <point x="98" y="486"/>
      <point x="84" y="398" type="curve"/>
      <point x="172" y="392" type="line"/>
      <point x="181" y="434"/>
      <point x="212" y="464"/>
      <point x="300" y="464" type="curve" smooth="yes"/>
      <point x="390" y="464"/>
      <point x="422" y="431"/>
      <point x="422" y="380" type="curve" smooth="yes"/>
      <point x="422" y="333"/>
      <point x="395" y="308"/>
      <point x="328" y="308" type="curve" smooth="yes"/>
      <point x="230" y="308" type="line"/>
      <point x="230" y="234" type="line"/>
      <point x="326" y="234" type="line" smooth="yes"/>
      <point x="398" y="234"/>
      <point x="430" y="202"/>
      <point x="430" y="152" type="curve" smooth="yes"/>
      <point x="430" y="94"/>
      <point x="390" y="66"/>
      <point x="300" y="66" type="curve" smooth="yes"/>
      <point x="208" y="66"/>
      <point x="178" y="100"/>
      <point x="170" y="158" type="curve"/>
      <point x="82" y="154" type="line"/>
      <point x="96" y="54"/>
      <point x="170" y="-12"/>
    </contour>
  </outline>
</glyph>
<glyph name="ii-cy" format="2">
  <advance width="600"/>
  <unicode hex="0438"/>
  <anchor x="301" y="530" name="top"/>
  <outline>
    <contour>
      <point x="80" y="0" type="line"/>
      <point x="170" y="0" type="line"/>
      <point x="458" y="436" type="line"/>
      <point x="436" y="443" type="line"/>
      <point x="436" y="0" type="line"/>
      <point x="520" y="0" type="line"/>
      <point x="520" y="530" type="line"/>
      <point x="430" y="530" type="line"/>
      <point x="142" y="94" type="line"/>
      <point x="164" y="88" type="line"/>
      <point x="164" y="530" type="line"/>
      <point x="80" y="530" type="line"/>
    </contour>
  </outline>
</glyph>
<glyph name="ka-cy" format="2">
  <advance width="600"/>
  <unicode hex="043A"/>
  <anchor x="280" y="0" name="bottom"/>
  <anchor x="280" y="530" name="top"/>
  <outline>
    <contour>
      <point x="414" y="0" type="line"/>
      <point x="520" y="0" type="line"/>
      <point x="250" y="267" type="line"/>
      <point x="508" y="530" type="line"/>
      <point x="402" y="530" type="line"/>
      <point x="152" y="265" type="line"/>
    </contour>
    <contour>
      <point x="80" y="0" type="line"/>
      <point x="164" y="0" type="line"/>
      <point x="164" y="530" type="line"/>
      <point x="80" y="530" type="line"/>
    </contour>
  </outline>
</glyph>
<glyph name="el-cy" format="2">
  <advance width="600"/>
  <unicode hex="043B"/>
  <anchor x="300" y="0" name="bottom"/>
  <outline>
    <contour>
      <point x="60" y="-4" type="line"/>
      <point x="90" y="-4" type="line" smooth="yes"/>
      <point x="175" y="-4"/>
      <point x="199" y="38"/>
      <point x="208" y="116" type="curve" smooth="yes"/>
      <point x="246" y="456" type="line"/>
      <point x="456" y="456" type="line"/>
      <point x="456" y="0" type="line"/>
      <point x="540" y="0" type="line"/>
      <point x="540" y="530" type="line"/>
      <point x="174" y="530" type="line"/>
      <point x="130" y="126" type="line" smooth="yes"/>
      <point x="125" y="82"/>
      <point x="110" y="70"/>
      <point x="84" y="70" type="curve" smooth="yes"/>
      <point x="60" y="70" type="line"/>
    </contour>
  </outline>
</glyph>
<glyph name="em-cy" format="2">
  <advance width="600"/>
  <unicode hex="043C"/>
  <outline>
    <contour>
      <point x="30" y="0" type="line"/>
      <point x="114" y="0" type="line"/>
      <point x="114" y="421" type="line"/>
      <point x="100" y="418" type="line"/>
      <point x="254" y="0" type="line"/>
      <point x="346" y="0" type="line"/>
      <point x="500" y="418" type="line"/>
      <point x="486" y="421" type="line"/>
      <point x="486" y="0" type="line"/>
      <point x="570" y="0" type="line"/>
      <point x="570" y="530" type="line"/>
      <point x="462" y="530" type="line"/>
      <point x="286" y="50" type="line"/>
      <point x="314" y="50" type="line"/>
      <point x="138" y="530" type="line"/>
      <point x="30" y="530" type="line"/>
    </contour>
  </outline>
</glyph>
<glyph name="en-cy" format="2">
  <advance width="600"/>
  <unicode hex="043D"/>
  <outline>
    <contour>
      <point x="90" y="0" type="line"/>
      <point x="174" y="0" type="line"/>
      <point x="174" y="530" type="line"/>
      <point x="90" y="530" type="line"/>
    </contour>
    <contour>
      <point x="113" y="240" type="line"/>
      <point x="488" y="240" type="line"/>
      <point x="488" y="314" type="line"/>
      <point x="113" y="314" type="line"/>
    </contour>
    <contour>
      <point x="426" y="0" type="line"/>
      <point x="510" y="0" type="line"/>
      <point x="510" y="530" type="line"/>
      <point x="426" y="530" type="line"/>
    </contour>
  </outline>
</glyph>
<glyph name="te-cy" format="2">
  <advance width="600"/>
  <unicode hex="0442"/>
  <outline>
    <contour>
      <point x="258" y="0" type="line"/>
      <point x="342" y="0" type="line"/>
      <point x="342" y="456" type="line"/>
      <point x="534" y="456" type="line"/>
      <point x="534" y="530" type="line"/>
      <point x="66" y="530" type="line"/>
      <point x="66" y="456" type="line"/>
      <point x="258" y="456" type="line"/>
    </contour>
  </outline>
</glyph>
<glyph name="ef-cy" format="2">
  <advance width="600"/>
  <unicode hex="0444"/>
  <outline>
    <contour>
      <point x="258" y="-150" type="line"/>
      <point x="342" y="-150" type="line"/>
      <point x="342" y="0" type="line"/>
      <point x="476" y="0"/>
      <point x="580" y="91"/>
      <point x="580" y="265" type="curve" smooth="yes"/>
      <point x="580" y="439"/>
      <point x="476" y="530"/>
      <point x="342" y="530" type="curve"/>
      <point x="342" y="710" type="line"/>
      <point x="258" y="710" type="line"/>
      <point x="258" y="530" type="line"/>
      <point x="124" y="530"/>
      <point x="20" y="439"/>
      <point x="20" y="265" type="curve" smooth="yes"/>
      <point x="20" y="91"/>
      <point x="124" y="0"/>
      <point x="258" y="0" type="curve"/>
    </contour>
    <contour>
      <point x="258" y="84" type="line"/>
      <point x="172" y="84"/>
      <point x="110" y="137"/>
      <point x="110" y="265" type="curve" smooth="yes"/>
      <point x="110" y="393"/>
      <point x="172" y="446"/>
      <point x="258" y="446" type="curve"/>
    </contour>
    <contour>
      <point x="342" y="84" type="curve"/>
      <point x="342" y="446" type="line"/>
      <point x="428" y="446"/>
      <point x="490" y="393"/>
      <point x="490" y="265" type="curve" smooth="yes"/>
      <point x="490" y="137"/>
      <point x="428" y="84"/>
    </contour>
  </outline>
</glyph>
<glyph name="tse-cy" format="2">
  <advance width="600"/>
  <unicode hex="0446"/>
  <outline>
    <contour>
      <point x="50" y="0" type="line"/>
      <point x="470" y="0" type="line"/>
      <point x="470" y="530" type="line"/>
      <point x="386" y="530" type="line"/>
      <point x="386" y="74" type="line"/>
      <point x="134" y="74" type="line"/>
      <point x="134" y="530" type="line"/>
      <point x="50" y="530" type="line"/>
    </contour>
    <contour>
      <point x="466" y="-110" type="line"/>
      <point x="550" y="-110" type="line"/>
      <point x="550" y="74" type="line"/>
      <point x="421" y="74" type="line"/>
      <point x="421" y="0" type="line"/>
      <point x="466" y="0" type="line"/>
    </contour>
  </outline>
</glyph>
<glyph name="che-cy" format="2">
  <advance width="600"/>
  <unicode hex="0447"/>
  <outline>
    <contour>
      <point x="416" y="0" type="line"/>
      <point x="500" y="0" type="line"/>
      <point x="500" y="530" type="line"/>
      <point x="416" y="530" type="line"/>
      <point x="416" y="290" type="line"/>
      <point x="394" y="264"/>
      <point x="336" y="234"/>
      <point x="268" y="234" type="curve" smooth="yes"/>
      <point x="204" y="234"/>
      <point x="164" y="261"/>
      <point x="164" y="336" type="curve" smooth="yes"/>
      <point x="164" y="530" type="line"/>
      <point x="80" y="530" type="line"/>
      <point x="80" y="336" type="line" smooth="yes"/>
      <point x="80" y="206"/>
      <point x="149" y="158"/>
      <point x="262" y="158" type="curve" smooth="yes"/>
      <point x="352" y="158"/>
      <point x="409" y="194"/>
      <point x="448" y="232" type="curve"/>
      <point x="416" y="260" type="line"/>
    </contour>
  </outline>
</glyph>
<glyph name="sha-cy" format="2">
  <advance width="600"/>
  <unicode hex="0448"/>
  <outline>
    <contour>
      <point x="50" y="0" type="line"/>
      <point x="550" y="0" type="line"/>
      <point x="550" y="530" type="line"/>
      <point x="466" y="530" type="line"/>
      <point x="466" y="74" type="line"/>
      <point x="342" y="74" type="line"/>
      <point x="342" y="530" type="line"/>
      <point x="258" y="530" type="line"/>
      <point x="258" y="74" type="line"/>
      <point x="134" y="74" type="line"/>
      <point x="134" y="530" type="line"/>
      <point x="50" y="530" type="line"/>
    </contour>
  </outline>
</glyph>
